G04 #@! TF.GenerationSoftware,KiCad,Pcbnew,(5.99.0-1124-gd78759612)*
G04 #@! TF.CreationDate,2021-10-07T20:38:15-04:00*
G04 #@! TF.ProjectId,harkonnen,6861726b-6f6e-46e6-956e-2e6b69636164,rev?*
G04 #@! TF.SameCoordinates,Original*
G04 #@! TF.FileFunction,Profile,NP*
%FSLAX46Y46*%
G04 Gerber Fmt 4.6, Leading zero omitted, Abs format (unit mm)*
G04 Created by KiCad (PCBNEW (5.99.0-1124-gd78759612)) date 2021-10-07 20:38:15*
%MOMM*%
%LPD*%
G01*
G04 APERTURE LIST*
G04 #@! TA.AperFunction,Profile*
%ADD10C,0.264582*%
G04 #@! TD*
G04 APERTURE END LIST*
D10*
X135600296Y-156366394D02*
X135469284Y-156230881D01*
X18900300Y-131293457D02*
X18757301Y-131415604D01*
X136444321Y-156749436D02*
X136258301Y-156716736D01*
X136258301Y-156716736D02*
X136078301Y-156661042D01*
X136402443Y-153773407D02*
X136590462Y-153759003D01*
X135142281Y-155560318D02*
X135116379Y-155373764D01*
X135245461Y-154639084D02*
X135334458Y-154472779D01*
X135116348Y-155373764D02*
X135113350Y-155185410D01*
X135134461Y-154998215D02*
X135178459Y-154815171D01*
X18067321Y-131699860D02*
X17879312Y-131714264D01*
X136778450Y-153767838D02*
X136964462Y-153800537D01*
X19335300Y-130474961D02*
X19291299Y-130658066D01*
X136590462Y-153758973D02*
X136778450Y-153767975D01*
X19291299Y-130658066D02*
X19224300Y-130834183D01*
X19224300Y-130834183D02*
X19136300Y-131000489D01*
X135442459Y-154318802D02*
X135569458Y-154179718D01*
X135263283Y-155916260D02*
X135191284Y-155742096D01*
X135746300Y-156484452D02*
X135600296Y-156366394D01*
X19027301Y-131154404D02*
X18900300Y-131293457D01*
X18757301Y-131415604D02*
X18599311Y-131518753D01*
X135907303Y-156583145D02*
X135746300Y-156484452D01*
X18251302Y-131661957D02*
X18067321Y-131699860D01*
X17879312Y-131714402D02*
X17691322Y-131705399D01*
X136078301Y-156661042D02*
X135907303Y-156583145D01*
X135569458Y-154179718D02*
X135713448Y-154057633D01*
X135334458Y-154472779D02*
X135442459Y-154318802D01*
X136218460Y-153811203D02*
X136402443Y-153773407D01*
X135713448Y-154057633D02*
X135870445Y-153954499D01*
X137623451Y-154150757D02*
X137753441Y-154286255D01*
X137315460Y-153934037D02*
X137476471Y-154032730D01*
X135469284Y-156230881D02*
X135356285Y-156080063D01*
X136964462Y-153800537D02*
X137144463Y-153856232D01*
X135113442Y-155185410D02*
X135134339Y-154998215D01*
X135356285Y-156080063D02*
X135263283Y-155916260D01*
X135178459Y-154815171D02*
X135245461Y-154639084D01*
X135191284Y-155742096D02*
X135142281Y-155560318D01*
X136040459Y-153871903D02*
X136218460Y-153811203D01*
X18430322Y-131601258D02*
X18251302Y-131661957D01*
X137476471Y-154032730D02*
X137623451Y-154150757D01*
X19206140Y-129556977D02*
X19278140Y-129731110D01*
X135870445Y-153954499D02*
X136040459Y-153871903D01*
X18599311Y-131518753D02*
X18430322Y-131601258D01*
X137144463Y-153856232D02*
X137315460Y-153934037D01*
X19278140Y-129731110D02*
X19327140Y-129912857D01*
X19327140Y-129912857D02*
X19354240Y-130099411D01*
X19354150Y-130099411D02*
X19357150Y-130287796D01*
X19356311Y-130287796D02*
X19335410Y-130474961D01*
X19136300Y-131000489D02*
X19027301Y-131154404D01*
X300820603Y-28250412D02*
X301000580Y-28194413D01*
X136632599Y-156758316D02*
X136444611Y-156749314D01*
X300342606Y-28544411D02*
X300488571Y-28426415D01*
X300005570Y-28994416D02*
X300098572Y-28831406D01*
X300310578Y-30731408D02*
X300183579Y-30592408D01*
X300183579Y-30592408D02*
X300074555Y-30438401D01*
X301186615Y-28161415D02*
X301374588Y-28152413D01*
X299919556Y-30095391D02*
X299875549Y-29912400D01*
X302094589Y-28348313D02*
X302252579Y-28451294D01*
X137753441Y-154286255D02*
X137866440Y-154437073D01*
X137866440Y-154437073D02*
X137959442Y-154600876D01*
X300453583Y-30853409D02*
X300310578Y-30731408D01*
X137959442Y-154600876D02*
X138031441Y-154775071D01*
X138031441Y-154775071D02*
X138081444Y-154956818D01*
X138109612Y-155331726D02*
X138088715Y-155518921D01*
X301746597Y-28204316D02*
X301925614Y-28265313D01*
X138088608Y-155518921D02*
X138044609Y-155701996D01*
X299854508Y-29725403D02*
X299857514Y-29537415D01*
X301000580Y-28194413D02*
X301186615Y-28161415D01*
X137780586Y-156198334D02*
X137653588Y-156337418D01*
X137510590Y-156459534D02*
X137352600Y-156562653D01*
X299986557Y-30272400D02*
X299919556Y-30095391D01*
X138107407Y-155143372D02*
X138110405Y-155331726D01*
X137653588Y-156337418D02*
X137510590Y-156459534D01*
X138081444Y-154956818D02*
X138107346Y-155143372D01*
X137352600Y-156562653D02*
X137183609Y-156645249D01*
X301925614Y-28265313D02*
X302094589Y-28348313D01*
X299857514Y-29537415D02*
X299884613Y-29350418D01*
X137889588Y-156044388D02*
X137780586Y-156198334D01*
X300611557Y-30956391D02*
X300453583Y-30853409D01*
X301374588Y-28152413D02*
X301562576Y-28167313D01*
X300780579Y-31039391D02*
X300611557Y-30956391D01*
X138044609Y-155701996D02*
X137977608Y-155878067D01*
X137977585Y-155878067D02*
X137889588Y-156044388D01*
X137183609Y-156645249D02*
X137004601Y-156705948D01*
X137004601Y-156705948D02*
X136820587Y-156743851D01*
X136820587Y-156743851D02*
X136632599Y-156758255D01*
X301143555Y-31137390D02*
X300959564Y-31099388D01*
X300959564Y-31099388D02*
X300780579Y-31039391D01*
X300074555Y-30438401D02*
X299986557Y-30272400D01*
X299875549Y-29912400D02*
X299854645Y-29725403D01*
X300211579Y-28680413D02*
X300342606Y-28544411D01*
X299884567Y-29350418D02*
X299933563Y-29169396D01*
X300649597Y-28327416D02*
X300820603Y-28250412D01*
X299933563Y-29169396D02*
X300005570Y-28994416D01*
X300098572Y-28831406D02*
X300211579Y-28680413D01*
X300488571Y-28426415D02*
X300649597Y-28327416D01*
X301562576Y-28167313D02*
X301746597Y-28204316D01*
X194941849Y-27290123D02*
X195098847Y-27393143D01*
X195548920Y-29251122D02*
X195455918Y-29415123D01*
X195566834Y-27974129D02*
X195633835Y-28150116D01*
X195620926Y-29077134D02*
X195548920Y-29251122D01*
X195455918Y-29415123D02*
X195342911Y-29566132D01*
X318875656Y-131700470D02*
X318691605Y-131662567D01*
X195064896Y-29820130D02*
X194904907Y-29918129D01*
X195098847Y-27393143D02*
X195242859Y-27515114D01*
X195242859Y-27515114D02*
X195369858Y-27654137D01*
X195369858Y-27654137D02*
X195477829Y-27808129D01*
X195477829Y-27808129D02*
X195566834Y-27974129D01*
X195633835Y-28150116D02*
X195677841Y-28333138D01*
X194904907Y-29918129D02*
X194732910Y-29996132D01*
X195677841Y-28333138D02*
X195698746Y-28521126D01*
X194732910Y-29996132D02*
X194552918Y-30052132D01*
X195698868Y-28521126D02*
X195695862Y-28709145D01*
X195695969Y-28709145D02*
X195669968Y-28896141D01*
X195669922Y-28896141D02*
X195620926Y-29077134D01*
X195211899Y-29702141D02*
X195064896Y-29820130D01*
X194367920Y-30085129D02*
X194179917Y-30094132D01*
X194179917Y-30094132D02*
X193991928Y-30079232D01*
X195342911Y-29566132D02*
X195211899Y-29702141D01*
X194552918Y-30052132D02*
X194367920Y-30085129D01*
X194771866Y-27207123D02*
X194941849Y-27290123D01*
X318042618Y-131294037D02*
X317915604Y-131154953D01*
X318918595Y-128724427D02*
X319106583Y-128715424D01*
X317830582Y-129393708D02*
X317943588Y-129242844D01*
X317915604Y-131154953D02*
X317806626Y-131001038D01*
X317718613Y-130834717D02*
X317651627Y-130658631D01*
X317651627Y-130658631D02*
X317607620Y-130475556D01*
X317589615Y-130099945D02*
X317616715Y-129913422D01*
X317586624Y-130288361D02*
X317589615Y-130099945D01*
X318073593Y-129107346D02*
X318220566Y-128989319D01*
X318552567Y-128812821D02*
X318732590Y-128757126D01*
X317665604Y-129731644D02*
X317737595Y-129557511D01*
X317737595Y-129557511D02*
X317830582Y-129393708D01*
X317607620Y-130475556D02*
X317586716Y-130288361D01*
X317616593Y-129913422D02*
X317665604Y-129731644D01*
X317943588Y-129242844D02*
X318073593Y-129107346D01*
X318220566Y-128989319D02*
X318381577Y-128890625D01*
X318381577Y-128890625D02*
X318552567Y-128812821D01*
X319106583Y-128715561D02*
X319294602Y-128729966D01*
X318732590Y-128757126D02*
X318918595Y-128724427D01*
X318691605Y-131662567D02*
X318512589Y-131601868D01*
X318512589Y-131601868D02*
X318343613Y-131519364D01*
X318343613Y-131519364D02*
X318185654Y-131416153D01*
X317806626Y-131001038D02*
X317718613Y-130834717D01*
X318185654Y-131416153D02*
X318042618Y-131294037D01*
X319826615Y-128911164D02*
X319983597Y-129014267D01*
X320127609Y-129136383D02*
X320254624Y-129275467D01*
X319983597Y-129014267D02*
X320127609Y-129136383D01*
X320362595Y-129429398D02*
X320451584Y-129595795D01*
X320583634Y-130142060D02*
X320580643Y-130330475D01*
X320518570Y-129771790D02*
X320562576Y-129954895D01*
X320451584Y-129595795D02*
X320518570Y-129771790D01*
X319789749Y-131539795D02*
X319618759Y-131617691D01*
X320580765Y-130330475D02*
X320554856Y-130516999D01*
X320554794Y-130516999D02*
X320505783Y-130698777D01*
X320433792Y-130872986D02*
X320340805Y-131036713D01*
X320562576Y-129954895D02*
X320583481Y-130142060D01*
X320505783Y-130698777D02*
X320433792Y-130872986D01*
X320340805Y-131036713D02*
X320227799Y-131187577D01*
X319438767Y-131673386D02*
X319252731Y-131706086D01*
X319252731Y-131706086D02*
X319064774Y-131715088D01*
X319294602Y-128729966D02*
X319478623Y-128767868D01*
X319656571Y-128828568D02*
X319826615Y-128911164D01*
X320227799Y-131187577D02*
X320096787Y-131323075D01*
X320096787Y-131323075D02*
X319950791Y-131441101D01*
X320254624Y-129275467D02*
X320362595Y-129429398D01*
X319950791Y-131441101D02*
X319789749Y-131539795D01*
X319618759Y-131617691D02*
X319438767Y-131673386D01*
X319478623Y-128767868D02*
X319656571Y-128828568D01*
X198834732Y-155332260D02*
X198837738Y-155143906D01*
X199320877Y-154151352D02*
X199467880Y-154033295D01*
X199799896Y-153856797D02*
X199979889Y-153801102D01*
X198836945Y-155143906D02*
X198862839Y-154957383D01*
X198966751Y-155878617D02*
X198899750Y-155702530D01*
X198855744Y-155519455D02*
X198834839Y-155332260D01*
X199077881Y-154437622D02*
X199190888Y-154286835D01*
X199628891Y-153934601D02*
X199799896Y-153856797D01*
X199190888Y-154286835D02*
X199320877Y-154151352D01*
X199433746Y-156460083D02*
X199290741Y-156337967D01*
X198984879Y-154601426D02*
X199077881Y-154437622D01*
X199760758Y-156645813D02*
X199591767Y-156563218D01*
X199979889Y-153801102D02*
X200165863Y-153768402D01*
X199591767Y-156563218D02*
X199433746Y-156460083D01*
X199467880Y-154033295D02*
X199628891Y-153934601D01*
X199290741Y-156337967D02*
X199163742Y-156198883D01*
X319064774Y-131714981D02*
X318876785Y-131700577D01*
X199939743Y-156706513D02*
X199760758Y-156645813D01*
X199163742Y-156198883D02*
X199054749Y-156044937D01*
X198912872Y-154775605D02*
X198984879Y-154601426D01*
X198862869Y-154957383D02*
X198912872Y-154775605D01*
X200123749Y-156744416D02*
X199939743Y-156706513D01*
X199054749Y-156044937D02*
X198966751Y-155878617D01*
X198899750Y-155702530D02*
X198855744Y-155519455D01*
X201698883Y-154639771D02*
X201765885Y-154815842D01*
X201474991Y-156231552D02*
X201343979Y-156367081D01*
X201343979Y-156367081D02*
X201197983Y-156485108D01*
X201036972Y-156583802D02*
X200865967Y-156661606D01*
X200725876Y-153811890D02*
X200903870Y-153872589D01*
X200903870Y-153872589D02*
X201073883Y-153955185D01*
X201830918Y-155186081D02*
X201827912Y-155374436D01*
X201681000Y-155916916D02*
X201587998Y-156080719D01*
X201809891Y-154998917D02*
X201830795Y-155186081D01*
X201073883Y-153955185D02*
X201230850Y-154058304D01*
X201230850Y-154058304D02*
X201374863Y-154180390D01*
X201501862Y-154319474D02*
X201609879Y-154473450D01*
X201765885Y-154815842D02*
X201809891Y-154998917D01*
X201802002Y-155561005D02*
X201753006Y-155742752D01*
X201753006Y-155742752D02*
X201681000Y-155916916D01*
X201197983Y-156485108D02*
X201036972Y-156583802D01*
X201587998Y-156080719D02*
X201474991Y-156231552D01*
X200165863Y-153768402D02*
X200353882Y-153759400D01*
X200353882Y-153759537D02*
X200541870Y-153773941D01*
X200541870Y-153773987D02*
X200725876Y-153811890D01*
X201374863Y-154180390D02*
X201501862Y-154319474D01*
X201609879Y-154473450D02*
X201698883Y-154639771D01*
X201828034Y-155374436D02*
X201802033Y-155561005D01*
X200865967Y-156661606D02*
X200685974Y-156717301D01*
X303638596Y-24105584D02*
X302925614Y-23862587D01*
X302925614Y-23862587D02*
X302187546Y-23710579D01*
X307261582Y-28610573D02*
X307084580Y-27878571D01*
X306816574Y-27173584D02*
X306462570Y-26508583D01*
X201000519Y-160163300D02*
X201742523Y-160032471D01*
X15727281Y-135824051D02*
X16447252Y-136046875D01*
X34121151Y-29954560D02*
X34094052Y-29767563D01*
X35423141Y-31143563D02*
X35237131Y-31110566D01*
X34420971Y-28712571D02*
X34547971Y-28573571D01*
X35057131Y-31054566D02*
X34886131Y-30976563D01*
X34448151Y-30624565D02*
X34335151Y-30473572D01*
X34848961Y-28348557D02*
X35017981Y-28265557D01*
X34094141Y-29767563D02*
X34091141Y-29579552D01*
X34311971Y-28866578D02*
X34420971Y-28712571D01*
X34156970Y-29208565D02*
X34223971Y-29032578D01*
X34690971Y-28451569D02*
X34848961Y-28348557D01*
X302187546Y-23710579D02*
X301436569Y-23652581D01*
X305520584Y-25336579D02*
X304946610Y-24848587D01*
X34579130Y-30760567D02*
X34448151Y-30624565D01*
X34112971Y-29391564D02*
X34156970Y-29208565D01*
X34547971Y-28573571D02*
X34690971Y-28451569D01*
X34223971Y-29032578D02*
X34311971Y-28866578D01*
X34725150Y-30878563D02*
X34579130Y-30760567D01*
X34170151Y-30135552D02*
X34121151Y-29954560D01*
X304946610Y-24848587D02*
X304316574Y-24435585D01*
X200247513Y-160200104D02*
X201000519Y-160163300D01*
X304316574Y-24435585D02*
X303638596Y-24105584D01*
X35237131Y-31110566D02*
X35057131Y-31054566D01*
X34335151Y-30473572D02*
X34242151Y-30309571D01*
X34242151Y-30309571D02*
X34170151Y-30135552D01*
X34091931Y-29579552D02*
X34112830Y-29391564D01*
X307084580Y-27878571D02*
X306816574Y-27173584D01*
X34886131Y-30976563D02*
X34725150Y-30878563D01*
X37088159Y-29725541D02*
X37067259Y-29912537D01*
X36162139Y-31039536D02*
X35983159Y-31099533D01*
X142209908Y-29996163D02*
X142037888Y-29918160D01*
X35611160Y-31152504D02*
X35423169Y-31143502D01*
X142001068Y-27290184D02*
X142171082Y-27207184D01*
X36600960Y-28544556D02*
X36731940Y-28680558D01*
X37067149Y-29912537D02*
X37023150Y-30095566D01*
X36956149Y-30272545D02*
X36868149Y-30438546D01*
X141309082Y-28150162D02*
X141376084Y-27974175D01*
X36759159Y-30592553D02*
X36632159Y-30731545D01*
X143095078Y-27136086D02*
X143275078Y-27192086D01*
X142037888Y-29918160D02*
X141877899Y-29820160D01*
X35568960Y-28152558D02*
X35756980Y-28161560D01*
X37058939Y-29350563D02*
X37086039Y-29537560D01*
X35942960Y-28194558D02*
X36122960Y-28250557D01*
X142721077Y-27094086D02*
X142910080Y-27103089D01*
X36868149Y-30438546D02*
X36759159Y-30592553D01*
X142574906Y-30085160D02*
X142389908Y-30052163D01*
X141844071Y-27393166D02*
X142001068Y-27290184D01*
X141393906Y-29251168D02*
X141321907Y-29077179D01*
X141730889Y-29702164D02*
X141599907Y-29566162D01*
X142534081Y-27108185D02*
X142721077Y-27094086D01*
X141486908Y-29415169D02*
X141393906Y-29251168D01*
X141246971Y-28709160D02*
X141243973Y-28521172D01*
X141376084Y-27974175D02*
X141465080Y-27808174D01*
X143275078Y-27192086D02*
X143447090Y-27269089D01*
X143447090Y-27269089D02*
X143607094Y-27368088D01*
X141877899Y-29820160D02*
X141730889Y-29702164D01*
X143754097Y-27486084D02*
X143885079Y-27622086D01*
X142910080Y-27103089D02*
X143095078Y-27136086D01*
X141321907Y-29077179D02*
X141272904Y-28896157D01*
X37085959Y-29537560D02*
X37088959Y-29725541D01*
X36331169Y-30956536D02*
X36162139Y-31039536D01*
X141700081Y-27515168D02*
X141844071Y-27393166D01*
X143607094Y-27368088D02*
X143754097Y-27486084D01*
X36489149Y-30853554D02*
X36331169Y-30956536D01*
X35983159Y-31099533D02*
X35799179Y-31137535D01*
X141265083Y-28333161D02*
X141309082Y-28150162D01*
X142349083Y-27146187D02*
X142534081Y-27108185D01*
X141465080Y-27808174D02*
X141573082Y-27654168D01*
X143885079Y-27622086D02*
X143998085Y-27773102D01*
X35196961Y-28204560D02*
X35380970Y-28167557D01*
X35756980Y-28161560D02*
X35942960Y-28194558D01*
X36122960Y-28250557D02*
X36293960Y-28327561D01*
X36454940Y-28426560D02*
X36600960Y-28544556D01*
X36731940Y-28680558D02*
X36844939Y-28831551D01*
X35799179Y-31137535D02*
X35611160Y-31152535D01*
X37009939Y-29169571D02*
X37058939Y-29350563D01*
X141244080Y-28521172D02*
X141264977Y-28333161D01*
X36937940Y-28994561D02*
X37009939Y-29169571D01*
X143998085Y-27773102D02*
X144091088Y-27936081D01*
X37023150Y-30095566D02*
X36956149Y-30272545D01*
X144091088Y-27936081D02*
X144162087Y-28111092D01*
X36844939Y-28831551D02*
X36937940Y-28994561D01*
X142389908Y-30052163D02*
X142209908Y-29996163D01*
X141272904Y-28896157D02*
X141247002Y-28709160D01*
X141573082Y-27654168D02*
X141700081Y-27515168D01*
X144162087Y-28111092D02*
X144212090Y-28292099D01*
X35017981Y-28265557D02*
X35196961Y-28204560D01*
X141599907Y-29566162D02*
X141486908Y-29415169D01*
X142171082Y-27207184D02*
X142349083Y-27146187D01*
X35380970Y-28167557D02*
X35568960Y-28152558D01*
X36632159Y-30731545D02*
X36489149Y-30853554D01*
X36293960Y-28327561D02*
X36454940Y-28426560D01*
X302851608Y-29579316D02*
X302848618Y-29767296D01*
X302700577Y-30309304D02*
X302607590Y-30473305D01*
X193459961Y-29897995D02*
X193301987Y-29795014D01*
X192730835Y-28292015D02*
X192780838Y-28111008D01*
X194032837Y-27103028D02*
X194221848Y-27094025D01*
X302363602Y-30760300D02*
X302217575Y-30878296D01*
X192851837Y-27936028D02*
X192944840Y-27773018D01*
X193301987Y-29795014D02*
X193158981Y-29673005D01*
X302772568Y-30135285D02*
X302700577Y-30309304D01*
X302607590Y-30473305D02*
X302494583Y-30624298D01*
X194408844Y-27108124D02*
X194593842Y-27146126D01*
X192922989Y-29380005D02*
X192834992Y-29213997D01*
X194221848Y-27094025D02*
X194408844Y-27108124D01*
X302494583Y-30624298D02*
X302363602Y-30760300D01*
X193158981Y-29673005D02*
X193031983Y-29534012D01*
X193057846Y-27622025D02*
X193188858Y-27486016D01*
X302217575Y-30878296D02*
X302056595Y-30976296D01*
X302056595Y-30976296D02*
X301885575Y-31054299D01*
X301885575Y-31054299D02*
X301705612Y-31110299D01*
X301705612Y-31110299D02*
X301519577Y-31143296D01*
X193991989Y-30078995D02*
X193806992Y-30040993D01*
X193806992Y-30040993D02*
X193628998Y-29980996D01*
X192701981Y-28667000D02*
X192704987Y-28479012D01*
X193628998Y-29980996D02*
X193459961Y-29897995D01*
X193188858Y-27486016D02*
X193335861Y-27368027D01*
X192767990Y-29036995D02*
X192722992Y-28853997D01*
X193847840Y-27136025D02*
X194032837Y-27103028D01*
X193335861Y-27368027D02*
X193495850Y-27269028D01*
X192944840Y-27773018D02*
X193057846Y-27622025D01*
X192722992Y-28853997D02*
X192702088Y-28667000D01*
X302252579Y-28451294D02*
X302395584Y-28573304D01*
X194593842Y-27146126D02*
X194771866Y-27207123D01*
X302395584Y-28573304D02*
X302522598Y-28712296D01*
X301519577Y-31143296D02*
X301331589Y-31152298D01*
X192780838Y-28111008D02*
X192851837Y-27936028D01*
X302522598Y-28712296D02*
X302631607Y-28866303D01*
X193667847Y-27192025D02*
X193847840Y-27136025D01*
X302631607Y-28866303D02*
X302719620Y-29032303D01*
X302719620Y-29032303D02*
X302786606Y-29208306D01*
X301331589Y-31152298D02*
X301143570Y-31137299D01*
X193495850Y-27269028D02*
X193667847Y-27192025D01*
X193031983Y-29534012D02*
X192922989Y-29380005D01*
X302786606Y-29208306D02*
X302830612Y-29391297D01*
X192704880Y-28479012D02*
X192730774Y-28292015D01*
X302848618Y-29767296D02*
X302821518Y-29954308D01*
X302821579Y-29954308D02*
X302772568Y-30135285D01*
X192834992Y-29213997D02*
X192767990Y-29036995D01*
X302830612Y-29391297D02*
X302851517Y-29579316D01*
X135942063Y-160163330D02*
X136695053Y-160200135D01*
X324961350Y-131421585D02*
X325066361Y-130675415D01*
X12465074Y-132845322D02*
X12838052Y-133500489D01*
X322542374Y-135117997D02*
X323130356Y-134645844D01*
X320495407Y-136046891D02*
X321215408Y-135824067D01*
X136695061Y-160200119D02*
X200247330Y-160200119D01*
X34017089Y-23862587D02*
X33304079Y-24105584D01*
X325066361Y-130675415D02*
X325077469Y-129921997D01*
X11949071Y-129173172D02*
X11865072Y-129921967D01*
X323653366Y-134103775D02*
X324104386Y-133500458D01*
X29858090Y-27878579D02*
X29681080Y-28610581D01*
X324477402Y-132845322D02*
X324764389Y-132148697D01*
X12178083Y-132148682D02*
X12465074Y-132845322D01*
X13812061Y-134645813D02*
X14400071Y-135117997D01*
X135200073Y-160032502D02*
X135942063Y-160163330D01*
X201742356Y-160032502D02*
X320495346Y-136046906D01*
X321901413Y-135512802D02*
X322542435Y-135117966D01*
X324993546Y-129173188D02*
X307261582Y-28610581D01*
X29681062Y-28610573D02*
X11949060Y-129173157D01*
X30480079Y-26508591D02*
X30126089Y-27173561D01*
X11876073Y-130675415D02*
X11981061Y-131421585D01*
X31996100Y-24848587D02*
X31422079Y-25336579D01*
X13289073Y-134103791D02*
X13812062Y-134645798D01*
X32626083Y-24435578D02*
X31996083Y-24848580D01*
X16447072Y-136046875D02*
X135200073Y-160032471D01*
X30914079Y-25892586D02*
X30480079Y-26508591D01*
X324764389Y-132148697D02*
X324961350Y-131421585D01*
X30126089Y-27173561D02*
X29858090Y-27878579D01*
X11865072Y-129921967D02*
X11876073Y-130675415D01*
X325077439Y-129921997D02*
X324993424Y-129173203D01*
X12838052Y-133500489D02*
X13289071Y-134103806D01*
X14400071Y-135117997D02*
X15041051Y-135512833D01*
X323130356Y-134645844D02*
X323653366Y-134103806D01*
X15041051Y-135512833D02*
X15727081Y-135824097D01*
X306028580Y-25892586D02*
X305520584Y-25336579D01*
X34755100Y-23710579D02*
X34017089Y-23862587D01*
X321215408Y-135824067D02*
X321901413Y-135512802D01*
X301436356Y-23652581D02*
X35506081Y-23652581D01*
X306462357Y-26508583D02*
X306028336Y-25892578D01*
X11981061Y-131421570D02*
X12178083Y-132148667D01*
X35506089Y-23652581D02*
X34755100Y-23710579D01*
X31422079Y-25336579D02*
X30914079Y-25892586D01*
X33304063Y-24105576D02*
X32626083Y-24435578D01*
X324104386Y-133500489D02*
X324477402Y-132845322D01*
X16603067Y-131036118D02*
X16510066Y-130872437D01*
X18025117Y-128723893D02*
X18211127Y-128756592D01*
X16960128Y-129013687D02*
X17117128Y-128910630D01*
X18723138Y-128988785D02*
X18870118Y-129106781D01*
X16716037Y-131186997D02*
X16603067Y-131036118D01*
X144219895Y-28854088D02*
X144174896Y-29037079D01*
X18391137Y-128812287D02*
X18562127Y-128890091D01*
X18870118Y-129106781D02*
X19000138Y-129242264D01*
X144174896Y-29037079D02*
X144107895Y-29214089D01*
X143482887Y-29898087D02*
X143313889Y-29981087D01*
X17505046Y-131672806D02*
X17325046Y-131617112D01*
X16816138Y-129135834D02*
X16960128Y-129013687D01*
X16360116Y-130141495D02*
X16381017Y-129954300D01*
X17325046Y-131617112D02*
X17154046Y-131539215D01*
X142950897Y-30079087D02*
X142762879Y-30093987D01*
X18211127Y-128756592D02*
X18391137Y-128812287D01*
X18562127Y-128890091D02*
X18723138Y-128988785D01*
X144238022Y-28479073D02*
X144241020Y-28667092D01*
X144107895Y-29214089D02*
X144019898Y-29380097D01*
X143910904Y-29534073D02*
X143783905Y-29673096D01*
X143783905Y-29673096D02*
X143640907Y-29795075D01*
X143313889Y-29981087D02*
X143135895Y-30041085D01*
X16993047Y-131440522D02*
X16847047Y-131322495D01*
X17691056Y-131705506D02*
X17505046Y-131672806D01*
X16847047Y-131322495D02*
X16716037Y-131186997D01*
X16381128Y-129954300D02*
X16425128Y-129771225D01*
X143640907Y-29795075D02*
X143482887Y-29898087D01*
X143135895Y-30041085D02*
X142950897Y-30079087D01*
X16425128Y-129771225D02*
X16492128Y-129595200D01*
X142762879Y-30093964D02*
X142574898Y-30084961D01*
X16438066Y-130698182D02*
X16389066Y-130516404D01*
X19113139Y-129393174D02*
X19206140Y-129556977D01*
X17154046Y-131539215D02*
X16993047Y-131440522D01*
X16510066Y-130872437D02*
X16438066Y-130698182D01*
X17287137Y-128828034D02*
X17465137Y-128767334D01*
X17649137Y-128729432D02*
X17837127Y-128715027D01*
X16363036Y-130329880D02*
X16360036Y-130141495D01*
X17465137Y-128767334D02*
X17649137Y-128729432D01*
X16581128Y-129428833D02*
X16689138Y-129274887D01*
X16689138Y-129274887D02*
X16816138Y-129135834D01*
X19000138Y-129242264D02*
X19113139Y-129393174D01*
X17837127Y-128715027D02*
X18025117Y-128724030D01*
X144019898Y-29380097D02*
X143910904Y-29534073D01*
X16389066Y-130516404D02*
X16363067Y-130329880D01*
X17117128Y-128910630D02*
X17287137Y-128828034D01*
X16492128Y-129595200D02*
X16581128Y-129428833D01*
X144212090Y-28292099D02*
X144237991Y-28479073D01*
X144240898Y-28667092D02*
X144220001Y-28854088D01*
X200685974Y-156717301D02*
X200500000Y-156750000D01*
X200312012Y-156758866D02*
X200123993Y-156744461D01*
X200500000Y-156750000D02*
X200312012Y-156759003D01*
M02*
