<?xml version="1.0" encoding="UTF-8" standalone="no"?>
<svg
   xmlns:dc="http://purl.org/dc/elements/1.1/"
   xmlns:cc="http://creativecommons.org/ns#"
   xmlns:rdf="http://www.w3.org/1999/02/22-rdf-syntax-ns#"
   xmlns:svg="http://www.w3.org/2000/svg"
   xmlns="http://www.w3.org/2000/svg"
   xmlns:sodipodi="http://sodipodi.sourceforge.net/DTD/sodipodi-0.dtd"
   xmlns:inkscape="http://www.inkscape.org/namespaces/inkscape"
   width="210mm"
   height="297mm"
   viewBox="0 0 210 297"
   version="1.1"
   id="svg6025"
   sodipodi:docname="bottom.svg"
   inkscape:version="1.0.1 (3bc2e813f5, 2020-09-07)">
  <defs
     id="defs6019" />
  <sodipodi:namedview
     id="base"
     pagecolor="#ffffff"
     bordercolor="#666666"
     borderopacity="1.0"
     inkscape:pageopacity="0.0"
     inkscape:pageshadow="2"
     inkscape:zoom="0.65000665"
     inkscape:cx="366.74038"
     inkscape:cy="460.3629"
     inkscape:document-units="mm"
     inkscape:current-layer="layer1"
     inkscape:document-rotation="0"
     showgrid="false"
     inkscape:window-width="1500"
     inkscape:window-height="938"
     inkscape:window-x="-6"
     inkscape:window-y="-6"
     inkscape:window-maximized="1" />
  <metadata
     id="metadata6022">
    <rdf:RDF>
      <cc:Work
         rdf:about="">
        <dc:format>image/svg+xml</dc:format>
        <dc:type
           rdf:resource="http://purl.org/dc/dcmitype/StillImage" />
      </cc:Work>
    </rdf:RDF>
  </metadata>
  <g
     inkscape:label="Layer 1"
     inkscape:groupmode="layer"
     id="layer1">
    <path
       id="path2616"
       style="fill:none;stroke:#000000;stroke-width:0.264583"
       d="M 256.18532,64.773855 H -9.7449424 M 91.444038,201.32139 H 154.99631 M -15.569962,69.731848 l -17.732,100.562592 m 0.032,2.24841 0.19702,0.72709 m 1.11099,1.95512 0.52299,0.54201 m 19.492,-110.54022 -0.67798,0.330003 m 0,0 -0.63,0.413004 m -15.54901,111.198303 118.753,23.98559 m 188.453272,-25.92869 0.45103,-0.60331 M 261.21133,67.629858 260.77731,67.013853 m -270.5222624,-2.239998 -0.7509896,0.058 m 0,0 -0.73801,0.152005 m 0,0 -0.71301,0.242993 m -1.30798,0.743007 -0.57402,0.48799 m 0,0 -0.508,0.556006 m 0,0 -0.434,0.616005 m 0,0 -0.35399,0.66497 m 0,0 -0.268,0.70502 m 0,0 -0.17701,0.732 m -17.73201,100.562589 -0.084,0.74879 m 0,0 0.011,0.75345 m 0,0 0.10499,0.74617 m 0.19702,0.72709 0.28699,0.69664 m 0,0 0.37298,0.65517 m 0,0 0.45102,0.60331 m 0.52299,0.54201 0.58801,0.47218 m 0,0 0.64098,0.39483 m 0,0 0.68603,0.31126 m 119.47299,24.20841 0.74199,0.13083 m 0,0 0.75299,0.0368 m 65.047292,-0.16764 118.75298,-23.98559 m 2.04703,-0.92891 0.58798,-0.47215 m 0,0 0.52301,-0.54204 m 0.45103,-0.60331 0.37301,-0.65517 m 0,0 0.28699,-0.69662 m 0,0 0.19696,-0.72711 m 0,0 0.10501,-0.74617 m 0,0 0.0111,-0.75342 m -3e-5,0 -0.084,-0.74879 m -4.49802,6.87369 0.72001,-0.22282 m 0,0 0.68601,-0.31126 m 0,0 0.64101,-0.39483 m 2.4511,-5.94478 -17.73197,-100.562609 m -1.23301,-2.717995 -0.508,-0.556006 m 0,0 -0.57396,-0.48799 m 0,0 -0.63005,-0.413004 m 0,0 -0.67797,-0.330003 m 0,0 -0.71297,-0.242993 m 0,0 -0.73806,-0.152005 m 0,0 -0.75099,-0.058 m 5.82501,4.957993 -0.177,-0.732 m 0,0 -0.268,-0.70499 m 0,0 -0.35399,-0.665 M 155.7495,201.28458 l 0.74201,-0.13083 m -1.49501,0.16764 0.753,-0.0368 m -185.273232,-24.33925 0.71997,0.22282 m 18.9758896,-104.903312 -0.1860096,-0.033 m 0,0 -0.18,-0.056 m 0,0 -0.171,-0.078 m 0,0 -0.16098,-0.098 m 0,0 -0.14602,-0.118 m 0,0 -0.13098,-0.136 m 0,0 -0.113,-0.15099 m 0,0 -0.093,-0.164 m 0,0 -0.072,-0.17402 m 0,0 -0.049,-0.18099 m 0,0 -0.0271,-0.187 m 9e-5,0 -0.003,-0.18801 m 7.9e-4,0 0.0209,-0.18799 m 1.4e-4,0 0.044,-0.183 m 0,0 0.067,-0.17599 m 0,0 0.088,-0.166 m 0,0 0.109,-0.15401 m 0,0 0.127,-0.139 m 0,0 0.143,-0.122 m 0,0 0.15799,-0.10301 m 0,0 0.16902,-0.083 m 0,0 0.17898,-0.061 m 0,0 0.1840096,-0.037 m 0,0 0.18799,-0.015 m 0,0 0.18802,0.009 m 0,0 0.18598,0.033 m 0,0 0.18,0.056 m 0,0 0.171,0.077 m 0,0 0.16098,0.099 m 0,0 0.14602,0.118 m 0,0 0.13098,0.136 m 0,0 0.113,0.15099 m 0,0 0.093,0.16301 m 0,0 0.072,0.17501 m 0,0 0.049,0.18099 m 0,0 0.0271,0.187 m -8e-5,0 0.003,0.18798 m -8e-4,0 -0.0209,0.187 m -1.1e-4,0 -0.044,0.18303 m 0,0 -0.067,0.17698 m 0,0 -0.088,0.166 m 0,0 -0.10899,0.15401 m 0,0 -0.127,0.13899 m 0,0 -0.14301,0.12201 m 0,0 -0.15798,0.10298 m 0,0 -0.16903,0.083 m 0,0 -0.17898,0.06 m 0,0 -0.18398,0.038 m 0,0 -0.18802,0.015 m 0,-3e-5 -0.18799,-0.009 m 107.1517404,-1.05834 -0.185,-0.033 m 0,0 -0.18,-0.056 m 0,0 -0.17202,-0.078 m 0,0 -0.15999,-0.098 m 0,0 -0.14701,-0.118 m 0,0 -0.13098,-0.136 m 0,0 -0.113,-0.15099 m 0,0 -0.093,-0.164 m 0,0 -0.072,-0.17399 m 0,0 -0.049,-0.18102 m 0,0 -0.0259,-0.187 m -3e-5,0 -0.003,-0.18799 m 1.1e-4,0 0.0209,-0.18801 m 1.1e-4,0 0.044,-0.183 m 0,0 0.067,-0.17599 m 0,0 0.089,-0.166 m 0,0 0.108,-0.15401 m 0,0 0.127,-0.139 m 0,0 0.14399,-0.122 m 0,0 0.157,-0.10298 m 0,0 0.17001,-0.083 m 0,0 0.178,-0.061 m 0,0 0.185,-0.038 m 0,0 0.187,-0.0141 m 0,0 0.189,0.009 m 0,0 0.185,0.033 m 0,0 0.18,0.056 m 0,0 0.17201,0.077 m 0,0 0.16,0.099 m 0,0 0.147,0.118 m 0,0 0.13098,0.136 m 0,0 0.11301,0.15102 m 0,0 0.093,0.16298 m 0,0 0.071,0.17501 m 0,0 0.05,0.18101 m 0,0 0.0259,0.18697 m 3e-5,0 0.003,0.18802 m -1.2e-4,0 -0.0209,0.187 m -1.1e-4,0 -0.045,0.18299 m 0,0 -0.067,0.17701 m 0,0 -0.088,0.16601 m 0,0 -0.10899,0.15398 m 0,0 -0.127,0.13902 m 0,0 -0.143,0.12198 m 0,0 -0.15802,0.10301 m 0,0 -0.169,0.083 m 0,0 -0.17799,0.06 m 0,0 -0.185,0.038 m 0,0 -0.18802,0.0149 m 0,-2e-5 -0.18798,-0.009 m -124.88384,101.620552 -0.18601,-0.0327 m 0,0 -0.18,-0.0557 m 0,0 -0.171,-0.0779 m 0,0 -0.161,-0.0987 m 0,0 -0.146,-0.11802 m 0,0 -0.13101,-0.1355 m 0,0 -0.11297,-0.15088 m 0,0 -0.093,-0.16368 m 0,0 -0.072,-0.17425 m 0,0 -0.049,-0.18178 m 0,0 -0.026,-0.18652 m -3e-5,0 -0.003,-0.18838 m 8e-5,0 0.0209,-0.1872 m 1.1e-4,0 0.044,-0.18308 m 0,0 0.067,-0.17602 m 0,0 0.089,-0.16637 m 0,0 0.10801,-0.15395 m 0,0 0.127,-0.13905 m 0,0 0.14399,-0.12215 m 0,0 0.157,-0.10306 m 0,0 0.17001,-0.0826 m 0,0 0.178,-0.0607 m 0,0 0.184,-0.0379 m 0,0 0.18799,-0.0144 m 0,0 0.18799,0.009 m 0,-1.4e-4 0.18601,0.0327 m 0,0 0.18001,0.0557 m 0,0 0.17099,0.0778 m 0,0 0.16101,0.0987 m 0,0 0.14698,0.118 m 0,0 0.13002,0.13549 m 0,0 0.113,0.15091 m 0,0 0.093,0.1638 m 0,0 0.072,0.17413 m 0,0 0.049,0.18175 m 0,0 0.0271,0.18655 m -9e-5,0 0.003,0.18838 m -8.4e-4,0 -0.0209,0.18717 m -1.1e-4,0 -0.044,0.18311 m 0,0 -0.067,0.17611 m 0,0 -0.088,0.16631 m 0,0 -0.109,0.15392 m 0,0 -0.127,0.13905 m 0,0 -0.143,0.12215 m 0,0 -0.15799,0.10315 m 0,0 -0.16899,0.0825 m 0,0 -0.17902,0.0607 m 0,0 -0.18398,0.0379 m 0,0 -0.18801,0.0144 m 0,1.4e-4 -0.18799,-0.009 m 118.753,25.04404 -0.18602,-0.0327 m 0,0 -0.18,-0.0557 m 0,0 -0.171,-0.0779 m 0,0 -0.161,-0.0987 m 0,0 -0.146,-0.11806 m 0,0 -0.13101,-0.13552 m 0,0 -0.113,-0.15082 m 0,0 -0.093,-0.1638 m 0,0 -0.072,-0.17416 m 0,0 -0.049,-0.18178 m 0,0 -0.0259,-0.18655 m -3e-5,0 -0.003,-0.18835 m 9e-5,0 0.0209,-0.1872 m 1.2e-4,0 0.044,-0.18305 m 0,0 0.067,-0.17608 m 0,0 0.089,-0.16631 m 0,0 0.108,-0.15398 m 0,0 0.127,-0.13908 m 0,0 0.14399,-0.12209 m 0,0 0.157,-0.10313 m 0,0 0.17001,-0.0826 m 0,0 0.178,-0.0607 m 0,0 0.18398,-0.0378 m 0,0 0.18802,-0.0144 m 0,-3e-5 0.18799,0.009 m 0,-1.4e-4 0.18601,0.0327 m 0,0 0.18,0.0557 m 0,0 0.171,0.0778 m 0,0 0.16101,0.0987 m 0,0 0.14698,0.11802 m 0,0 0.12999,0.1355 m 0,0 0.113,0.15082 m 0,0 0.093,0.1638 m 0,0 0.072,0.17419 m 0,0 0.05,0.18175 m 0,0 0.0259,0.18655 m 6e-5,0 0.003,0.18835 m -7.9e-4,0 -0.0209,0.1872 m -1.1e-4,0 -0.044,0.18308 m 0,0 -0.067,0.17607 m -2e-5,0 -0.088,0.16632 m 0,0 -0.109,0.15395 m 0,0 -0.127,0.13908 m 0,0 -0.143,0.12212 m 0,0 -0.15799,0.10312 m 0,0 -0.16899,0.0826 m 0,0 -0.17901,0.0607 m 0,0 -0.18401,0.0379 m 0,0 -0.18799,0.0144 m 0,6e-5 -0.18799,-0.009 M 255.89253,72.258668 l -0.18399,-0.038 m 0,0 -0.17899,-0.06 m 0,0 -0.16902,-0.083 m 0,0 -0.15798,-0.10298 m 0,0 -0.14301,-0.122 m 0,0 -0.127,-0.139 m 0,0 -0.10903,-0.15401 m 0,0 -0.088,-0.166 m 0,0 -0.067,-0.17701 m 0,0 -0.044,-0.18299 m 0,0 -0.0209,-0.187 m -1.3e-4,0 0.003,-0.18799 m 0,0 0.0271,-0.187 m -5e-5,0 0.049,-0.18102 m 0,0 0.072,-0.17498 m 0,0 0.093,-0.16301 m 0,0 0.113,-0.15099 m 0,0 0.13102,-0.136 m 0,0 0.14597,-0.118 m 0,0 0.16103,-0.099 m 0,0 0.171,-0.077 m 0,0 0.17997,-0.056 m 0,0 0.18603,-0.033 m 0,0 0.18798,-0.009 m 0,0 0.18799,0.0149 m 0,0 0.18402,0.037 m 0,0 0.17901,0.061 m 0,0 0.16899,0.083 m 0,0 0.15799,0.10298 m 0,0 0.143,0.12201 m 0,0 0.127,0.13899 m 0,0 0.10901,0.15401 m 0,0 0.088,0.166 m 0,0 0.067,0.176 m 0,0 0.044,0.18299 m 0,0 0.0209,0.18802 m 1e-4,0 -0.003,0.18798 m 0,0 -0.0271,0.18701 m 5e-5,0 -0.049,0.18098 m 0,0 -0.072,0.17402 m 0,0 -0.093,0.164 m 0,0 -0.11301,0.15099 m 0,0 -0.13097,0.136 m 0,0 -0.14602,0.118 m 0,0 -0.16097,0.098 m 0,0 -0.17103,0.078 m 0,0 -0.17997,0.056 m 0,0 -0.18603,0.033 m 0,0 -0.18798,0.009 m 0,0 -0.18802,-0.015 m -107.15159,-1.0583 -0.185,-0.038 m 0,0 -0.17799,-0.06 m 0,0 -0.16903,-0.083 m 0,0 -0.15798,-0.10298 m 0,0 -0.14301,-0.12201 m 0,0 -0.127,-0.13899 m 0,0 -0.10899,-0.15401 m 0,0 -0.088,-0.16601 m 0,0 -0.067,-0.177 m 0,0 -0.045,-0.183 m 0,0 -0.0209,-0.187 m -1.1e-4,0 0.003,-0.18799 m -1.1e-4,0 0.0259,-0.187 m 6e-5,0 0.05,-0.18101 m 0,0 0.071,-0.17498 m 0,0 0.093,-0.16301 m 0,0 0.113,-0.15099 m 0,0 0.13101,-0.13601 m 0,0 0.14701,-0.11799 m 0,0 0.15999,-0.099 m 0,0 0.17199,-0.077 m 0,0 0.18,-0.056 m 0,0 0.18499,-0.033 m 0,0 0.18901,-0.009 m 0,0 0.187,0.0141 m 0,0 0.18499,0.038 m 0,0 0.17803,0.061 m 0,0 0.16999,0.083 m 0,0 0.157,0.10302 m 0,0 0.14402,0.12197 m 0,0 0.127,0.13902 m 0,0 0.10797,0.15399 m 0,0 0.089,0.166 m 0,0 0.067,0.17599 m 0,0 0.044,0.18302 m 0,0 0.0209,0.18799 m 1.2e-4,0 -0.003,0.18802 m 1.1e-4,0 -0.026,0.187 m -5e-5,0 -0.049,0.18099 m 0,0 -0.072,0.17399 m 0,0 -0.093,0.164 m 0,0 -0.113,0.15101 m 0,0 -0.13101,0.13601 m 0,0 -0.14701,0.11799 m 0,0 -0.15999,0.098 m 0,0 -0.17199,0.078 m 0,0 -0.18,0.056 m 0,0 -0.185,0.033 m 0,0 -0.18801,0.009 m 0,0 -0.18799,-0.0149 m 124.88374,101.621232 -0.18404,-0.0379 m 0,0 -0.17902,-0.0607 m 0,0 -0.16899,-0.0825 m 0,0 -0.15796,-0.10321 m 0,0 -0.14303,-0.12212 m 0,0 -0.127,-0.13908 m 0,0 -0.10898,-0.15392 m 0,0 -0.088,-0.16632 m 0,0 -0.067,-0.17608 m 0,0 -0.044,-0.18307 m 0,0 -0.0209,-0.1872 m -8e-5,0 0.003,-0.18842 m 0,0 0.0271,-0.18652 m -1.1e-4,0 0.049,-0.18178 m 0,0 0.072,-0.17413 m 0,0 0.093,-0.1638 m 0,0 0.113,-0.15087 m 0,0 0.12999,-0.1355 m 0,0 0.14698,-0.11802 m 0,0 0.161,-0.0987 m 0,0 0.171,-0.0778 m 0,0 0.18002,-0.0557 m 0,0 0.186,-0.0327 m 0,0 0.18799,-0.009 m 0,1.4e-4 0.18801,0.0144 m 0,0 0.18402,0.0379 m 0,0 0.17796,0.0607 m 0,0 0.17005,0.0826 m 0,0 0.15697,0.1031 m 0,0 0.14402,0.12211 m 0,0 0.127,0.13908 m 0,0 0.10797,0.15393 m 0,0 0.089,0.1664 m 0,0 0.067,0.17599 m 0,0 0.044,0.18311 m 0,0 0.0209,0.18716 m 1.4e-4,0 -0.003,0.18842 m 1.3e-4,0 -0.0259,0.18652 m -6e-5,0 -0.049,0.18178 m 0,0 -0.072,0.17421 m 0,0 -0.093,0.16372 m 0,0 -0.113,0.15087 m 0,0 -0.131,0.1355 m 0,0 -0.14599,0.11803 m 0,0 -0.16103,0.0987 m 0,0 -0.171,0.0779 m 0,0 -0.17999,0.0557 m 0,0 -0.18603,0.0327 m 0,0 -0.18796,0.009 m 0,-1.1e-4 -0.18799,-0.0144 m -118.75304,25.04384 -0.18401,-0.0379 m 0,0 -0.17899,-0.0607 m 0,0 -0.16899,-0.0826 m 0,0 -0.15802,-0.10313 m 0,0 -0.143,-0.12211 m 0,0 -0.127,-0.13908 m 0,0 -0.10899,-0.15395 m 0,0 -0.088,-0.16632 m 0,0 -0.067,-0.17608 m 0,0 -0.044,-0.18307 m 0,0 -0.0209,-0.1872 m -1.1e-4,0 0.003,-0.18836 m -7.9e-4,0 0.0259,-0.18652 m 3e-5,0 0.05,-0.18178 m 0,0 0.072,-0.17418 m 0,0 0.093,-0.16381 m 0,0 0.113,-0.15079 m 0,0 0.12999,-0.13549 m 0,0 0.14701,-0.11806 m 0,0 0.16101,-0.0987 m 0,0 0.171,-0.0778 m 0,0 0.18,-0.0557 m 0,0 0.18598,-0.0327 m 0,0 0.18802,-0.009 m 0,1.4e-4 0.18799,0.0144 m 0,5e-5 0.18401,0.0379 m 0,0 0.17799,0.0607 m 0,0 0.17001,0.0826 m 0,0 0.15697,0.10312 m 0,0 0.14402,0.12209 m 0,0 0.127,0.13908 m 0,0 0.10801,0.15398 m 0,0 0.089,0.16632 m 0,0 0.067,0.17607 m 0,0 0.044,0.18308 m 0,0 0.0209,0.18717 m 1.2e-4,0 -0.003,0.18836 m 1.2e-4,0 -0.026,0.18657 m -3e-5,0 -0.049,0.18175 m 0,0 -0.072,0.17416 m 0,0 -0.093,0.16381 m 0,0 -0.113,0.15084 m 0,0 -0.13101,0.13553 m 0,0 -0.14599,0.11802 m 0,0 -0.16101,0.0987 m 0,0 -0.171,0.0778 m 0,0 -0.18,0.0557 m 0,0 -0.18598,0.0327 m 0,0 -0.18799,0.009 m 0,-1.4e-4 -0.18802,-0.0144" />
    <path
       sodipodi:type="star"
       style="fill:none;stroke:#000000;stroke-width:0.119;stroke-linecap:round;stroke-miterlimit:4;stroke-dasharray:none"
       id="path6594"
       sodipodi:sides="6"
       sodipodi:cx="46.524048"
       sodipodi:cy="212.29334"
       sodipodi:r1="3.1411169"
       sodipodi:r2="2.7202871"
       sodipodi:arg1="-0.52359878"
       sodipodi:arg2="0"
       inkscape:flatsided="true"
       inkscape:rounded="0"
       inkscape:randomized="0"
       d="m 49.244335,210.72278 0,3.14111 -2.720287,1.57056 -2.720287,-1.57056 0,-3.14111 2.720287,-1.57056 z"
       inkscape:transform-center-y="4.6278555e-06" />
    <rect
       style="fill:none;stroke:#000000;stroke-width:0.119;stroke-linecap:round;stroke-miterlimit:4;stroke-dasharray:none"
       id="rect6596"
       width="20.852587"
       height="19.801195"
       x="36.097755"
       y="202.39275" />
  </g>
</svg>
