<?xml version="1.0" encoding="UTF-8" standalone="no"?>
<svg
   xmlns:dc="http://purl.org/dc/elements/1.1/"
   xmlns:cc="http://creativecommons.org/ns#"
   xmlns:rdf="http://www.w3.org/1999/02/22-rdf-syntax-ns#"
   xmlns:svg="http://www.w3.org/2000/svg"
   xmlns="http://www.w3.org/2000/svg"
   xmlns:sodipodi="http://sodipodi.sourceforge.net/DTD/sodipodi-0.dtd"
   xmlns:inkscape="http://www.inkscape.org/namespaces/inkscape"
   width="210mm"
   height="297mm"
   viewBox="0 0 210 297"
   version="1.1"
   id="svg6025"
   sodipodi:docname="bottom_half.svg"
   inkscape:version="1.0.1 (3bc2e813f5, 2020-09-07)">
  <defs
     id="defs6019" />
  <sodipodi:namedview
     id="base"
     pagecolor="#ffffff"
     bordercolor="#666666"
     borderopacity="1.0"
     inkscape:pageopacity="0.0"
     inkscape:pageshadow="2"
     inkscape:zoom="0.5857334"
     inkscape:cx="70.150151"
     inkscape:cy="573.00309"
     inkscape:document-units="mm"
     inkscape:current-layer="layer1"
     inkscape:document-rotation="0"
     showgrid="false"
     inkscape:window-width="1500"
     inkscape:window-height="938"
     inkscape:window-x="-6"
     inkscape:window-y="-6"
     inkscape:window-maximized="1" />
  <metadata
     id="metadata6022">
    <rdf:RDF>
      <cc:Work
         rdf:about="">
        <dc:format>image/svg+xml</dc:format>
        <dc:type
           rdf:resource="http://purl.org/dc/dcmitype/StillImage" />
        <dc:title></dc:title>
      </cc:Work>
    </rdf:RDF>
  </metadata>
  <g
     inkscape:label="Layer 1"
     inkscape:groupmode="layer"
     id="layer1">
    <path
       id="path841"
       style="fill:none;stroke:#000000;stroke-width:0.264583px;stroke-linecap:butt;stroke-linejoin:miter;stroke-opacity:1"
       d="M 167.82142,58.995343 V 195.35536 M 167.9657,58.901587 H 34.856259 M 136.04524,195.44912 h 31.80228 M 29.031239,63.85958 l -17.732,100.56259 m 0.032,2.24841 0.19702,0.72709 m 1.11099,1.95512 0.52299,0.54201 m 19.492,-110.540218 -0.67798,0.330003 m 0,0 -0.63,0.413004 M 15.797249,171.29589 134.55025,195.28148 M 34.856249,58.901587 l -0.75099,0.058 m 0,0 -0.73801,0.152005 m 0,0 -0.71301,0.242993 m -1.30798,0.743007 -0.57402,0.48799 m 0,0 -0.508,0.556006 m 0,0 -0.434,0.616005 m 0,0 -0.35399,0.66497 m 0,0 -0.268,0.70502 m 0,0 -0.17701,0.732 m -17.73201,100.562587 -0.084,0.74879 m 0,0 0.011,0.75345 m 0,0 0.10499,0.74617 m 0.19702,0.72709 0.28699,0.69664 m 0,0 0.37298,0.65517 m 0,0 0.45102,0.60331 m 0.52299,0.54201 0.58801,0.47218 m 0,0 0.64098,0.39483 m 0,0 0.68603,0.31126 m 119.472991,24.20841 0.74199,0.13083 m 0,0 0.75299,0.0368 m -120.967741,-24.37604 0.71997,0.22282 m 18.97589,-104.90331 -0.18601,-0.033 m 0,0 -0.18,-0.056 m 0,0 -0.171,-0.078 m 0,0 -0.16098,-0.098 m 0,0 -0.14602,-0.118 m 0,0 -0.13098,-0.136 m 0,0 -0.113,-0.15099 m 0,0 -0.093,-0.164 m 0,0 -0.072,-0.17402 m 0,0 -0.049,-0.18099 m 0,0 -0.0271,-0.187 m 9e-5,0 -0.003,-0.18801 m 7.9e-4,0 0.0209,-0.18799 m 1.4e-4,0 0.044,-0.183 m 0,0 0.067,-0.17599 m 0,0 0.088,-0.166 m 0,0 0.109,-0.15401 m 0,0 0.127,-0.139 m 0,0 0.143,-0.122 m 0,0 0.15799,-0.10301 m 0,0 0.16902,-0.083 m 0,0 0.17898,-0.061 m 0,0 0.18401,-0.037 m 0,0 0.18799,-0.015 m 0,0 0.18802,0.009 m 0,0 0.18598,0.033 m 0,0 0.18,0.056 m 0,0 0.171,0.077 m 0,0 0.16098,0.099 m 0,0 0.14602,0.118 m 0,0 0.13098,0.136 m 0,0 0.113,0.15099 m 0,0 0.093,0.16301 m 0,0 0.072,0.17501 m 0,0 0.049,0.18099 m 0,0 0.0271,0.187 m -8e-5,0 0.003,0.18798 m -8e-4,0 -0.0209,0.187 m -1.1e-4,0 -0.044,0.18303 m 0,0 -0.067,0.17698 m 0,0 -0.088,0.166 m 0,0 -0.10899,0.15401 m 0,0 -0.127,0.13899 m 0,0 -0.14301,0.12201 m 0,0 -0.15798,0.10298 m 0,0 -0.16903,0.083 m 0,0 -0.17898,0.06 m 0,0 -0.18398,0.038 m 0,0 -0.18802,0.015 m 0,-3e-5 -0.18799,-0.009 m 107.151741,-1.05834 -0.185,-0.033 m 0,0 -0.18,-0.056 m 0,0 -0.17202,-0.078 m 0,0 -0.15999,-0.098 m 0,0 -0.14701,-0.118 m 0,0 -0.13098,-0.136 m 0,0 -0.113,-0.15099 m 0,0 -0.093,-0.164 m 0,0 -0.072,-0.17399 m 0,0 -0.049,-0.18102 m 0,0 -0.0259,-0.187 m -3e-5,0 -0.003,-0.18799 m 1.1e-4,0 0.0209,-0.18801 m 1.1e-4,0 0.044,-0.183 m 0,0 0.067,-0.17599 m 0,0 0.089,-0.166 m 0,0 0.108,-0.15401 m 0,0 0.127,-0.139 m 0,0 0.14399,-0.122 m 0,0 0.157,-0.10298 m 0,0 0.17001,-0.083 m 0,0 0.178,-0.061 m 0,0 0.185,-0.038 m 0,0 0.187,-0.0141 m 0,0 0.189,0.009 m 0,0 0.185,0.033 m 0,0 0.18,0.056 m 0,0 0.17201,0.077 m 0,0 0.16,0.099 m 0,0 0.147,0.118 m 0,0 0.13098,0.136 m 0,0 0.11301,0.15102 m 0,0 0.093,0.16298 m 0,0 0.071,0.17501 m 0,0 0.05,0.18101 m 0,0 0.0259,0.18697 m 3e-5,0 0.003,0.18802 m -1.2e-4,0 -0.0209,0.187 m -1.1e-4,0 -0.045,0.18299 m 0,0 -0.067,0.17701 m 0,0 -0.088,0.16601 m 0,0 -0.10899,0.15398 m 0,0 -0.127,0.13902 m 0,0 -0.143,0.12198 m 0,0 -0.15802,0.10301 m 0,0 -0.169,0.083 m 0,0 -0.17799,0.06 m 0,0 -0.185,0.038 m 0,0 -0.18802,0.0149 m 0,-2e-5 -0.18798,-0.009 m -124.883841,101.62055 -0.18601,-0.0327 m 0,0 -0.18,-0.0557 m 0,0 -0.171,-0.0779 m 0,0 -0.161,-0.0987 m 0,0 -0.146,-0.11802 m 0,0 -0.13101,-0.1355 m 0,0 -0.11297,-0.15088 m 0,0 -0.093,-0.16368 m 0,0 -0.072,-0.17425 m 0,0 -0.049,-0.18178 m 0,0 -0.026,-0.18652 m -3e-5,0 -0.003,-0.18838 m 8e-5,0 0.0209,-0.1872 m 1.1e-4,0 0.044,-0.18308 m 0,0 0.067,-0.17602 m 0,0 0.089,-0.16637 m 0,0 0.10801,-0.15395 m 0,0 0.127,-0.13905 m 0,0 0.14399,-0.12215 m 0,0 0.157,-0.10306 m 0,0 0.17001,-0.0826 m 0,0 0.178,-0.0607 m 0,0 0.184,-0.0379 m 0,0 0.18799,-0.0144 m 0,0 0.18799,0.009 m 0,-1.4e-4 0.18601,0.0327 m 0,0 0.18001,0.0557 m 0,0 0.17099,0.0778 m 0,0 0.16101,0.0987 m 0,0 0.14698,0.118 m 0,0 0.13002,0.13549 m 0,0 0.113,0.15091 m 0,0 0.093,0.1638 m 0,0 0.072,0.17413 m 0,0 0.049,0.18175 m 0,0 0.0271,0.18655 m -9e-5,0 0.003,0.18838 m -8.4e-4,0 -0.0209,0.18717 m -1.1e-4,0 -0.044,0.18311 m 0,0 -0.067,0.17611 m 0,0 -0.088,0.16631 m 0,0 -0.109,0.15392 m 0,0 -0.127,0.13905 m 0,0 -0.143,0.12215 m 0,0 -0.15799,0.10315 m 0,0 -0.16899,0.0825 m 0,0 -0.17902,0.0607 m 0,0 -0.18398,0.0379 m 0,0 -0.18801,0.0144 m 0,1.4e-4 -0.18799,-0.009 m 118.753001,25.04404 -0.18602,-0.0327 m 0,0 -0.18,-0.0557 m 0,0 -0.171,-0.0779 m 0,0 -0.161,-0.0987 m 0,0 -0.146,-0.11806 m 0,0 -0.13101,-0.13552 m 0,0 -0.113,-0.15082 m 0,0 -0.093,-0.1638 m 0,0 -0.072,-0.17416 m 0,0 -0.049,-0.18178 m 0,0 -0.0259,-0.18655 m -3e-5,0 -0.003,-0.18835 m 9e-5,0 0.0209,-0.1872 m 1.2e-4,0 0.044,-0.18305 m 0,0 0.067,-0.17608 m 0,0 0.089,-0.16631 m 0,0 0.108,-0.15398 m 0,0 0.127,-0.13908 m 0,0 0.14399,-0.12209 m 0,0 0.157,-0.10313 m 0,0 0.17001,-0.0826 m 0,0 0.178,-0.0607 m 0,0 0.18398,-0.0378 m 0,0 0.18802,-0.0144 m 0,-3e-5 0.18799,0.009 m 0,-1.4e-4 0.18601,0.0327 m 0,0 0.18,0.0557 m 0,0 0.171,0.0778 m 0,0 0.16101,0.0987 m 0,0 0.14698,0.11802 m 0,0 0.12999,0.1355 m 0,0 0.113,0.15082 m 0,0 0.093,0.1638 m 0,0 0.072,0.17419 m 0,0 0.05,0.18175 m 0,0 0.0259,0.18655 m 6e-5,0 0.003,0.18835 m -7.9e-4,0 -0.0209,0.1872 m -1.1e-4,0 -0.044,0.18308 m 0,0 -0.067,0.17607 m -2e-5,0 -0.088,0.16632 m 0,0 -0.109,0.15395 m 0,0 -0.127,0.13908 m 0,0 -0.143,0.12212 m 0,0 -0.15799,0.10312 m 0,0 -0.16899,0.0826 m 0,0 -0.17901,0.0607 m 0,0 -0.18401,0.0379 m 0,0 -0.18799,0.0144 m 0,6e-5 -0.18799,-0.009" />
  </g>
</svg>
