<?xml version="1.0" encoding="UTF-8" standalone="no"?>
<!-- Created with Inkscape (http://www.inkscape.org/) -->

<svg
   xmlns:dc="http://purl.org/dc/elements/1.1/"
   xmlns:cc="http://creativecommons.org/ns#"
   xmlns:rdf="http://www.w3.org/1999/02/22-rdf-syntax-ns#"
   xmlns:svg="http://www.w3.org/2000/svg"
   xmlns="http://www.w3.org/2000/svg"
   xmlns:sodipodi="http://sodipodi.sourceforge.net/DTD/sodipodi-0.dtd"
   xmlns:inkscape="http://www.inkscape.org/namespaces/inkscape"
   width="210mm"
   height="297mm"
   viewBox="0 0 210 297"
   version="1.1"
   id="svg3139"
   inkscape:version="0.92.4 (5da689c313, 2019-01-14)"
   sodipodi:docname="middle.svg">
  <defs
     id="defs3133" />
  <sodipodi:namedview
     id="base"
     pagecolor="#ffffff"
     bordercolor="#666666"
     borderopacity="1.0"
     inkscape:pageopacity="0.0"
     inkscape:pageshadow="2"
     inkscape:zoom="0.35"
     inkscape:cx="-64.285714"
     inkscape:cy="560"
     inkscape:document-units="mm"
     inkscape:current-layer="layer1"
     showgrid="false"
     inkscape:window-width="1920"
     inkscape:window-height="1017"
     inkscape:window-x="1672"
     inkscape:window-y="-8"
     inkscape:window-maximized="1" />
  <metadata
     id="metadata3136">
    <rdf:RDF>
      <cc:Work
         rdf:about="">
        <dc:format>image/svg+xml</dc:format>
        <dc:type
           rdf:resource="http://purl.org/dc/dcmitype/StillImage" />
        <dc:title></dc:title>
      </cc:Work>
    </rdf:RDF>
  </metadata>
  <g
     inkscape:label="Layer 1"
     inkscape:groupmode="layer"
     id="layer1">
    <path
       id="path16445"
       style="fill:none;stroke:#ff00ff;stroke-width:0.25508738;stroke-opacity:1"
       d="m -203.65574,54.195827 0.18799,-0.015 m -0.376,0.006 0.18801,0.009 m -0.37301,-0.0421 0.185,0.033 m -0.365,-0.089 0.18,0.056 m -0.35199,-0.13399 0.17199,0.078 m -0.33198,-0.17599 0.15999,0.098 m -0.307,-0.21601 0.14701,0.118 m -0.278,-0.254 0.13099,0.136 m -0.24401,-0.28702 0.11302,0.15102 m -0.206,-0.31502 0.093,0.164 m -0.16498,-0.33799 0.072,0.17399 m -0.12099,-0.35498 0.049,0.18099 m -0.075,-0.36799 0.026,0.187 m -0.029,-0.37499 0.003,0.18799 m 0.0179,-0.376 -0.0209,0.18801 m 0.0649,-0.37098 -0.044,0.18297 m 0.111,-0.35902 -0.067,0.17605 m 0.15601,-0.34202 -0.089,0.16597 m 0.19699,-0.31998 -0.10798,0.15401 m 0.23498,-0.29298 -0.127,0.13897 m 0.27102,-0.261 -0.14402,0.12203 m 0.30102,-0.22504 -0.157,0.10301 m 0.32698,-0.18601 -0.16998,0.083 m 0.348,-0.14399 -0.17802,0.061 m 0.36303,-0.099 -0.18501,0.038 m 0.37199,-0.052 -0.18698,0.0141 m 0.37599,-0.005 -0.18901,-0.009 m 0.37401,0.042 -0.185,-0.033 m 0.36501,0.089 -0.18001,-0.056 m 0.35199,0.13295 -0.17198,-0.077 m 0.33197,0.176 -0.15999,-0.099 m 0.307,0.217 -0.14701,-0.11796 m 0.27802,0.254 -0.13101,-0.13604 m 0.24401,0.287 -0.113,-0.15096 m 0.20599,0.314 -0.093,-0.16304 m 0.164,0.33801 -0.071,-0.17497 m 0.12098,0.35596 -0.05,-0.18099 m 0.076,0.36799 -0.026,-0.187 m 0.029,0.37505 -0.003,-0.18805 m -0.0179,0.37505 0.0209,-0.187 m -0.0659,0.36996 0.045,-0.18296 m -0.11202,0.35997 0.067,-0.17701 m -0.15499,0.34302 0.088,-0.16601 m -0.19699,0.32001 0.109,-0.154 m -0.236,0.293 0.127,-0.139 m -0.27,0.26098 0.143,-0.12198 m -0.30099,0.22501 0.15799,-0.10303 m -0.32701,0.18604 0.16902,-0.083 m -0.34701,0.14301 0.17799,-0.06 m -0.36299,0.098 0.185,-0.038 m -107.52464,1.1113 0.18802,-0.015 m -0.37601,0.006 0.18799,0.009 m -0.37403,-0.0421 0.18604,0.033 m -0.36601,-0.089 0.17997,0.056 m -0.351,-0.134 0.17103,0.078 m -0.33198,-0.176 0.16095,0.098 m -0.30697,-0.21601 0.14602,0.11802 m -0.277,-0.254 0.13098,0.13598 m -0.24398,-0.28702 0.113,0.15104 m -0.20602,-0.31504 0.093,0.164 m -0.16502,-0.33799 0.072,0.17399 m -0.12099,-0.35495 0.049,0.18096 m -0.076,-0.36799 0.0271,0.18703 m -0.0291,-0.37502 0.003,0.18799 m 0.0182,-0.37598 -0.0209,0.18799 m 0.0649,-0.37098 -0.044,0.18299 m 0.111,-0.35904 -0.067,0.17605 m 0.155,-0.342 -0.088,0.16595 m 0.19704,-0.31996 -0.10902,0.15401 m 0.23602,-0.293 -0.127,0.13899 m 0.27,-0.261 -0.143,0.12201 m 0.30099,-0.22502 -0.15799,0.10301 m 0.32699,-0.18601 -0.169,0.083 m 0.34801,-0.14399 -0.17901,0.061 m 0.36302,-0.098 -0.18401,0.037 m 0.372,-0.052 -0.18799,0.0149 m 0.37598,-0.006 -0.18799,-0.009 m 0.374,0.0421 -0.18601,-0.033 m 0.36598,0.089 -0.17997,-0.056 m 0.35097,0.13299 -0.171,-0.077 m 0.33204,0.17599 -0.16104,-0.099 m 0.307,0.217 -0.14596,-0.118 m 0.277,0.254 -0.13104,-0.136 m 0.24408,0.28699 -0.113,-0.15096 m 0.20597,0.314 -0.093,-0.16304 m 0.16498,0.33802 -0.072,-0.17498 m 0.121,0.35597 -0.049,-0.18099 m 0.076,0.36799 -0.0271,-0.187 m 0.0291,0.37502 -0.003,-0.18802 m -0.0182,0.37502 0.0209,-0.187 m -0.0649,0.36999 0.044,-0.18299 m -0.11099,0.36 0.067,-0.17701 m -0.15497,0.34301 0.088,-0.166 m -0.19702,0.31999 0.10903,-0.15399 m -0.23603,0.29298 0.127,-0.13899 m -0.27004,0.26099 0.143,-0.122 m -0.30099,0.22504 0.15799,-0.10304 m -0.32702,0.18602 0.16903,-0.083 m -0.34801,0.14298 0.17898,-0.06 m -0.36296,0.098 0.18398,-0.038 m 158.19651,-1.00536 0.18798,-0.009 m -0.376,-0.006 0.18802,0.0149 m -0.37302,-0.0529 0.185,0.038 m -0.36299,-0.098 0.17799,0.06 m -0.34699,-0.14301 0.169,0.083 m -0.32701,-0.18602 0.15801,0.10301 m -0.30101,-0.22504 0.143,0.12203 m -0.27,-0.261 0.127,0.13897 m -0.236,-0.29297 0.109,0.154 m -0.197,-0.32001 0.088,0.16601 m -0.15499,-0.34302 0.067,0.17701 m -0.11198,-0.35997 0.045,0.18296 m -0.066,-0.36996 0.0209,0.187 m -0.0179,-0.37505 -0.003,0.18805 m 0.0291,-0.37505 -0.0259,0.187 m 0.076,-0.36799 -0.05,0.18099 m 0.12102,-0.35596 -0.071,0.17497 m 0.164,-0.33799 -0.093,0.16302 m 0.20599,-0.31401 -0.113,0.15099 m 0.24398,-0.28702 -0.13098,0.13603 m 0.27799,-0.254 -0.14701,0.11797 m 0.307,-0.217 -0.15999,0.099 m 0.33201,-0.176 -0.17202,0.077 m 0.35202,-0.13295 -0.18,0.056 m 0.365,-0.089 -0.185,0.033 m 0.374,-0.042 -0.189,0.009 m 0.376,0.005 -0.187,-0.0141 m 0.372,0.0521 -0.185,-0.038 m 0.36299,0.099 -0.17799,-0.061 m 0.348,0.14399 -0.17001,-0.083 m 0.32701,0.18601 -0.157,-0.10301 m 0.30099,0.22502 -0.14399,-0.12201 m 0.27099,0.261 -0.127,-0.13899 m 0.23501,0.293 -0.10801,-0.15401 m 0.197,0.32002 -0.089,-0.16601 m 0.15598,0.342 -0.067,-0.17599 m 0.11099,0.35898 -0.044,-0.18299 m 0.065,0.37098 -0.0209,-0.18799 m 0.0179,0.37601 0.003,-0.18802 m -0.0291,0.37502 0.026,-0.187 m -0.075,0.36799 0.049,-0.18099 m -0.12099,0.355 0.072,-0.17401 m -0.16501,0.33801 0.093,-0.164 m -0.2061,0.31499 0.11301,-0.15099 m -0.24398,0.287 0.13097,-0.13601 m -0.27798,0.254 0.14701,-0.11799 m -0.30701,0.21598 0.16,-0.098 m -0.33201,0.17597 0.17201,-0.078 m -0.35201,0.134 0.18,-0.056 m -0.365,0.089 0.185,-0.033 m 106.778743,1.10033 0.18801,-0.009 m -0.37605,-0.006 0.18804,0.0149 m -0.37198,-0.053 0.18394,0.038 m -0.36296,-0.098 0.17902,0.06 m -0.34801,-0.143 0.16899,0.083 m -0.327,-0.18601 0.15801,0.10301 m -0.30099,-0.22501 0.14298,0.122 m -0.26998,-0.261 0.127,0.139 m -0.23603,-0.29301 0.10903,0.15401 m -0.19703,-0.31998 0.088,0.16597 m -0.155,-0.34298 0.067,0.17701 m -0.11099,-0.36001 0.044,0.183 m -0.065,-0.37 0.0209,0.187 m -0.019,-0.37501 -0.003,0.18801 m 0.0298,-0.37501 -0.0271,0.187 m 0.0761,-0.36799 -0.049,0.18099 m 0.12099,-0.356 -0.072,0.17501 m 0.16502,-0.33802 -0.093,0.16301 m 0.206,-0.314 -0.11297,0.15099 m 0.24397,-0.28699 -0.131,0.136 m 0.27702,-0.254 -0.14602,0.118 m 0.307,-0.217 -0.16098,0.099 m 0.33198,-0.17599 -0.171,0.077 m 0.35099,-0.13298 -0.17999,0.056 m 0.36599,-0.089 -0.186,0.033 m 0.37402,-0.042 -0.18802,0.009 m 0.376,0.006 -0.18798,-0.015 m 0.37197,0.052 -0.18399,-0.037 m 0.36298,0.098 -0.17899,-0.061 m 0.34801,0.14402 -0.16902,-0.083 m 0.32703,0.18596 -0.15801,-0.10298 m 0.30099,0.22501 -0.14298,-0.12203 m 0.26998,0.261 -0.127,-0.13897 m 0.23601,0.29298 -0.10901,-0.15401 m 0.19701,0.32001 -0.088,-0.166 m 0.15499,0.34202 -0.067,-0.17602 m 0.11099,0.35904 -0.044,-0.18302 m 0.065,0.37101 -0.0209,-0.18799 m 0.019,0.37595 0.003,-0.18796 m -0.0299,0.37499 0.0271,-0.18703 m -0.0761,0.36802 0.049,-0.18099 m -0.12099,0.35498 0.072,-0.17399 m -0.16494,0.33799 0.093,-0.164 m -0.20601,0.31499 0.11303,-0.15099 m -0.24402,0.28699 0.13099,-0.136 m -0.27704,0.254 0.14605,-0.118 m -0.30703,0.21604 0.16098,-0.098 m -0.33198,0.17602 0.171,-0.078 m -0.35099,0.134 0.17999,-0.056 m -0.36597,0.089 0.18598,-0.033 m -271.579203,-3.937 0.35399,-0.665 m -0.62198,1.37002 0.26799,-0.70502 m -0.445,1.43702 0.17701,-0.732 m 4.89691,-4.168 0.75099,-0.058 m -1.48903,0.21 0.73804,-0.15201 m -1.45102,0.395 0.71298,-0.24299 m -1.39097,0.57299 0.67798,-0.33 m -1.30801,0.74301 0.63003,-0.41301 m -1.20401,0.901 0.57398,-0.48799 m -1.08198,1.04399 0.508,-0.556 m -1.741,3.274 -15.49006,87.847993 6.87093,0.85872 15.55299,-79.836773 m 270.469503,-9.60197 0.17701,0.732 m -0.445,-1.43699 0.26799,0.70499 m -0.62198,-1.36999 0.35399,0.665 m -0.78796,-1.281 0.43397,0.616 m -0.94197,-1.17201 0.508,0.55601 m -1.08204,-1.044 0.57404,0.48799 m -2.59503,-1.47399 0.713,0.24299 m -1.45098,-0.39499 0.73798,0.152 m -1.48897,-0.21 0.75099,0.058 m -271.707323,2.798 0.43403,-0.61598 m 273.402293,-1.45702 0.62997,0.413 m -1.30799,-0.74301 0.67802,0.33001 m 2.945,4.17499 2.63683,14.95414 -8.04508,1.74653 -1.52545,-7.8307 M -310.91239,47.754297 h 265.930293 m -264.398783,12.59225 0.33632,-0.57184 m -0.59092,1.17808 0.2546,-0.60624 m -0.42277,1.23568 0.16817,-0.62944 m 4.65238,-3.5841 0.71349,-0.0499 m -1.41464,0.18056 0.70115,-0.13069 m -1.37854,0.33965 0.67739,-0.20896 m -1.32151,0.49274 0.64412,-0.28378 m -1.24263,0.63892 0.59851,-0.35514 m -1.14385,0.77478 0.54534,-0.41964 m -1.02796,0.89775 0.48262,-0.47811 m 261.890583,2.18587 0.16814,0.62947 m -0.42273,-1.23571 0.25459,0.60624 m -0.59092,-1.17808 0.33633,0.57184 m -0.74866,-1.10154 0.41233,0.5297 m -0.89496,-1.00782 0.48263,0.47812 m -1.02796,-0.89773 0.54533,0.41961 m -2.4653,-1.26749 0.67738,0.20896 m -1.37858,-0.33965 0.7012,0.13069 m -1.41465,-0.18059 0.71345,0.0499 m -258.133183,2.40603 0.41233,-0.52971 m 259.743513,-1.25289 0.59851,0.35514 m -1.24259,-0.63892 0.64408,0.28378 m -255.380923,-0.67327 h 252.644813"
       inkscape:connector-curvature="0"
       sodipodi:nodetypes="cccccccccccccccccccccccccccccccccccccccccccccccccccccccccccccccccccccccccccccccccccccccccccccccccccccccccccccccccccccccccccccccccccccccccccccccccccccccccccccccccccccccccccccccccccccccccccccccccccccccccccccccccccccccccccccccccccccccccccccccccccccccccccccccccccccccccccccccccccccccccccccccccccccccccccccccccccccccccccccccccccccccccccccccccccccccccccccccccccccccccccccccccccccccccccccccccccccccccccccccccccccccccccccccccccccccccccccccccccccccccccccccccccccccccccccccccccccccccccccccccccccccccccccccccccc" />
    <path
       id="path4291-6-6"
       style="fill:none;stroke:#ff00ff;stroke-width:0.25508738;stroke-opacity:1"
       d="m -120.60144,64.121607 -0.18801,0.0144 m 0.376,-0.005 -0.18799,-0.009 m 0.37398,0.042 -0.18599,-0.0327 m 0.36599,0.0884 -0.18,-0.0557 m 0.351,0.13352 -0.171,-0.0778 m 0.33199,0.17653 -0.16099,-0.0987 m 0.307,0.21672 -0.14601,-0.11802 m 0.27701,0.25355 -0.131,-0.13553 m 0.24401,0.28637 -0.11301,-0.15084 m 0.206,0.31465 -0.093,-0.16381 m 0.16501,0.33794 -0.072,-0.17413 m 0.12102,0.35591 -0.049,-0.18178 m 0.075,0.36832 -0.026,-0.18654 m 0.029,0.3749 -0.003,-0.18836 m -0.0179,0.37556 0.0209,-0.1872 m -0.0649,0.37028 0.044,-0.18308 m -0.111,0.35915 0.067,-0.17607 m -0.15598,0.34239 0.089,-0.16632 m -0.19699,0.32027 0.10801,-0.15395 m -0.23501,0.29306 0.127,-0.13911 m -0.27102,0.26117 0.14402,-0.12206 m -0.30099,0.22521 0.15697,-0.10315 m -0.32698,0.18573 0.17001,-0.0826 m -0.34801,0.14325 0.178,-0.0607 m -0.36201,0.0986 0.18401,-0.0379 m -0.372,0.0523 0.18799,-0.0144 m -0.376,0.005 0.18801,0.009 m -0.374,-0.042 0.18599,0.0327 m -0.36599,-0.0884 0.18,0.0557 m -0.351,-0.13351 0.171,0.0778 m -0.332,-0.17653 0.161,0.0987 m -0.30801,-0.21675 0.14701,0.11802 m -0.277,-0.25352 0.12999,0.1355 m -0.243,-0.28632 0.11301,0.15082 m -0.206,-0.31462 0.093,0.1638 m -0.16498,-0.33796 0.072,0.17416 m -0.122,-0.35594 0.05,0.18178 m -0.076,-0.3683 0.026,0.18652 m -0.0279,-0.37487 0.003,0.18835 m 0.0182,-0.37555 -0.0209,0.1872 m 0.0649,-0.37031 -0.044,0.18311 m 0.11099,-0.35918 -0.067,0.17607 m 0.155,-0.34239 -0.088,0.16632 m 0.19699,-0.32024 -0.10899,0.15392 m 0.23599,-0.29303 -0.127,0.13911 m 0.27001,-0.2612 -0.14301,0.12209 m 0.30102,-0.22524 -0.15801,0.10315 m 0.32701,-0.18573 -0.169,0.0826 m 0.34798,-0.14328 -0.17898,0.0607 m 0.36299,-0.0986 -0.18401,0.0379 m 119.1250429,24.99159 -0.18799,0.0144 m 0.37595,-0.005 -0.18796,-0.009 m 0.37396,0.042 -0.186,-0.0327 m 0.36602,0.0884 -0.18002,-0.0557 m 0.35102,0.13361 -0.171,-0.0779 m 0.33202996,0.17658 -0.16102996,-0.0987 m 0.30704996,0.21672 -0.14602,-0.11802 m 0.27697,0.25352 -0.13095,-0.1355 m 0.24395,0.28637 -0.113,-0.15087 m 0.20603,0.31459 -0.093,-0.16372 m 0.16502,0.33791 -0.072,-0.17419 m 0.12099,0.35599 -0.0489,-0.1818 m 0.075,0.3683 -0.0259,-0.1865 m 0.029,0.37491 -0.003,-0.18841 m -0.018,0.37558 0.0209,-0.18717 m -0.0649,0.3703 0.044,-0.18313 m -0.111,0.35913 0.067,-0.176 m -0.15598,0.3424 0.089,-0.1664 m -0.19695,0.32029 0.10795,-0.15389 m -0.23495,0.293 0.127,-0.13911 m -0.27099,0.2612 0.14399,-0.12209 m -0.30098996,0.22521 0.15699996,-0.10312 m -0.32707996,0.1857 0.17008,-0.0826 m -0.34801,0.14328 0.17793,-0.0607 m -0.362,0.0986 0.18407,-0.0379 m -0.37203,0.0523 0.18796,-0.0144 m -0.37597,0.005 0.18801,0.009 m -0.37399,-0.042 0.18598,0.0327 m -0.36603,-0.0884 0.18005,0.0557 m -0.35105,-0.13351 0.171,0.0778 m -0.332,-0.17651 0.161,0.0987 m -0.30797,-0.21669 0.14697,0.118 m -0.27696,-0.2535 0.12999,0.1355 m -0.24297,-0.2864 0.11298,0.1509 m -0.20606,-0.3147 0.093,0.1638 m -0.16502,-0.3379 0.072,0.1741 m -0.12099,-0.35591 0.049,0.18181 m -0.076,-0.3683 0.0271,0.18649 m -0.0291,-0.3749 0.003,0.18841 m 0.018,-0.37561 -0.0209,0.1872 m 0.0649,-0.37031 -0.044,0.18311 m 0.11102,-0.35919 -0.067,0.17608 m 0.15507,-0.34239 -0.088,0.16631 m 0.19701,-0.32021 -0.10898,0.1539 m 0.23598,-0.293 -0.127,0.1391 m 0.27001,-0.26119 -0.14301,0.12209 m 0.30099,-0.2253 -0.15798,0.10321 m 0.32694,-0.1857 -0.16896,0.0825 m 0.34801,-0.1432 -0.17905,0.0607 m 0.36307,-0.0986 -0.18402,0.0379 m -182.0592629,-25.0963 -0.18799,0.009 m 0.37598,0.005 -0.18799,-0.0144 m 0.372,0.0523 -0.18401,-0.0379 m 0.36302,0.0986 -0.17901,-0.0607 m 0.348,0.14328 -0.16899,-0.0826 m 0.32698,0.18573 -0.15799,-0.10315 m 0.30099,0.22524 -0.143,-0.12209 m 0.27,0.2612 -0.127,-0.13911 m 0.236,0.29303 -0.109,-0.15392 m 0.197,0.32024 -0.088,-0.16632 m 0.15502,0.34239 -0.067,-0.17607 m 0.111,0.35918 -0.044,-0.18311 m 0.065,0.37031 -0.0209,-0.1872 m 0.0189,0.37555 0.003,-0.18835 m -0.0288,0.37487 0.0259,-0.18652 m -0.0759,0.3683 0.05,-0.18178 m -0.12197,0.35594 0.072,-0.17416 m -0.16502,0.33796 0.093,-0.1638 m -0.20603,0.31462 0.113,-0.15082 m -0.24299,0.28632 0.12999,-0.1355 m -0.27697,0.25352 0.14698,-0.11802 m -0.30799,0.21674 0.16101,-0.0987 m -0.33201,0.17653 0.171,-0.0778 m -0.351,0.13352 0.18,-0.0557 m -0.36601,0.0884 0.18601,-0.0327 m -0.374,0.0419 0.18799,-0.009 m -0.376,-0.005 0.18801,0.0144 m -0.372,-0.0523 0.18399,0.0379 m -0.36198,-0.0986 0.17799,0.0607 m -0.348,-0.14328 0.17001,0.0826 m -0.32702,-0.18573 0.15701,0.10315 m -0.30099,-0.22521 0.14398,0.12206 m -0.27098,-0.26117 0.127,0.13911 m -0.23501,-0.29306 0.10801,0.15395 m -0.19702,-0.32026 0.089,0.16631 m -0.15601,-0.34239 0.067,0.17608 m -0.111,-0.35916 0.044,0.18308 m -0.065,-0.37028 0.0209,0.1872 m -0.0179,-0.37555 -0.003,0.18835 m 0.0291,-0.3749 -0.026,0.18655 m 0.075,-0.36833 -0.049,0.18178 m 0.12098,-0.35591 -0.072,0.17413 m 0.16499,-0.33794 -0.093,0.16381 m 0.206,-0.31465 -0.113,0.15084 m 0.24401,-0.28637 -0.13101,0.13553 m 0.277,-0.25355 -0.14599,0.11802 m 0.307,-0.21671 -0.16101,0.0987 m 0.33201,-0.17653 -0.171,0.0778 m 0.351,-0.13352 -0.18,0.0557 m 0.36601,-0.0884 -0.18601,0.0327 m -118.38003,25.00201 -0.18798,0.009 m 0.376,0.005 -0.18802,-0.0144 m 0.372,0.0523 -0.18398,-0.0379 m 0.363,0.0986 -0.17902,-0.0607 m 0.34801,0.1432 -0.16899,-0.0825 m 0.32698,0.1857 -0.15799,-0.10318 m 0.30099,0.2253 -0.143,-0.12212 m 0.27,0.2612 -0.127,-0.13908 m 0.23599,0.29297 -0.10899,-0.15389 m 0.19702,0.32021 -0.088,-0.16632 m 0.15502,0.34242 -0.067,-0.1761 m 0.111,0.35921 -0.044,-0.18311 m 0.065,0.3703 -0.0209,-0.18719 m 0.0189,0.37558 0.003,-0.18839 m -0.0298,0.37491 0.0271,-0.18652 m -0.0761,0.3683 0.049,-0.18178 m -0.12099,0.35588 0.072,-0.1741 m -0.16498,0.3379 0.093,-0.1638 m -0.206,0.31471 0.113,-0.15091 m -0.24302,0.2864 0.13002,-0.13549 m -0.277,0.25349 0.14698,-0.118 m -0.30799,0.21669 0.16101,-0.0987 m -0.33201,0.1765 0.171,-0.0778 m -0.351,0.13352 0.18,-0.0557 m -0.36601,0.0884 0.18601,-0.0327 m -0.374,0.0419 0.18799,-0.009 m -0.37598,-0.005 0.18799,0.0144 m -0.372,-0.0523 0.18401,0.0379 m -0.362,-0.0986 0.17799,0.0607 m -0.348,-0.14328 0.17001,0.0826 m -0.32701,-0.1857 0.157,0.10309 m -0.30099,-0.22521 0.14399,0.12212 m -0.27099,-0.2612 0.127,0.13908 m -0.23501,-0.293 0.10801,0.15392 m -0.19702,-0.32029 0.089,0.16637 m -0.15602,-0.3424 0.067,0.17603 m -0.111,-0.35913 0.044,0.1831 m -0.065,-0.3703 0.0209,0.1872 m -0.0179,-0.37558 -0.003,0.18838 m 0.0291,-0.37488 -0.026,0.1865 m 0.075,-0.3683 -0.049,0.1818 m 0.12099,-0.35602 -0.072,0.17422 m 0.16502,-0.33791 -0.093,0.16369 m 0.20599,-0.31459 -0.11298,0.1509 m 0.2439,-0.28639 -0.13101,0.1355 m 0.277,-0.25349 -0.14599,0.11799 m 0.307,-0.21669 -0.16101,0.0987 m 0.33201,-0.17661 -0.171,0.0779 m 0.351,-0.13358 -0.18,0.0557 m 0.36601,-0.0884 -0.18601,0.0327 m -1.77789,-4.15101 0.71998,-0.22284 m 183.8003,-24.15323 0.753,0.0368 m 0,0 0.74202,0.13084 m 123.2509729,30.85928 -2.24194,12.714623 -6.87089,-0.85872 1.2931,-6.637953 m 4.72764996,-11.55754 0.64098004,0.3948 m -1.32699004,-0.70609 0.68601,0.31129 m -1.40599,-0.5341 0.71998,0.22281 m 3.86197004,5.90209 -0.084,0.74879 m 0.073,-1.50219 0.0111,0.7534 m -0.11602,-1.49959 0.10501,0.74619 m -0.30197,-1.47331 0.19696,0.72712 m -0.48395,-1.4237 0.28699,0.69658 m -0.66,-1.35179 0.37301,0.65521 m -1.34705,-1.80052 0.52306,0.54201 m -1.11104,-1.0142 0.58798,0.47219 M -119.16906,60.847867 -0.41604714,84.833457 M -184.96934,60.717027 l 0.75299,-0.0368 m -1.49498,0.16764 0.74199,-0.13083 m -120.90103,24.65053 0.68603,-0.3113 m -1.32701,0.70612 0.64098,-0.39482 m -1.22899,0.86701 0.58801,-0.47219 m -1.56202,1.61748 0.45102,-0.60331 m -0.824,1.25851 0.37298,-0.6552 m -0.65997,1.35181 0.28699,-0.69661 m -0.589,2.16993 0.10499,-0.74623 m -0.116,1.49962 0.011,-0.75339 m 0.073,1.50218 -0.084,-0.74879 m 311.7883329,-4.18183 0.45098,0.60331 M -304.46431,84.833487 -185.7113,60.847897 m -121.91102,25.92869 0.52298,-0.54198 m -1.831,3.22419 0.19702,-0.72709 m 124.517,-28.05145 h 63.55228 m -176.8893,30.52569 0.68402,-0.19157 m 174.6179,-20.76961 0.71537,0.0316 m 0,0 0.70496,0.11252 m 114.1559029,21.08471 0.60896,0.33949 m -1.26069,-0.60714 0.65173,0.26765 m -1.33578,-0.45926 0.68405,0.19161 m 3.66903,5.07522 -0.0798,0.64392 m 0.0694,-1.29176 0.0103,0.64784 m -0.1102,-1.2895 0.0998,0.64166 m -0.28691,-1.26692 0.18716,0.62526 m -0.45981,-1.22425 0.27265,0.59899 m -0.62704,-1.16242 0.35439,0.56343 m -1.27974,-1.54827 0.49689,0.46606 m -1.05545,-0.87212 0.55856,0.40606 M -120.83154,70.388897 -8.0112571,91.014317 m -175.3332829,-20.73792 0.71538,-0.0317 m -1.4203,0.14416 0.70492,-0.11249 m -114.86099,21.1972 0.65176,-0.26769 m -1.26072,0.6072 0.60896,-0.33951 m -1.16759,0.74554 0.55863,-0.40603 m -1.48398,1.3909 0.42847,-0.51878 m -0.78282,1.08218 0.35435,-0.5634 m -0.62701,1.16242 0.27266,-0.59902 m -0.55957,1.86592 0.0997,-0.64166 m -0.11017,1.28953 0.0104,-0.64787 m 0.0693,1.29176 -0.0798,-0.64389 m 296.2118329,-3.596 0.42844,0.51879 m -292.2872029,-2.18957 112.8203,-20.62545 m -115.82052,22.29635 0.49685,-0.46609 m -1.73953,2.77252 0.18717,-0.62524 m -0.21756,2.55866 15.32062,78.644023 -8.04508,1.74653 -15.09516,-85.608473 m 126.33351,-21.46244 h 60.3773"
       inkscape:connector-curvature="0"
       sodipodi:nodetypes="cccccccccccccccccccccccccccccccccccccccccccccccccccccccccccccccccccccccccccccccccccccccccccccccccccccccccccccccccccccccccccccccccccccccccccccccccccccccccccccccccccccccccccccccccccccccccccccccccccccccccccccccccccccccccccccccccccccccccccccccccccccccccccccccccccccccccccccccccccccccccccccccccccccccccccccccccccccccccccccccccccccccccccccccccccccccccccccccccccccccccccccccccccccccccccccccccccccccccccccccccccccccccccccccccccccccccccccccccccccccccccccccccccccccccccccccccccccccccccccccccccccccccccccccccccccccccccccccccccccccccccccccccccc" />
  </g>
</svg>
