<?xml version="1.0" encoding="UTF-8" standalone="no"?>
<!-- Created with Inkscape (http://www.inkscape.org/) -->

<svg
   xmlns:dc="http://purl.org/dc/elements/1.1/"
   xmlns:cc="http://creativecommons.org/ns#"
   xmlns:rdf="http://www.w3.org/1999/02/22-rdf-syntax-ns#"
   xmlns:svg="http://www.w3.org/2000/svg"
   xmlns="http://www.w3.org/2000/svg"
   xmlns:sodipodi="http://sodipodi.sourceforge.net/DTD/sodipodi-0.dtd"
   xmlns:inkscape="http://www.inkscape.org/namespaces/inkscape"
   width="210mm"
   height="297mm"
   viewBox="0 0 744.09448819 1052.3622047"
   id="svg5160"
   version="1.1"
   inkscape:version="0.92.4 (5da689c313, 2019-01-14)"
   sodipodi:docname="atreus62_spacer.svg">
  <defs
     id="defs5162" />
  <sodipodi:namedview
     id="base"
     pagecolor="#ffffff"
     bordercolor="#666666"
     borderopacity="1.0"
     inkscape:pageopacity="0.0"
     inkscape:pageshadow="2"
     inkscape:zoom="0.98994949"
     inkscape:cx="281.73343"
     inkscape:cy="513.85413"
     inkscape:document-units="px"
     inkscape:current-layer="layer1"
     showgrid="false"
     showborder="false"
     inkscape:window-width="1920"
     inkscape:window-height="1017"
     inkscape:window-x="1672"
     inkscape:window-y="-8"
     inkscape:window-maximized="1" />
  <metadata
     id="metadata5165">
    <rdf:RDF>
      <cc:Work
         rdf:about="">
        <dc:format>image/svg+xml</dc:format>
        <dc:type
           rdf:resource="http://purl.org/dc/dcmitype/StillImage" />
        <dc:title />
      </cc:Work>
    </rdf:RDF>
  </metadata>
  <g
     inkscape:label="Layer 1"
     inkscape:groupmode="layer"
     id="layer1">
    <path
       id="rect6114-2"
       style="fill:none;fill-opacity:1;fill-rule:evenodd;stroke:#0000ff;stroke-width:0.99921262;stroke-linecap:round;stroke-linejoin:round;stroke-miterlimit:4;stroke-dasharray:none;stroke-opacity:1"
       d="m 235.83325,409.98696 h -12.74722 v 0 h -7.62041 c -1.27664,0 -2.30441,-1.0278 -2.30441,-2.3044 v -18.0413 h -0.002 v -19.618 m -36.84835,39.9637 h 12.74722 v 0 h 7.62041 c 1.27664,0 2.30441,-1.0278 2.30441,-2.3044 v -18.0413 h 0.002 v -19.618 m 83.54726,467.8866 -0.6662,-0.05 m 1.3323,0.0181 -0.6661,0.032 m 1.3251,-0.1489 -0.659,0.1169 m 1.2968,-0.3153 -0.6378,0.1984 m 1.2437,-0.4713 -0.6059,0.2729 m 1.1764,-0.6237 -0.5705,0.3508 m 1.0878,-0.7689 -0.5173,0.4181 m 0.9815,-0.9 -0.4642,0.4819 m 0.8646,-1.0169 -0.4004,0.535 m 0.7299,-1.1126 -0.3295,0.5776 m 0.5847,-1.1941 -0.2552,0.6165 m 0.4288,-1.2614 -0.1736,0.6449 m 0.2657,-1.3075 -0.092,0.6626 m 0.1026,-1.3287 -0.011,0.6661 m -0.0634,-1.3287 0.074,0.6626 m -0.2299,-1.311 0.1559,0.6484 m -0.3933,-1.2721 0.2374,0.6237 m -0.5527,-1.2154 0.3153,0.5917 m -0.698,-1.1374 0.3827,0.5457 m -0.8327,-1.0382 0.45,0.4925 m -0.9603,-0.9248 0.5103,0.4323 m -1.0665,-0.7972 0.5562,0.3649 m -1.1586,-0.659 0.6024,0.2941 m -1.2331,-0.5067 0.6307,0.2126 m -1.2827,-0.3473 0.652,0.1347 m -1.3181,-0.1878 0.6661,0.053 m -1.3323,-0.0176 0.6662,-0.035 m -1.3252,0.1484 0.659,-0.1134 m -1.2968,0.3118 0.6378,-0.1984 m -1.2437,0.4748 0.6059,-0.2764 m -1.1764,0.6236 0.5705,-0.3472 m -1.0914,0.7654 0.5209,-0.4182 m -0.9815,0.9 0.4606,-0.4818 m -0.861,1.0169 0.4004,-0.5351 m -0.7299,1.1162 0.3295,-0.5811 m -0.5846,1.1976 0.2551,-0.6165 m -0.4323,1.2614 0.1772,-0.6449 m -0.2693,1.304 0.092,-0.6591 m -0.0991,1.3252 0.01,-0.6661 m 0.0644,1.3322 -0.074,-0.6661 m 0.2299,1.3146 -0.1559,-0.6485 m 0.3933,1.2721 -0.2374,-0.6236 m 0.5492,1.2118 -0.3118,-0.5882 m 0.698,1.1339 -0.3862,-0.5457 m 0.8362,1.0382 -0.45,-0.4925 m 0.9567,0.9248 -0.5067,-0.4323 m 1.0666,0.7972 -0.5599,-0.3649 m 1.1587,0.659 -0.5988,-0.2941 m 1.233,0.5102 -0.6342,-0.2161 m 1.2862,0.3508 -0.652,-0.1347 m -151.6039,0.1843 -0.6661,-0.032 m 1.3322,-0.0176 -0.6661,0.05 m 1.3181,-0.1847 -0.652,0.1347 m 1.2863,-0.3508 -0.6343,0.2161 m 1.2331,-0.5102 -0.5988,0.2941 m 1.1586,-0.659 -0.5598,0.3649 m 1.0665,-0.7972 -0.5067,0.4323 m 0.9567,-0.9248 -0.45,0.4925 m 0.8362,-1.0382 -0.3862,0.5457 m 0.698,-1.1339 -0.3118,0.5882 m 0.5493,-1.2118 -0.2374,0.6236 m 0.3933,-1.2721 -0.1559,0.6485 m 0.2303,-1.3146 -0.074,0.6661 m 0.0669,-1.3322 0.01,0.6661 m -0.1022,-1.3252 0.092,0.6591 m -0.2691,-1.304 0.1771,0.6449 m -0.4322,-1.2614 0.2551,0.6165 m -0.5847,-1.1976 0.3296,0.5811 m -0.73,-1.1162 0.4004,0.5351 m -0.861,-1.0169 0.4606,0.4818 m -0.9814,-0.9 0.5208,0.4182 m -1.0913,-0.7654 0.5705,0.3472 m -1.1764,-0.6236 0.6059,0.2764 m -1.2437,-0.4748 0.6378,0.1984 m -1.2969,-0.3118 0.6591,0.1134 m -1.3252,-0.1488 0.6661,0.035 m -1.3323,0.0181 0.6662,-0.053 m -1.3181,0.1877 0.6519,-0.1347 m -1.2826,0.3473 0.6307,-0.2126 m -1.2331,0.5067 0.6024,-0.2941 m -1.1587,0.659 0.5563,-0.3649 m -1.0665,0.7972 0.5102,-0.4323 m -0.9602,0.9248 0.45,-0.4925 m -0.8327,1.0382 0.3827,-0.5457 m -0.6981,1.1374 0.3154,-0.5917 m -0.5528,1.2154 0.2374,-0.6237 m -0.3933,1.2721 0.1559,-0.6484 m -0.2303,1.311 0.074,-0.6626 m -0.0633,1.3287 -0.011,-0.6661 m 0.1031,1.3287 -0.092,-0.6626 m 0.2656,1.3075 -0.1736,-0.6449 m 0.4287,1.2614 -0.2551,-0.6165 m 0.5846,1.1941 -0.3295,-0.5776 m 0.7299,1.1126 -0.4004,-0.535 m 0.8646,1.0169 -0.4642,-0.4819 m 0.9815,0.9 -0.5173,-0.4181 m 1.0878,0.7689 -0.5705,-0.3508 m 1.1764,0.6237 -0.6059,-0.2729 m 1.2437,0.4713 -0.6378,-0.1984 m 1.2969,0.3153 -0.6591,-0.1169 m 575.0256,-84.841 -0.6661,-0.05 m 1.3322,0.0181 -0.6661,0.032 m 1.3252,-0.1489 -0.6591,0.1169 m 1.2969,-0.3118 -0.6378,0.1949 m 1.2437,-0.4712 -0.6059,0.2763 m 1.1764,-0.6271 -0.5705,0.3508 m 1.0878,-0.7689 -0.5173,0.4181 m 0.9815,-0.8965 -0.4642,0.4784 m 0.8646,-1.0134 -0.4004,0.535 m 0.7299,-1.1161 -0.3295,0.5811 m 0.5846,-1.1977 -0.2551,0.6166 m 0.4287,-1.2614 -0.1736,0.6448 m 0.2658,-1.3039 -0.092,0.6591 m 0.1026,-1.3288 -0.011,0.6697 m -0.0634,-1.3323 0.074,0.6626 m -0.2299,-1.311 0.1559,0.6484 m -0.3933,-1.272 0.2374,0.6236 m -0.5528,-1.2118 0.3154,0.5882 m -0.6981,-1.1339 0.3827,0.5457 m -0.8327,-1.0382 0.45,0.4925 m -0.9602,-0.9283 0.5102,0.4358 m -1.0665,-0.8008 0.5563,0.365 m -1.1587,-0.6555 0.6024,0.2905 m -1.2331,-0.5067 0.6307,0.2162 m -1.2826,-0.3508 0.6519,0.1346 m -1.3181,-0.1842 0.6662,0.05 m -1.3323,-0.0181 0.6661,-0.032 m -1.3252,0.1489 0.6591,-0.1169 m -1.2969,0.3118 0.6378,-0.1949 m -1.2437,0.4712 0.6059,-0.2763 m -1.1764,0.6271 0.5705,-0.3508 m -1.0913,0.7689 0.5208,-0.4181 m -0.9815,0.8965 0.4607,-0.4784 m -0.861,1.0134 0.4003,-0.535 m -0.7299,1.1161 0.3296,-0.5811 m -0.5847,1.1977 0.2551,-0.6166 m -0.4287,1.2614 0.1736,-0.6448 m -0.2693,1.3039 0.096,-0.6591 m -0.1031,1.3288 0.01,-0.6697 m 0.0644,1.3323 -0.074,-0.6626 m 0.2299,1.311 -0.1559,-0.6484 m 0.3933,1.272 -0.2374,-0.6236 m 0.5493,1.2118 -0.3119,-0.5882 m 0.6981,1.1339 -0.3862,-0.5457 m 0.8362,1.0417 -0.45,-0.496 m 0.9567,0.9283 -0.5067,-0.4323 m 1.0665,0.7973 -0.5598,-0.365 m 1.1586,0.6555 -0.5988,-0.2905 m 1.2331,0.5067 -0.6343,-0.2162 m 1.2863,0.3508 -0.652,-0.1346 m -993.1606,0.1842 -0.6661,-0.032 m 1.3323,-0.0176 -0.6662,0.05 m 1.3181,-0.1846 -0.6519,0.1346 m 1.2862,-0.3508 -0.6343,0.2162 m 1.2331,-0.5067 -0.5988,0.2905 m 1.1586,-0.6555 -0.5598,0.365 m 1.0665,-0.7973 -0.5067,0.4323 m 0.9567,-0.9283 -0.45,0.496 m 0.8362,-1.0417 -0.3862,0.5457 m 0.6981,-1.1339 -0.3119,0.5882 m 0.5493,-1.2118 -0.2374,0.6236 m 0.3933,-1.272 -0.1559,0.6484 m 0.2303,-1.311 -0.074,0.6626 m 0.0669,-1.3323 0.01,0.6697 m -0.1057,-1.3288 0.096,0.6591 m -0.2696,-1.3039 0.1736,0.6448 m -0.4287,-1.2614 0.2551,0.6166 m -0.5846,-1.1977 0.3295,0.5811 m -0.7299,-1.1161 0.4004,0.535 m -0.8611,-1.0134 0.4607,0.4784 m -0.9815,-0.8965 0.5208,0.4181 m -1.0913,-0.7689 0.5705,0.3508 m -1.1764,-0.6271 0.6059,0.2763 m -1.2437,-0.4712 0.6378,0.1949 m -1.2969,-0.3118 0.6591,0.1169 m -1.3252,-0.1488 0.6661,0.032 m -1.3322,0.0176 0.6661,-0.05 m -1.3181,0.1846 0.652,-0.1346 m -1.2827,0.3508 0.6307,-0.2162 m -1.2331,0.5067 0.6024,-0.2905 m -1.1587,0.6555 0.5563,-0.365 m -1.0665,0.8008 0.5102,-0.4358 m -0.9602,0.9283 0.45,-0.4925 m -0.8327,1.0382 0.3827,-0.5457 m -0.6981,1.1339 0.3154,-0.5882 m -0.5528,1.2118 0.2374,-0.6236 m -0.3933,1.272 0.1559,-0.6484 m -0.2303,1.311 0.074,-0.6626 m -0.0633,1.3323 -0.011,-0.6697 m 0.1031,1.3288 -0.092,-0.6591 m 0.2656,1.3039 -0.1736,-0.6448 m 0.4287,1.2614 -0.2551,-0.6166 m 0.5847,1.1977 -0.3296,-0.5811 m 0.7299,1.1161 -0.4003,-0.535 m 0.8645,1.0134 -0.4642,-0.4784 m 0.9815,0.8965 -0.5173,-0.4181 m 1.0878,0.7689 -0.5705,-0.3508 m 1.1764,0.6271 -0.6059,-0.2763 m 1.2437,0.4712 -0.6378,-0.1949 m 1.2969,0.3118 -0.6591,-0.1169 m 932.974,-356.1732 -0.6662,-0.053 m 1.3323,0.0211 -0.6661,0.032 m 1.3252,-0.1489 -0.6591,0.1169 m 1.2969,-0.3153 -0.6378,0.1984 m 1.2437,-0.4748 -0.6059,0.2764 m 1.1763,-0.6237 -0.5704,0.3473 m 1.0878,-0.7654 -0.5174,0.4181 m 0.9815,-0.9 -0.4641,0.4819 m 0.8645,-1.0169 -0.4004,0.535 m 0.73,-1.1161 -0.3296,0.5811 m 0.5847,-1.1976 -0.2551,0.6165 m 0.4287,-1.2579 -0.1736,0.6414 m 0.2693,-1.304 -0.096,0.6626 m 0.1031,-1.3287 -0.01,0.6661 m -0.0645,-1.3323 0.074,0.6662 m -0.2299,-1.3146 0.1559,0.6484 m -0.3933,-1.272 0.2374,0.6236 m -0.5492,-1.2118 0.3118,0.5882 m -0.698,-1.1339 0.3862,0.5457 m -0.8362,-1.0382 0.45,0.4925 m -0.9567,-0.9248 0.5067,0.4323 m -1.0665,-0.7972 0.5598,0.3649 m -1.1586,-0.659 0.5988,0.2941 m -1.2331,-0.5103 0.6343,0.2162 m -1.2863,-0.3473 0.652,0.1311 m -1.3181,-0.1842 0.6661,0.053 m -1.3322,-0.0211 0.6661,-0.032 m -1.3252,0.1489 0.6591,-0.1169 m -1.2969,0.3153 0.6378,-0.1984 m -1.2437,0.4713 0.6059,-0.2729 m -1.1764,0.6236 0.5705,-0.3507 m -1.0878,0.7688 0.5173,-0.4181 m -0.9815,0.9 0.4642,-0.4819 m -0.8646,1.017 0.4004,-0.5351 m -0.7299,1.1126 0.3295,-0.5775 m -0.5846,1.1976 0.2551,-0.6201 m -0.4287,1.2615 0.1736,-0.6414 m -0.2693,1.304 0.096,-0.6626 m -0.1031,1.3287 0.01,-0.6661 m 0.0644,1.3287 -0.074,-0.6626 m 0.2299,1.311 -0.1559,-0.6484 m 0.3933,1.2756 -0.2374,-0.6272 m 0.5492,1.2154 -0.3118,-0.5882 m 0.6981,1.1338 -0.3863,-0.5456 m 0.8363,1.0382 -0.45,-0.4926 m 0.9567,0.9248 -0.5067,-0.4322 m 1.0665,0.7972 -0.5598,-0.365 m 1.1586,0.6591 -0.5988,-0.2941 m 1.2331,0.5067 -0.6343,-0.2126 m 1.2862,0.3472 -0.6519,-0.1346 m -472.8296,0.1878 -0.6661,-0.032 m 1.3323,-0.0212 -0.6662,0.053 m 1.3217,-0.1876 -0.6555,0.1346 m 1.2862,-0.3472 -0.6307,0.2126 m 1.2295,-0.5067 -0.5988,0.2941 m 1.1587,-0.6591 -0.5599,0.365 m 1.0666,-0.7972 -0.5067,0.4322 m 0.9567,-0.9248 -0.45,0.4926 m 0.8362,-1.0382 -0.3862,0.5456 m 0.698,-1.1338 -0.3118,0.5882 m 0.5492,-1.2154 -0.2374,0.6272 m 0.3968,-1.2756 -0.1594,0.6484 m 0.2338,-1.311 -0.074,0.6626 m 0.0634,-1.3287 0.011,0.6661 m -0.1031,-1.3287 0.092,0.6626 m -0.2692,-1.304 0.1772,0.6414 m -0.4288,-1.2615 0.2516,0.6201 m -0.5811,-1.1976 0.3295,0.5775 m -0.7299,-1.1126 0.4004,0.5351 m -0.8645,-1.017 0.4641,0.4819 m -0.985,-0.9 0.5209,0.4181 m -1.0878,-0.7688 0.5669,0.3507 m -1.1764,-0.6236 0.6095,0.2729 m -1.2473,-0.4713 0.6378,0.1984 m -1.2933,-0.3153 0.6555,0.1169 m -1.3252,-0.1488 0.6697,0.032 m -1.3323,0.0176 0.6626,-0.05 m -1.3181,0.1846 0.6555,-0.1346 m -1.2862,0.3508 0.6307,-0.2162 m -1.2331,0.5103 0.6024,-0.2941 m -1.1587,0.659 0.5563,-0.3649 m -1.0665,0.7972 0.5102,-0.4323 m -0.9602,0.9248 0.45,-0.4925 m -0.8327,1.0382 0.3827,-0.5457 m -0.698,1.1339 0.3153,-0.5882 m -0.5527,1.2118 0.2374,-0.6236 m -0.3933,1.272 0.1559,-0.6484 m -0.2303,1.3146 0.074,-0.6662 m -0.0634,1.3323 -0.011,-0.6661 m 0.1031,1.3287 -0.092,-0.6626 m 0.2656,1.304 -0.1736,-0.6414 m 0.4287,1.2579 -0.2551,-0.6165 m 0.5847,1.1976 -0.3296,-0.5811 m 0.73,1.1161 -0.4004,-0.535 m 0.8645,1.0169 -0.4641,-0.4819 m 0.985,0.9 -0.5209,-0.4181 m 1.0878,0.7654 -0.5669,-0.3473 m 1.1764,0.6237 -0.6095,-0.2764 m 1.2473,0.4748 -0.6378,-0.1984 m 1.2933,0.3153 -0.6555,-0.1169 m -393.3496,0.1488 -0.6661,-0.032 m 1.3323,-0.0212 -0.6662,0.053 m 1.3181,-0.1876 -0.6519,0.1346 m 1.2861,-0.3472 -0.6342,0.2126 m 1.2331,-0.5067 -0.5989,0.2941 m 1.1587,-0.6591 -0.5598,0.365 m 1.0665,-0.7972 -0.5067,0.4322 m 0.9567,-0.9248 -0.45,0.4926 m 0.8362,-1.0382 -0.3862,0.5456 m 0.698,-1.1338 -0.3118,0.5882 m 0.5492,-1.2154 -0.2374,0.6272 m 0.3933,-1.2756 -0.1559,0.6484 m 0.2303,-1.311 -0.074,0.6626 m 0.067,-1.3287 0.01,0.6661 m -0.1057,-1.3287 0.096,0.6626 m -0.2696,-1.304 0.1736,0.6414 m -0.4287,-1.2615 0.2551,0.6201 m -0.5847,-1.1976 0.3296,0.5775 m -0.73,-1.1126 0.4004,0.5351 m -0.8645,-1.017 0.4641,0.4819 m -0.9815,-0.9 0.5174,0.4181 m -1.0878,-0.7688 0.5704,0.3507 m -1.1763,-0.6236 0.6059,0.2729 m -1.2437,-0.4713 0.6378,0.1984 m -1.2968,-0.3153 0.659,0.1169 m -1.3252,-0.1488 0.6662,0.032 m -1.3323,0.0211 0.6661,-0.053 m -1.3181,0.1841 0.652,-0.1311 m -1.2862,0.3473 0.6342,-0.2162 m -1.2331,0.5103 0.5989,-0.2941 m -1.1587,0.659 0.5598,-0.3649 m -1.0665,0.7972 0.5067,-0.4323 m -0.9567,0.9248 0.45,-0.4925 m -0.8362,1.0382 0.3862,-0.5457 m -0.698,1.1339 0.3118,-0.5882 m -0.5492,1.2118 0.2374,-0.6236 m -0.3933,1.272 0.1559,-0.6484 m -0.2304,1.3146 0.074,-0.6662 m -0.0669,1.3323 -0.01,-0.6661 m 0.1057,1.3287 -0.096,-0.6626 m 0.2696,1.304 -0.1736,-0.6414 m 0.4287,1.2579 -0.2551,-0.6165 m 0.5847,1.1976 -0.3296,-0.5811 m 0.73,1.1161 -0.4004,-0.535 m 0.8645,1.0169 -0.4641,-0.4819 m 0.9815,0.9 -0.5174,-0.4181 m 1.0878,0.7654 -0.5704,-0.3473 m 1.1763,0.6237 -0.6059,-0.2764 m 1.2437,0.4748 -0.6378,-0.1984 m 1.2969,0.3153 -0.6591,-0.1169 m 475.4728,0.1488 -0.6661,-0.053 m 1.3323,0.0211 -0.6662,0.032 m 1.3217,-0.1489 -0.6555,0.1169 m 1.2933,-0.3153 -0.6378,0.1984 m 1.2472,-0.4748 -0.6094,0.2764 m 1.1763,-0.6237 -0.5669,0.3473 m 1.0878,-0.7654 -0.5209,0.4181 m 0.9851,-0.9 -0.4642,0.4819 m 0.8646,-1.0169 -0.4004,0.535 m 0.7299,-1.1161 -0.3295,0.5811 m 0.5846,-1.1976 -0.2551,0.6165 m 0.4287,-1.2579 -0.1736,0.6414 m 0.2658,-1.304 -0.092,0.6626 m 0.1026,-1.3287 -0.011,0.6661 m -0.0634,-1.3323 0.074,0.6662 m -0.2299,-1.3146 0.1559,0.6484 m -0.3933,-1.272 0.2374,0.6236 m -0.5528,-1.2118 0.3154,0.5882 m -0.698,-1.1339 0.3826,0.5457 m -0.8326,-1.0382 0.45,0.4925 m -0.9603,-0.9248 0.5103,0.4323 m -1.0666,-0.7972 0.5563,0.3649 m -1.1586,-0.659 0.6023,0.2941 m -1.2331,-0.5103 0.6308,0.2162 m -1.2863,-0.3508 0.6555,0.1346 m -1.3181,-0.1842 0.6626,0.05 m -1.3323,-0.0181 0.6697,-0.032 m -1.3252,0.1489 0.6555,-0.1169 m -1.2933,0.3153 0.6378,-0.1984 m -1.2472,0.4713 0.6094,-0.2729 m -1.1763,0.6236 0.5669,-0.3507 m -1.0878,0.7688 0.5209,-0.4181 m -0.9851,0.9 0.4642,-0.4819 m -0.8646,1.017 0.4004,-0.5351 m -0.7299,1.1126 0.3295,-0.5775 m -0.5811,1.1976 0.2516,-0.6201 m -0.4287,1.2615 0.1771,-0.6414 m -0.2693,1.304 0.092,-0.6626 m -0.1026,1.3287 0.011,-0.6661 m 0.0634,1.3287 -0.074,-0.6626 m 0.2335,1.311 -0.1595,-0.6484 m 0.3969,1.2756 -0.2374,-0.6272 m 0.5492,1.2154 -0.3118,-0.5882 m 0.698,1.1338 -0.3862,-0.5456 m 0.8362,1.0382 -0.45,-0.4926 m 0.9567,0.9248 -0.5067,-0.4322 m 1.0665,0.7972 -0.5598,-0.365 m 1.1587,0.6591 -0.5989,-0.2941 m 1.2296,0.5067 -0.6307,-0.2126 m 1.2862,0.3472 -0.6555,-0.1346 m 37.8212,457.4445 2.6681,-0.1311 m -155.1437,0.1311 h 152.4756 m -155.1437,-0.1311 2.6681,0.1311 m -5.2972,-0.5953 2.6291,0.4642 m -423.4074,-85.454 420.7783,84.9898 m -423.3294,-85.7799 2.5511,0.7901 m -4.9819,-1.8921 2.4308,1.102 m -4.702,-2.5016 2.2712,1.3996 m -4.3547,-3.072 2.0835,1.6724 m -3.9366,-3.5929 1.8531,1.9205 m -3.4512,-4.0571 1.5981,2.1366 m -2.9197,-4.4575 1.3216,2.3209 m -2.3385,-4.7906 1.0169,2.4697 m -1.715,-5.0457 0.6981,2.576 m -1.0701,-5.2193 0.372,2.6433 m -0.411,-5.3149 0.039,2.6716 m 0.2586,-5.322 -0.2976,2.6504 m 63.1275,-358.976 -62.8299,356.3256 m 63.4571,-358.9193 -0.6272,2.5937 m 1.5768,-5.0917 -0.9496,2.498 m 2.2039,-4.8543 -1.2543,2.3563 m 2.7921,-4.539 -1.5378,2.1827 m 3.3378,-4.1528 -1.8,1.9701 m 3.8339,-3.6992 -2.0339,1.7291 m 4.2662,-3.1925 -2.2323,1.4634 m 4.6346,-2.6327 -2.4023,1.1693 m 4.9287,-2.0303 -2.5264,0.861 m 5.1414,-1.3996 -2.615,0.5386 m 5.276,-0.7441 -2.661,0.2055 m 430.3558,-0.2055 h -427.6948 m 403.0724,40.9146 1.9488,-0.9496 m -4.4752,1.8106 2.5264,-0.861 m -5.1449,1.3996 2.6185,-0.5386 m -5.2795,0.7405 2.661,-0.2019 m -5.3256,0.0708 2.6646,0.1311 m -5.2937,-0.5917 2.6291,0.4606 m -5.1803,-1.2508 2.5512,0.7902 m -4.9819,-1.8921 2.4307,1.1019 m -2.5406,-1.1692 0.1099,0.067 m -371.5973,-0.067 h 371.4874 m -428.7082,324.5208 57.2208,-324.5208 m 272.4343,393.4417 -329.6551,-68.9209 m 388.9771,79.3807 -59.322,-10.4598 m 62.3693,10.4598 h -3.0473 m 4.9961,-0.9496 -1.9488,0.9496 m 4.4752,-1.8106 -2.5264,0.861 m 5.1413,-1.396 -2.6149,0.535 m 5.2759,-0.7406 -2.661,0.2056 m 5.3292,-0.0745 -2.6682,-0.1311 m 5.2973,0.5918 -2.6291,-0.4607 m 5.1803,1.2508 -2.5512,-0.7901 m 4.9819,1.8921 -2.4307,-1.102 m 2.537,1.1693 -0.1063,-0.067 m 133.0016,0.067 h -132.8953 m 133.0016,-0.0673 -0.1063,0.067 m 2.537,-1.169 -2.4307,1.102 m 4.9819,-1.8921 -2.5512,0.7901 m 5.1803,-1.2508 -2.6291,0.4607 m 5.2972,-0.5918 -2.6681,0.1311 m 5.3291,0.0745 -2.661,-0.2056 m 5.276,0.7406 -2.615,-0.535 m 5.1414,1.396 -2.5264,-0.861 m 4.4752,1.8106 -1.9488,-0.9496 m 4.996,0.9496 h -3.0472 m 62.3693,-10.4598 -59.3221,10.4598 m 388.9772,-79.3807 -329.6551,68.9209 m 272.4342,-393.4417 57.2209,324.5208 m -428.7083,-324.5208 h 371.4874 m -371.5972,0.0673 0.1098,-0.067 m -2.5405,1.1689 2.4307,-1.1019 m -4.9819,1.8921 2.5512,-0.7902 m -5.1803,1.2508 2.6291,-0.4606 m -5.2937,0.5917 2.6646,-0.1311 m -5.3256,-0.0708 2.661,0.2019 m -5.2795,-0.7405 2.6185,0.5386 m -5.1449,-1.3996 2.5264,0.861 m -4.4752,-1.8106 1.9488,0.9496 m 403.0724,-40.9146 h -427.6949 m 430.3559,0.2055 -2.661,-0.2055 m 5.276,0.7441 -2.615,-0.5386 m 5.1414,1.3996 -2.5264,-0.861 m 4.9287,2.0303 -2.4023,-1.1693 m 4.6346,2.6327 -2.2323,-1.4634 m 4.2662,3.1925 -2.0339,-1.7291 m 3.8339,3.6992 -1.8,-1.9701 m 3.3378,4.1528 -1.5378,-2.1827 m 2.7921,4.539 -1.2543,-2.3563 m 2.2039,4.8543 -0.9496,-2.498 m 1.5768,5.0917 -0.6272,-2.5937 m 63.4571,358.9193 -62.8299,-356.3256 m 63.1275,358.976 -0.2976,-2.6504 m 0.2587,5.322 0.039,-2.6716 m -0.4111,5.3149 0.3721,-2.6433 m -1.0701,5.2193 0.698,-2.576 m -1.7149,5.0457 1.0169,-2.4697 m -2.3386,4.7906 1.3217,-2.3209 m -2.9197,4.4575 1.598,-2.1366 m -3.4512,4.0571 1.8532,-1.9205 m -3.9366,3.5929 2.0834,-1.6724 m -4.3547,3.072 2.2713,-1.3996 m -4.702,2.5016 2.4307,-1.102 m -4.9819,1.8921 2.5512,-0.7901 m -423.3295,85.7799 420.7783,-84.9898 m -423.4075,85.454 2.6292,-0.4642" />
  </g>
</svg>
