<?xml version="1.0" encoding="UTF-8" standalone="no"?>
<!-- Created with Inkscape (http://www.inkscape.org/) -->

<svg
   xmlns:dc="http://purl.org/dc/elements/1.1/"
   xmlns:cc="http://creativecommons.org/ns#"
   xmlns:rdf="http://www.w3.org/1999/02/22-rdf-syntax-ns#"
   xmlns:svg="http://www.w3.org/2000/svg"
   xmlns="http://www.w3.org/2000/svg"
   xmlns:sodipodi="http://sodipodi.sourceforge.net/DTD/sodipodi-0.dtd"
   xmlns:inkscape="http://www.inkscape.org/namespaces/inkscape"
   width="210mm"
   height="297mm"
   viewBox="0 0 744.09448819 1052.3622047"
   id="svg5160"
   version="1.1"
   inkscape:version="0.92.4 (5da689c313, 2019-01-14)"
   sodipodi:docname="harkonnen_switch_plate_wide.svg">
  <defs
     id="defs5162">
    <marker
       style="overflow:visible"
       refY="0.0"
       refX="0.0"
       orient="auto"
       id="DistanceX">
      <path
         id="path6683"
         style="stroke:#000000; stroke-width:0.5"
         d="M 3,-3 L -3,3 M 0,-5 L  0,5" />
    </marker>
    <pattern
       y="0"
       x="0"
       width="8"
       patternUnits="userSpaceOnUse"
       id="Hatch"
       height="8">
      <path
         id="path6686"
         stroke-width="0.25"
         stroke="#000000"
         linecap="square"
         d="M8 4 l-4,4" />
      <path
         id="path6688"
         stroke-width="0.25"
         stroke="#000000"
         linecap="square"
         d="M6 2 l-4,4" />
      <path
         id="path6690"
         stroke-width="0.25"
         stroke="#000000"
         linecap="square"
         d="M4 0 l-4,4" />
    </pattern>
    <symbol
       id="*MODEL_SPACE" />
    <symbol
       id="*PAPER_SPACE" />
    <marker
       style="overflow:visible"
       refY="0.0"
       refX="0.0"
       orient="auto"
       id="DistanceX-2">
      <path
         id="path1051"
         style="stroke:#000000; stroke-width:0.5"
         d="M 3,-3 L -3,3 M 0,-5 L  0,5" />
    </marker>
    <pattern
       y="0"
       x="0"
       width="8"
       patternUnits="userSpaceOnUse"
       id="Hatch-1"
       height="8">
      <path
         id="path1054"
         stroke-width="0.25"
         stroke="#000000"
         linecap="square"
         d="M8 4 l-4,4" />
      <path
         id="path1056"
         stroke-width="0.25"
         stroke="#000000"
         linecap="square"
         d="M6 2 l-4,4" />
      <path
         id="path1058"
         stroke-width="0.25"
         stroke="#000000"
         linecap="square"
         d="M4 0 l-4,4" />
    </pattern>
    <symbol
       id="*MODEL_SPACE-2" />
    <symbol
       id="*PAPER_SPACE-0" />
    <marker
       style="overflow:visible"
       refY="0.0"
       refX="0.0"
       orient="auto"
       id="DistanceX-9">
      <path
         id="path963"
         style="stroke:#000000; stroke-width:0.5"
         d="M 3,-3 L -3,3 M 0,-5 L  0,5" />
    </marker>
    <pattern
       y="0"
       x="0"
       width="8"
       patternUnits="userSpaceOnUse"
       id="Hatch-7"
       height="8">
      <path
         id="path966"
         stroke-width="0.25"
         stroke="#000000"
         linecap="square"
         d="M8 4 l-4,4" />
      <path
         id="path968"
         stroke-width="0.25"
         stroke="#000000"
         linecap="square"
         d="M6 2 l-4,4" />
      <path
         id="path970"
         stroke-width="0.25"
         stroke="#000000"
         linecap="square"
         d="M4 0 l-4,4" />
    </pattern>
    <symbol
       id="*MODEL_SPACE-24" />
    <symbol
       id="*PAPER_SPACE-5" />
  </defs>
  <sodipodi:namedview
     id="base"
     pagecolor="#ffffff"
     bordercolor="#666666"
     borderopacity="1.0"
     inkscape:pageopacity="0.0"
     inkscape:pageshadow="2"
     inkscape:zoom="0.9899495"
     inkscape:cx="213.66168"
     inkscape:cy="762.82065"
     inkscape:document-units="px"
     inkscape:current-layer="layer3"
     showgrid="false"
     showborder="false"
     inkscape:window-width="1920"
     inkscape:window-height="1017"
     inkscape:window-x="1672"
     inkscape:window-y="-8"
     inkscape:window-maximized="1" />
  <metadata
     id="metadata5165">
    <rdf:RDF>
      <cc:Work
         rdf:about="">
        <dc:format>image/svg+xml</dc:format>
        <dc:type
           rdf:resource="http://purl.org/dc/dcmitype/StillImage" />
        <dc:title />
      </cc:Work>
    </rdf:RDF>
  </metadata>
  <g
     inkscape:label="Layer 1"
     inkscape:groupmode="layer"
     id="layer1">
    <path
       id="path5340"
       style="fill:none;stroke:#0000ff"
       d="m 450.20694,655.0697 -0.6662,-0.051 m 1.3323,0.0184 -0.6661,0.033 m 1.3251,-0.1489 -0.659,0.1159 m 1.2968,-0.3132 -0.6378,0.1973 m 1.2437,-0.4731 -0.6059,0.2758 m 1.1764,-0.6255 -0.5705,0.3497 m 1.0878,-0.7679 -0.5173,0.4182 m 0.9815,-0.8984 -0.4642,0.4802 m 0.8646,-1.0147 -0.4004,0.5345 m 0.7299,-1.1149 -0.3295,0.5804 m 0.5847,-1.1974 -0.2552,0.617 m 0.4288,-1.2611 -0.1736,0.6441 m 0.2657,-1.3051 -0.092,0.661 m 0.1026,-1.3284 -0.011,0.6674 m -0.0634,-1.3307 0.074,0.6633 m -0.2299,-1.312 0.1559,0.6487 m -0.3933,-1.2726 0.2374,0.6239 m -0.5527,-1.2132 0.3153,0.5893 m -0.698,-1.1348 0.3827,0.5455 m -0.8327,-1.0384 0.45,0.4929 m -0.9603,-0.9254 0.5103,0.4325 m -1.0665,-0.798 0.5562,0.3655 m -1.1586,-0.6581 0.6024,0.2926 m -1.2331,-0.5077 0.6307,0.2151 m -1.2827,-0.3493 0.652,0.1342 m -1.3181,-0.1854 0.6661,0.051 m -1.3323,-0.0184 0.6662,-0.033 m -1.3252,0.1489 0.659,-0.1159 m -1.2968,0.3133 0.6378,-0.1974 m -1.2437,0.4731 0.6059,-0.2757 m -1.1764,0.6255 0.5705,-0.3498 m -1.0914,0.768 0.5209,-0.4182 m -0.9815,0.8983 0.4606,-0.4801 m -0.861,1.0145 0.4004,-0.5344 m -0.7299,1.1148 0.3295,-0.5804 m -0.5846,1.1975 0.2551,-0.6171 m -0.4323,1.2612 0.1772,-0.6441 m -0.2693,1.305 0.092,-0.6609 m -0.0991,1.3283 0.01,-0.6674 m 0.0644,1.3307 -0.074,-0.6633 m 0.2299,1.3121 -0.1559,-0.6488 m 0.3933,1.2727 -0.2374,-0.6239 m 0.5492,1.2132 -0.3118,-0.5893 m 0.698,1.1347 -0.3862,-0.5454 m 0.8362,1.0383 -0.45,-0.4929 m 0.9567,0.9255 -0.5067,-0.4326 m 1.0666,0.7981 -0.5599,-0.3655 m 1.1587,0.6581 -0.5988,-0.2926 m 1.233,0.5077 -0.6342,-0.2151 m 1.2862,0.3493 -0.652,-0.1342 m 18.8433,-30.053 -0.6023,-3.42123 m 49.3512,-5.17435 -48.7489,8.59558 m 48.1465,-12.01688 0.6024,3.4213 m 2.2322,-3.9213 -2.8346,0.5 m 0.6803,-12.7137 2.1543,12.2137 m -4.9889,-11.7134 2.8346,-0.5003 m -5.9173,-16.97815 3.0827,17.47845 m -0.2445,-17.97841 -2.8382,0.49996 m 0.6839,-12.71374 2.1543,12.21378 m -4.9925,-11.71347 2.8382,-0.50031 m -3.4406,-2.92111 0.6024,3.42142 m -49.3512,5.17429 48.7488,-8.59571 m -48.1429,12.01678 -0.6059,-3.42107 m -2.2323,3.92138 2.8382,-0.50031 m -0.6839,12.71374 -2.1543,-12.21343 m 4.989,11.71346 -2.8347,0.49997 m 5.9174,16.97808 -3.0827,-17.47805 m 0.248,17.97835 2.8347,-0.5003 m -0.6804,12.71385 -2.1543,-12.21355 m 4.989,11.71345 -2.8347,0.5001 m 406.6902,-51.82875 -0.6661,-0.0514 m 1.3322,0.0188 -0.6661,0.0326 m 1.3252,-0.14847 -0.6591,0.11587 m 1.2969,-0.31323 -0.6378,0.19736 m 1.2437,-0.47339 -0.6059,0.27603 m 1.1764,-0.62575 -0.5705,0.34972 m 1.0878,-0.76783 -0.5173,0.41811 m 0.9815,-0.89823 -0.4642,0.48012 m 0.8646,-1.0148 -0.4004,0.53468 m 0.7299,-1.11472 -0.3295,0.58004 m 0.5846,-1.19729 -0.2551,0.61725 m 0.4287,-1.26142 -0.1736,0.64417 m 0.2658,-1.305 -0.092,0.66083 m 0.1026,-1.32839 -0.011,0.66756 m -0.0634,-1.33086 0.074,0.6633 m -0.2299,-1.31208 0.1559,0.64878 m -0.3933,-1.27241 0.2374,0.62363 m -0.5528,-1.21323 0.3154,0.5896 m -0.6981,-1.13492 0.3827,0.54532 m -0.8327,-1.03819 0.45,0.49287 m -0.9602,-0.92551 0.5102,0.43264 m -1.0665,-0.79795 0.5563,0.36531 m -1.1587,-0.65799 0.6024,0.29268 m -1.2331,-0.50776 0.6307,0.21508 m -1.2826,-0.34937 0.6519,0.13429 m -1.3181,-0.18531 0.6662,0.051 m -1.3323,-0.0184 0.6661,-0.0326 m -1.3252,0.14847 0.6591,-0.11587 m -1.2969,0.31323 0.6378,-0.19736 m -1.2437,0.47303 0.6059,-0.27567 m -1.1764,0.6254 0.5705,-0.34973 m -1.0913,0.76784 0.5208,-0.41811 m -0.9815,0.89822 0.4607,-0.48011 m -0.861,1.0148 0.4003,-0.53469 m -0.7299,1.11508 0.3296,-0.58039 m -0.5847,1.19728 0.2551,-0.61689 m -0.4287,1.26107 0.1736,-0.64418 m -0.2693,1.305 0.096,-0.66082 m -0.1031,1.32838 0.01,-0.66756 m 0.0644,1.33087 -0.074,-0.66331 m 0.2299,1.31209 -0.1559,-0.64878 m 0.3933,1.27276 -0.2374,-0.62398 m 0.5493,1.21323 -0.3119,-0.58925 m 0.6981,1.13456 -0.3862,-0.54531 m 0.8362,1.03819 -0.45,-0.49288 m 0.9567,0.92551 -0.5067,-0.43263 m 1.0665,0.7983 -0.5598,-0.36567 m 1.1586,0.658 -0.5988,-0.29233 m 1.2331,0.5074 -0.6343,-0.21507 m 1.2863,0.34937 -0.652,-0.1343 m -474.0803,33.47607 -0.6024,-3.4214 m 49.3512,-5.17427 -48.7488,8.59567 m 48.1464,-12.01673 0.6024,3.42106 m 2.2323,-3.92138 -2.8347,0.50032 m 0.6803,-12.71375 2.1544,12.21343 m -4.989,-11.71346 2.8346,-0.49997 m -5.9173,-16.97846 3.0827,17.47843 m -0.2445,-17.97839 -2.8382,0.49996 m 0.6839,-12.71339 2.1543,12.21343 m -4.9925,-11.71347 2.8382,-0.49996 m -3.4406,-2.9211 0.6024,3.42106 m -49.3512,5.1743 48.7488,-8.59536 m -48.1429,12.01677 -0.6059,-3.42141 m -2.2323,3.92137 2.8382,-0.49996 m -0.6838,12.71339 -2.1544,-12.21343 m 4.989,11.71347 -2.8346,0.49996 m 5.9173,16.97846 -3.0827,-17.47842 m 0.248,17.97839 2.8347,-0.49997 m -0.6803,12.71371 -2.1544,-12.21374 m 4.989,11.71344 -2.8346,0.5003 m 138.8055,-4.75721 -0.6024,-3.42142 m 49.3512,-5.17429 -48.7488,8.59571 m 48.1464,-12.01677 0.6024,3.42106 m 2.2323,-3.92138 -2.8347,0.50032 m 0.6803,-12.71374 2.1544,12.21342 m -4.989,-11.71346 2.8346,-0.49996 m -5.9173,-16.97847 3.0827,17.47843 m -0.2445,-17.97839 -2.8382,0.49996 m 0.6839,-12.71338 2.1543,12.21342 m -4.9925,-11.71346 2.8382,-0.49996 m -3.4406,-2.9211 0.6024,3.42106 m -49.3512,5.17429 48.7488,-8.59535 m -48.1429,12.01677 -0.6059,-3.42142 m -2.2323,3.92138 2.8382,-0.49996 m -0.6838,12.71338 -2.1544,-12.21342 m 4.9925,11.71346 -2.8381,0.49996 m 5.9173,16.97847 -3.0792,-17.47843 m 0.2445,17.97839 2.8347,-0.49996 m -0.6803,12.71374 -2.1544,-12.21378 m 4.989,11.71346 -2.8346,0.50032 m 135.4216,-23.94957 -0.6023,-3.42106 m 49.3511,-5.17429 -48.7488,8.59535 m 48.1465,-12.01677 0.6023,3.42142 m 2.2323,-3.92138 -2.8346,0.49996 m 0.6838,-12.71374 2.1508,12.21378 m -4.989,-11.71347 2.8382,-0.50031 m -5.9208,-16.97811 3.0826,17.47842 m -0.2444,-17.97838 -2.8382,0.49996 m 0.6838,-12.71374 2.1544,12.21378 m -4.989,-11.71347 2.8346,-0.50031 m -3.4405,-2.9211 0.6059,3.42141 m -49.3512,5.17429 48.7453,-8.5957 m -48.1429,12.01677 -0.6024,-3.42107 m -2.2358,3.92138 2.8382,-0.50031 m -0.6839,12.71374 -2.1543,-12.21343 m 4.9925,11.71347 -2.8382,0.49996 m 5.9173,16.97811 -3.0791,-17.47807 m 0.2445,17.97838 2.8346,-0.50031 m -0.6803,12.71374 -2.1543,-12.21343 m 4.989,11.71347 -2.8347,0.49996 m 71.5854,1.69902 -0.6059,-3.42107 m 49.3512,-5.17429 -48.7453,8.59536 m 48.143,-12.01678 0.6023,3.42142 m 2.2358,-3.92138 -2.8381,0.49996 m 0.6838,-12.71374 2.1543,12.21378 m -4.9925,-11.71346 2.8382,-0.50032 m -5.9173,-16.97811 3.0791,17.47843 m -0.2445,-17.97839 -2.8346,0.49996 m 0.6803,-12.71374 2.1543,12.21378 m -4.9889,-11.71346 2.8346,-0.50032 m -3.437,-2.9211 0.6024,3.42142 m -49.3512,5.17429 48.7488,-8.59571 m -48.1465,12.01677 -0.6023,-3.42106 m -2.2323,3.92138 2.8346,-0.50032 m -0.6838,12.71374 -2.1508,-12.21342 m 4.989,11.71346 -2.8382,0.49996 m 5.9209,16.97811 -3.0827,-17.47807 m 0.2445,17.97839 2.8382,-0.50032 m -0.6839,12.71374 -2.1543,-12.21342 m 4.9889,11.71346 -2.8346,0.49996 m -134.0823,-1.61362 -0.6024,-3.42106 m 49.3512,-5.17465 -48.7488,8.59571 m 48.1429,-12.01677 0.6059,3.42106 m 2.2323,-3.92102 -2.8382,0.49996 m 0.6839,-12.71374 2.1543,12.21378 m -4.9925,-11.71347 2.8382,-0.50031 m -5.9173,-16.97811 3.0791,17.47842 m -0.2445,-17.97874 -2.8346,0.50032 m 0.6803,-12.71374 2.1543,12.21342 m -4.989,-11.71346 2.8347,-0.49996 m -3.437,-2.9211 0.6023,3.42106 m -49.3512,5.17464 48.7489,-8.5957 m -48.1465,12.01677 -0.6024,-3.42107 m -2.2322,3.92103 2.8346,-0.49996 m -0.6803,12.71374 -2.1543,-12.21378 m 4.9889,11.71346 -2.8346,0.50032 m 5.9173,16.97811 -3.0827,-17.47843 m 0.2445,17.97874 2.8382,-0.50031 m -0.6838,12.71374 -2.1544,-12.21343 m 4.9925,11.71347 -2.8381,0.49996 m -134.0823,-1.61362 -0.6024,-3.42142 m 49.3512,-5.17429 -48.7488,8.59571 m 48.1429,-12.01678 0.6059,3.42107 m 2.2323,-3.92138 -2.8382,0.50031 m 0.6838,-12.71374 2.1544,12.21343 m -4.989,-11.71347 2.8346,-0.49996 m -5.9173,-16.97846 3.0827,17.47842 m -0.248,-17.97838 -2.8347,0.49996 m 0.6803,-12.71339 2.1544,12.21343 m -4.989,-11.71347 2.8346,-0.49996 m -3.437,-2.9211 0.6024,3.42106 m -49.3512,5.1743 48.7488,-8.59536 m -48.1464,12.01677 -0.6024,-3.42141 m -2.2323,3.92137 2.8347,-0.49996 m -0.6803,12.71339 -2.1544,-12.21343 m 4.989,11.71347 -2.8346,0.49996 m 5.9173,16.97846 -3.0827,-17.47842 m 0.2445,17.97838 2.8382,-0.49996 m -0.6839,12.71374 -2.1543,-12.21378 m 4.9925,11.71347 -2.8382,0.50031 m 344.7851,0.30012 -0.6024,-3.42106 m 49.3512,-5.17429 -48.7488,8.59535 m 48.1429,-12.01677 0.6059,3.42142 m 2.2323,-3.92138 -2.8382,0.49996 m 0.6838,-12.71374 2.1544,12.21378 m -4.989,-11.71347 2.8346,-0.50031 m -5.9173,-16.97811 3.0827,17.47842 m -0.248,-17.97874 -2.8347,0.50032 m 0.6839,-12.71374 2.1508,12.21342 m -4.989,-11.71311 2.8382,-0.50031 m -3.4406,-2.9211 0.6024,3.42141 m -49.3512,5.1743 48.7488,-8.59571 m -48.1464,12.01677 -0.6024,-3.42106 m -2.2323,3.92137 2.8347,-0.50031 m -0.6804,12.71374 -2.1543,-12.21343 m 4.989,11.71347 -2.8347,0.49996 m 5.9174,16.97811 -3.0827,-17.47807 m 0.248,17.97838 2.8347,-0.50031 m -0.6839,12.71374 -2.1508,-12.21343 m 4.989,11.71347 -2.8382,0.49996 m -274.6807,-23.59595 -0.6024,-3.42106 m 49.3512,-5.17464 -48.7488,8.5957 m 48.1429,-12.01677 0.6059,3.42107 m 2.2323,-3.92103 -2.8382,0.49996 m 0.6839,-12.71374 2.1543,12.21378 m -4.989,-11.71346 2.8347,-0.50032 m -5.9173,-16.97811 3.0826,17.47843 m -0.248,-17.97839 -2.8346,0.49996 m 0.6838,-12.71374 2.1508,12.21378 m -4.989,-11.71346 2.8382,-0.50032 m -3.4405,-2.9211 0.6023,3.42142 m -49.3512,5.17429 48.7489,-8.59571 m -48.1465,12.01677 -0.6024,-3.42106 m -2.2322,3.92138 2.8346,-0.50032 m -0.6803,12.71374 -2.1543,-12.21342 m 4.9889,11.71346 -2.8346,0.49996 m 5.9173,16.97811 -3.0827,-17.47807 m 0.2481,17.97839 2.8346,-0.50032 m -0.6838,12.71374 -2.1508,-12.21342 m 4.9889,11.71346 -2.8381,0.49996 m 135.4252,-23.94921 -0.6024,-3.42142 m 49.3512,-5.17429 -48.7488,8.59571 m 48.1464,-12.01677 0.6024,3.42106 m 2.2323,-3.92138 -2.8347,0.50032 m 0.6803,-12.71374 2.1544,12.21342 m -4.989,-11.71346 2.8346,-0.49996 m -5.9173,-16.97811 3.0827,17.47807 m -0.2481,-17.97839 -2.8346,0.50032 m 0.6839,-12.71374 2.1507,12.21342 m -4.9889,-11.71346 2.8382,-0.49996 m -3.4406,-2.92111 0.6024,3.42107 m -49.3512,5.17429 48.7488,-8.59536 m -48.1464,12.01678 -0.6024,-3.42142 m -2.2323,3.92138 2.8347,-0.49996 m -0.6804,12.71374 -2.1543,-12.21378 m 4.989,11.71346 -2.8347,0.50032 m 5.9174,16.97811 -3.0827,-17.47843 m 0.248,17.97839 2.8347,-0.49996 m -0.6839,12.71374 -2.1508,-12.21378 m 4.989,11.71346 -2.8382,0.50032 m 71.5854,1.69901 -0.6023,-3.42142 m 49.3512,-5.17429 -48.7489,8.59571 m 48.1465,-12.01677 0.6024,3.42106 m 2.2322,-3.92137 -2.8346,0.50031 m 0.6838,-12.71374 2.1508,12.21343 m -4.9889,-11.71347 2.8381,-0.49996 m -5.9208,-16.97811 3.0827,17.47807 m -0.2445,-17.97838 -2.8382,0.50031 m 0.6838,-12.71374 2.1544,12.21343 m -4.9925,-11.71347 2.8381,-0.49996 m -3.4405,-2.9211 0.6024,3.42106 m -49.3512,5.17465 48.7488,-8.59571 m -48.1429,12.01677 -0.6059,-3.42106 m -2.2323,3.92102 2.8382,-0.49996 m -0.6839,12.71374 -2.1543,-12.21378 m 4.9925,11.71346 -2.8382,0.50032 m 5.9173,16.97811 -3.0791,-17.47843 m 0.2445,17.97839 2.8346,-0.49996 m -0.6803,12.71374 -2.1543,-12.21378 m 4.989,11.71346 -2.8347,0.50032 m -134.0858,-1.61362 -0.6024,-3.42142 m 49.3512,-5.17429 -48.7488,8.59571 m 48.1465,-12.01677 0.6023,3.42106 m 2.2323,-3.92138 -2.8346,0.50032 m 0.6838,-12.71374 2.1508,12.21342 m -4.989,-11.71346 2.8382,-0.49996 m -5.9209,-16.97847 3.0827,17.47843 m -0.2445,-17.97839 -2.8382,0.49996 m 0.6839,-12.71338 2.1543,12.21342 m -4.9889,-11.71346 2.8346,-0.49996 m -3.4405,-2.92111 0.6059,3.42107 m -49.3512,5.17429 48.7453,-8.59536 m -48.143,12.01677 -0.6023,-3.42141 m -2.2358,3.92138 2.8381,-0.49997 m -0.6838,12.71339 -2.1543,-12.21342 m 4.9925,11.71346 -2.8382,0.49996 m 5.9173,16.97847 -3.0791,-17.47843 m 0.2445,17.97839 2.8346,-0.49996 m -0.6803,12.71374 -2.1543,-12.21378 m 4.9889,11.71346 -2.8346,0.50032 m -134.0823,-1.61398 -0.6059,-3.42106 m 49.3512,-5.1743 -48.7453,8.59536 m 48.1429,-12.01677 0.6024,3.42141 m 2.2358,-3.92137 -2.8382,0.49996 m 0.6839,-12.71374 2.1543,12.21378 m -4.9925,-11.71347 2.8382,-0.50031 m -5.9209,-16.97811 3.0827,17.47842 m -0.2445,-17.97838 -2.8382,0.49996 m 0.6839,-12.71374 2.1543,12.21378 m -4.989,-11.71347 2.8347,-0.50031 m -3.4406,-2.92111 0.6059,3.42142 m -49.3512,5.17429 48.7453,-8.59571 m -48.1429,12.01678 -0.6024,-3.42107 m -2.2322,3.92138 2.8346,-0.50031 m -0.6839,12.71374 -2.1507,-12.21343 m 4.9889,11.71347 -2.8382,0.49996 m 5.9209,16.97846 -3.0827,-17.47842 m 0.2445,17.97838 2.8382,-0.49996 m -0.6838,12.71339 -2.1544,-12.21343 m 4.989,11.71347 -2.8346,0.49996 m 344.785,0.30047 -0.6059,-3.42142 m 49.3512,-5.17429 -48.7453,8.59571 m 48.1429,-12.01677 0.6024,3.42106 m 2.2358,-3.92138 -2.8382,0.50032 m 0.6839,-12.71374 2.1543,12.21342 m -4.9925,-11.71346 2.8382,-0.49996 m -5.9174,-16.97811 3.0792,17.47807 m -0.2445,-17.97839 -2.8347,0.50032 m 0.6804,-12.71374 2.1543,12.21342 m -4.989,-11.71346 2.8347,-0.49996 m -3.437,-2.92111 0.6023,3.42107 m -49.3512,5.17429 48.7489,-8.59536 m -48.1465,12.01678 -0.6024,-3.42142 m -2.2323,3.92138 2.8347,-0.49996 m -0.6839,12.71374 -2.1508,-12.21378 m 4.989,11.71346 -2.8382,0.50032 m 5.9209,16.97811 -3.0827,-17.47843 m 0.2445,17.97839 2.8382,-0.49996 m -0.6839,12.71374 -2.1543,-12.21378 m 4.989,11.71346 -2.8347,0.50032 m -274.6807,-23.59595 -0.6059,-3.42142 m 49.3512,-5.17429 -48.7453,8.59571 m 48.1429,-12.01677 0.6024,3.42106 m 2.2358,-3.92137 -2.8382,0.50031 m 0.6839,-12.71374 2.1543,12.21343 m -4.9925,-11.71347 2.8382,-0.49996 m -5.9173,-16.97811 3.0791,17.47807 m -0.2445,-17.97839 -2.8346,0.50032 m 0.6803,-12.71374 2.1543,12.21342 m -4.9889,-11.71346 2.8346,-0.49996 m -3.437,-2.9211 0.6024,3.42106 m -49.3512,5.17429 48.7488,-8.59535 m -48.1465,12.01677 -0.6023,-3.42142 m -2.2323,3.92138 2.8346,-0.49996 m -0.6838,12.71374 -2.1508,-12.21378 m 4.989,11.71347 -2.8382,0.50031 m 5.9208,16.97811 -3.0826,-17.47842 m 0.2445,17.97838 2.8381,-0.49996 m -0.6838,12.71374 -2.1543,-12.21378 m 4.9889,11.71346 -2.8346,0.50032 m 135.4252,-23.94957 -0.6059,-3.42106 m 49.3512,-5.17429 -48.7453,8.59535 m 48.1429,-12.01677 0.6024,3.42142 m 2.2358,-3.92138 -2.8382,0.49996 m 0.6839,-12.71338 2.1543,12.21342 m -4.9925,-11.71346 2.8382,-0.49996 m -5.9174,-16.97847 3.0792,17.47843 m -0.2445,-17.97839 -2.8347,0.49996 m 0.6803,-12.71374 2.1544,12.21378 m -4.989,-11.71346 2.8346,-0.50032 m -3.437,-2.9211 0.6024,3.42142 m -49.3512,5.17429 48.7488,-8.59571 m -48.1464,12.01677 -0.6024,-3.42106 m -2.2323,3.92137 2.8347,-0.50031 m -0.6839,12.71374 -2.1508,-12.21343 m 4.989,11.71347 -2.8382,0.49996 m 5.9209,16.97847 -3.0827,-17.47843 m 0.2445,17.97839 2.8382,-0.49996 m -0.6839,12.71338 -2.1543,-12.21342 m 4.989,11.71346 -2.8347,0.49996 m 71.5855,1.69902 -0.6024,-3.42107 m 49.3512,-5.17429 -48.7488,8.59536 m 48.1464,-12.01677 0.6024,3.42141 m 2.2323,-3.92138 -2.8347,0.49997 m 0.6803,-12.71339 2.1544,12.21342 m -4.989,-11.71346 2.8346,-0.49996 m -5.9173,-16.97847 3.0827,17.47843 m -0.248,-17.97839 -2.8347,0.49996 m 0.6839,-12.71374 2.1508,12.21378 m -4.989,-11.71346 2.8382,-0.50032 m -3.4406,-2.9211 0.6024,3.42142 m -49.3512,5.17429 48.7488,-8.59571 m -48.1464,12.01713 -0.6024,-3.42142 m -2.2323,3.92138 2.8347,-0.49996 m -0.6804,12.71338 -2.1543,-12.21342 m 4.989,11.71346 -2.8347,0.49996 m 5.9174,16.97847 -3.0827,-17.47843 m 0.248,17.97839 2.8347,-0.49996 m -0.6839,12.71338 -2.1508,-12.21342 m 4.989,11.71346 -2.8382,0.49996 m -134.0823,-1.61362 -0.6023,-3.42106 m 49.3511,-5.17429 -48.7488,8.59535 m 48.1465,-12.01677 0.6023,3.42142 m 2.2323,-3.92138 -2.8346,0.49996 m 0.6803,-12.71374 2.1543,12.21378 m -4.9889,-11.71346 2.8346,-0.50032 m -5.9173,-16.97811 3.0827,17.47843 m -0.2445,-17.97875 -2.8382,0.50032 m 0.6838,-12.71374 2.1544,12.21342 m -4.9926,-11.71346 2.8382,-0.49996 m -3.4405,-2.9211 0.6023,3.42106 m -49.3511,5.17465 48.7488,-8.59571 m -48.1429,12.01677 -0.6059,-3.42106 m -2.2323,3.92102 2.8382,-0.49996 m -0.6839,12.71374 -2.1543,-12.21378 m 4.989,11.71382 -2.8347,0.49996 m 5.9173,16.97811 -3.0826,-17.47807 m 0.248,17.97838 2.8346,-0.50031 m -0.6838,12.71374 -2.1508,-12.21343 m 4.989,11.71347 -2.8382,0.49996 m -134.0823,-1.61362 -0.6024,-3.42142 m 49.3512,-5.17429 -48.7488,8.59571 m 48.1465,-12.01677 0.6023,3.42106 m 2.2323,-3.92138 -2.8346,0.50032 m 0.6803,-12.71374 2.1543,12.21342 m -4.989,-11.71346 2.8347,-0.49996 m -5.9174,-16.97811 3.0827,17.47807 m -0.2445,-17.97839 -2.8382,0.50032 m 0.6839,-12.71374 2.1543,12.21342 m -4.9925,-11.71346 2.8382,-0.49996 m -3.4406,-2.92111 0.6024,3.42107 m -49.3512,5.17429 48.7488,-8.59536 m -48.1429,12.01678 -0.6059,-3.42142 m -2.2323,3.92138 2.8382,-0.49996 m -0.6838,12.71373 -2.1544,-12.21377 m 4.989,11.71346 -2.8346,0.50031 m 5.9173,16.97811 -3.0827,-17.47842 m 0.2481,17.97839 2.8346,-0.49997 m -0.6803,12.71374 -2.1543,-12.21377 m 4.9889,11.71346 -2.8346,0.50031 m 344.7815,0.30012 -0.6024,-3.42106 m 49.3512,-5.17429 -48.7488,8.59535 m 48.1464,-12.01677 0.6024,3.42142 m 2.2323,-3.92138 -2.8347,0.49996 m 0.6839,-12.71374 2.1508,12.21378 m -4.989,-11.71346 2.8382,-0.50032 m -5.9209,-16.97811 3.0827,17.47843 m -0.2445,-17.97839 -2.8382,0.49996 m 0.6839,-12.71374 2.1543,12.21378 m -4.989,-11.71346 2.8347,-0.50032 m -3.4406,-2.9211 0.6059,3.42142 m -49.3511,5.17429 48.7452,-8.59571 m -48.1429,12.01677 -0.6023,-3.42106 m -2.2359,3.92138 2.8382,-0.50032 m -0.6838,12.71374 -2.1544,-12.21342 m 4.9926,11.71346 -2.8382,0.49996 m 5.9173,16.97811 -3.0791,-17.47807 m 0.2444,17.97839 2.8347,-0.50032 m -0.6803,12.71374 -2.1544,-12.21342 m 4.989,11.71346 -2.8346,0.49996 m -274.6843,-23.59594 -0.6023,-3.42107 m 49.3511,-5.17429 -48.7488,8.59536 m 48.1465,-12.01678 0.6023,3.42142 m 2.2323,-3.92138 -2.8346,0.49996 m 0.6838,-12.71374 2.1508,12.21378 m -4.989,-11.71346 2.8382,-0.50032 m -5.9208,-16.97811 3.0826,17.47843 m -0.2444,-17.97839 -2.8382,0.49996 m 0.6838,-12.71374 2.1544,12.21378 m -4.989,-11.71346 2.8346,-0.50032 m -3.4405,-2.9211 0.6059,3.42142 m -49.3512,5.17429 48.7453,-8.59571 m -48.1429,12.01677 -0.6024,-3.42106 m -2.2358,3.92138 2.8382,-0.50032 m -0.6839,12.71374 -2.1543,-12.21342 m 4.9925,11.71346 -2.8382,0.49996 m 5.9173,16.97811 -3.0791,-17.47807 m 0.2445,17.97839 2.8346,-0.50032 m -0.6803,12.71374 -2.1543,-12.21342 m 4.989,11.71346 -2.8347,0.49996 m 135.4217,-23.94921 -0.6024,-3.42142 m 49.3512,-5.17429 -48.7488,8.59571 m 48.1464,-12.01677 0.6024,3.42106 m 2.2323,-3.92138 -2.8347,0.50032 m 0.6839,-12.71374 2.1508,12.21342 m -4.989,-11.71311 2.8382,-0.50031 m -5.9209,-16.97811 3.0827,17.47842 m -0.2445,-17.97874 -2.8382,0.50032 m 0.6839,-12.71374 2.1543,12.21342 m -4.989,-11.71346 2.8347,-0.49996 m -3.4406,-2.9211 0.6059,3.42106 m -49.3512,5.17464 48.7453,-8.5957 m -48.1429,12.01677 -0.6024,-3.42107 m -2.2358,3.92103 2.8382,-0.49996 m -0.6838,12.71374 -2.1544,-12.21378 m 4.9925,11.71346 -2.8381,0.50032 m 5.9173,16.97811 -3.0792,-17.47843 m 0.2445,17.97874 2.8347,-0.50031 m -0.6803,12.71374 -2.1544,-12.21343 m 4.989,11.71311 -2.8346,0.50032 m 71.5854,1.69901 -0.6059,-3.42141 m 49.3512,-5.17429 -48.7453,8.5957 m 48.1429,-12.01677 0.6024,3.42107 m 2.2358,-3.92138 -2.8382,0.50031 m 0.6839,-12.71374 2.1543,12.21343 m -4.9925,-11.71311 2.8382,-0.50032 m -5.9174,-16.97811 3.0792,17.47843 m -0.2445,-17.97874 -2.8347,0.50031 m 0.6804,-12.71374 2.1543,12.21343 m -4.989,-11.71347 2.8347,-0.49996 m -3.4371,-2.9211 0.6024,3.42106 m -49.3512,5.17465 48.7488,-8.59571 m -48.1464,12.01677 -0.6024,-3.42106 m -2.2323,3.92102 2.8347,-0.49996 m -0.6839,12.71374 -2.1508,-12.21378 m 4.989,11.71347 -2.8382,0.50031 m 5.9209,16.97811 -3.0827,-17.47842 m 0.2445,17.97874 2.8382,-0.50032 m -0.6839,12.71374 -2.1543,-12.21342 m 4.989,11.71311 -2.8347,0.50031 m -134.0822,-1.61362 -0.6024,-3.42142 m 49.3512,-5.17429 -48.7488,8.59571 m 48.1429,-12.01677 0.6059,3.42106 m 2.2323,-3.92138 -2.8382,0.50032 m 0.6838,-12.71374 2.1544,12.21342 m -4.989,-11.71346 2.8346,-0.49996 m -5.9173,-16.97847 3.0827,17.47843 m -0.248,-17.97839 -2.8347,0.49996 m 0.6803,-12.71338 2.1544,12.21342 m -4.989,-11.71346 2.8346,-0.49996 m -3.437,-2.9211 0.6024,3.42106 m -49.3512,5.17429 48.7488,-8.59535 m -48.1464,12.01677 -0.6024,-3.42142 m -2.2323,3.92138 2.8347,-0.49996 m -0.6804,12.71338 -2.1543,-12.21342 m 4.989,11.71346 -2.8347,0.49996 m 5.9174,16.97847 -3.0827,-17.47843 m 0.2445,17.97839 2.8382,-0.49996 m -0.6839,12.71374 -2.1543,-12.21378 m 4.9925,11.71346 -2.8382,0.50032 m -134.0823,-1.61398 -0.6023,-3.42106 m 49.3511,-5.17429 -48.7488,8.59535 m 48.1429,-12.01677 0.6059,3.42142 m 2.2323,-3.92138 -2.8382,0.49996 m 0.6839,-12.71339 2.1543,12.21343 m -4.989,-11.71347 2.8347,-0.49996 m -5.9173,-16.97846 3.0826,17.47842 m -0.248,-17.97838 -2.8346,0.49996 m 0.6838,-12.71374 2.1508,12.21378 m -4.989,-11.71347 2.8382,-0.50031 m -3.4405,-2.9211 0.6023,3.42141 m -49.3511,5.1743 48.7488,-8.59571 m -48.1465,12.01677 -0.6023,-3.42106 m -2.2323,3.92137 2.8346,-0.50031 m -0.6803,12.71374 -2.1543,-12.21343 m 4.989,11.71347 -2.8347,0.49996 m 5.9173,16.97846 -3.0826,-17.47842 m 0.2444,17.97838 2.8382,-0.49996 m -0.6838,12.71339 -2.1544,-12.21343 m 4.9926,11.71347 -2.8382,0.49996 m 344.785,0.30047 -0.6024,-3.42142 m 49.3512,-5.17429 -48.7488,8.59571 m 48.1465,-12.01677 0.6023,3.42106 m 2.2323,-3.92137 -2.8346,0.50031 m 0.6803,-12.71374 2.1543,12.21343 m -4.989,-11.71347 2.8347,-0.49996 m -5.9173,-16.97811 3.0826,17.47807 m -0.248,-17.97839 -2.8346,0.50032 m 0.6838,-12.71374 2.1508,12.21342 m -4.989,-11.71346 2.8382,-0.49996 m -3.4405,-2.9211 0.6023,3.42106 m -49.3512,5.17429 48.7489,-8.59535 m -48.1465,12.01677 -0.6024,-3.42142 m -2.2322,3.92138 2.8346,-0.49996 m -0.6803,12.71374 -2.1543,-12.21378 m 4.9889,11.71346 -2.8346,0.50032 m 5.9173,16.97811 -3.0827,-17.47843 m 0.2481,17.97839 2.8346,-0.49996 m -0.6838,12.71374 -2.1508,-12.21378 m 4.9889,11.71346 -2.8381,0.50032 m -274.6807,-23.59595 -0.6024,-3.42141 m 49.3512,-5.17429 -48.7488,8.5957 m 48.1464,-12.01677 0.6024,3.42107 m 2.2323,-3.92138 -2.8347,0.50031 m 0.6803,-12.71374 2.1544,12.21343 m -4.989,-11.71347 2.8346,-0.49996 m -5.9173,-16.97882 3.0827,17.47878 m -0.2481,-17.97838 -2.8346,0.4996 m 0.6839,-12.71338 2.1507,12.21378 m -4.9889,-11.71418 2.8382,-0.4996 m -3.4406,-2.91969 0.6024,3.41929 m -49.3512,5.17678 48.7488,-8.59607 m -48.1464,12.01536 -0.6024,-3.41929 m -2.2323,3.91889 2.8347,-0.4996 m -0.6804,12.71409 -2.1543,-12.21449 m 4.989,11.71418 -2.8347,0.50031 m 5.9174,16.97811 -3.0827,-17.47842 m 0.248,17.97838 2.8347,-0.49996 m -0.6839,12.71374 -2.1508,-12.21378 m 4.989,11.71347 -2.8382,0.50031 m 135.4252,-23.94956 -0.6024,-3.42107 m 49.3512,-5.17429 -48.7488,8.59536 m 48.1465,-12.01819 0.6023,3.42283 m 2.2323,-3.92244 -2.8346,0.49961 m 0.6803,-12.71339 2.1543,12.21378 m -4.989,-11.71063 2.8347,-0.50315 m -5.9174,-16.97598 3.0827,17.47913 m -0.248,-17.97874 -2.8347,0.49961 m 0.6839,-12.71339 2.1508,12.21378 m -4.989,-11.71417 2.8382,-0.49961 m -3.4405,-2.92323 0.6023,3.42284 m -49.3512,5.17323 48.7489,-8.59607 m -48.143,12.0189 -0.6059,-3.42283 m -2.2322,3.92244 2.8381,-0.49961 m -0.6838,12.71338 -2.1543,-12.21377 m 4.9889,11.71417 -2.8346,0.4996 m 5.9173,16.97599 -3.0827,-17.47559 m 0.2481,17.97874 2.8346,-0.50315 m -0.6839,12.7148 -2.1507,-12.21165 m 4.9889,11.71169 -2.8382,0.49996 m 71.5855,1.69902 -0.6024,-3.42106 m 49.3512,-5.17465 -48.7488,8.59571 m 48.1464,-12.015 0.6024,3.41929 m 2.2323,-3.92244 -2.8347,0.50315 m 0.6839,-12.71693 2.1508,12.21378 m -4.989,-11.71063 2.8382,-0.50315 m -5.9209,-16.97599 3.0827,17.47914 m -0.2445,-17.97874 -2.8382,0.4996 m 0.6839,-12.71338 2.1543,12.21378 m -4.989,-11.71417 2.8347,-0.49961 m -3.4406,-2.92323 0.6059,3.42284 m -49.3511,5.17322 48.7452,-8.59606 m -48.1429,12.0189 -0.6023,-3.42284 m -2.2359,3.92244 2.8382,-0.4996 m -0.6838,12.71338 -2.1544,-12.21378 m 4.9926,11.71418 -2.8382,0.4996 m 5.9173,16.97599 -3.0791,-17.47559 m 0.2444,17.97874 2.8347,-0.50315 m -0.6803,12.71516 -2.1544,-12.21201 m 4.989,11.71205 -2.8346,0.49996 m -134.0823,-1.61363 -0.6059,-3.42106 m 49.3512,-5.17535 -48.7453,8.59641 m 48.1429,-12.0157 0.6024,3.41929 m 2.2322,-3.9189 -2.8346,0.49961 m 0.6839,-12.71339 2.1507,12.21378 m -4.9889,-11.71417 2.8382,-0.49961 m -5.9209,-16.97953 3.0827,17.47914 m -0.2445,-17.97874 -2.8382,0.4996 m 0.6839,-12.71338 2.1543,12.21378 m -4.989,-11.71418 2.8347,-0.4996 m -3.4406,-2.91969 0.6059,3.41929 m -49.3512,5.17323 48.7453,-8.59252 m -48.1429,12.01535 -0.6024,-3.42283 m -2.2358,3.92244 2.8382,-0.49961 m -0.6839,12.71339 -2.1543,-12.21378 m 4.9925,11.71418 -2.8382,0.4996 m 5.9174,16.97953 -3.0792,-17.47913 m 0.2445,17.97874 2.8347,-0.49961 m -0.6804,12.71232 -2.1543,-12.21271 m 4.989,11.71275 -2.8347,0.49996 m 207.2622,-4.23319 -0.6059,-3.42283 m 49.3512,-5.17323 -48.7453,8.59606 m 48.143,-12.0189 0.6023,3.42284 m 2.2358,-3.92244 -2.8381,0.4996 m 0.6838,-12.71338 2.1543,12.21378 m -4.9925,-11.71417 2.8382,-0.49961 m -5.9173,-16.97598 3.0791,17.47559 m -0.2445,-17.97874 -2.8346,0.50315 m 0.6803,-12.71693 2.1543,12.21378 m -4.9889,-11.71064 2.8346,-0.50314 m -3.437,-2.91969 0.6024,3.42283 m -49.3512,5.17323 48.7488,-8.59606 m -48.1465,12.01535 -0.6023,-3.41929 m -2.2323,3.92245 2.8346,-0.50316 m -0.6838,12.71693 -2.1508,-12.21377 m 4.989,11.71063 -2.8382,0.50314 m 5.9208,16.97599 -3.0826,-17.47913 m 0.2445,17.97873 2.8381,-0.4996 m -0.6838,12.71338 -2.1543,-12.21378 m 4.9889,11.71418 -2.8346,0.4996 m -318.70135,-74.03031 -0.6661,-0.0532 m 1.3323,0.0213 -0.6662,0.0319 m 1.3217,-0.14883 -0.6555,0.11693 m 1.2933,-0.31536 -0.6378,0.19843 m 1.2472,-0.4748 -0.6094,0.27637 m 1.1763,-0.62362 -0.5669,0.34725 m 1.0878,-0.76536 -0.5209,0.41811 m 0.9851,-0.9 -0.4642,0.48189 m 0.8646,-1.01693 -0.4004,0.53504 m 0.7299,-1.11614 -0.3295,0.5811 m 0.5846,-1.19763 -0.2551,0.61653 m 0.4287,-1.25787 -0.1736,0.64134 m 0.2658,-1.30394 -0.092,0.6626 m 0.1026,-1.32874 -0.011,0.66614 m -0.0634,-1.33228 0.074,0.66614 m -0.2299,-1.31457 0.1559,0.64843 m -0.3933,-1.27205 0.2374,0.62362 m -0.5528,-1.21181 0.3154,0.58819 m -0.698,-1.13386 0.3826,0.54567 m -0.8326,-1.03819 0.45,0.49252 m -0.9603,-0.9248 0.5103,0.43228 m -1.0666,-0.79724 0.5563,0.36496 m -1.1586,-0.65906 0.6023,0.2941 m -1.2331,-0.51024 0.6308,0.21614 m -1.2863,-0.35079 0.6555,0.13465 m -1.3181,-0.18425 0.6626,0.0496 m -1.3323,-0.0177 0.6697,-0.0319 m -1.3252,0.14883 0.6555,-0.11693 m -1.2933,0.31535 0.6378,-0.19842 m -1.2472,0.47126 0.6094,-0.27284 m -1.1763,0.62362 0.5669,-0.35078 m -1.0878,0.76889 0.5209,-0.41811 m -0.9851,0.9 0.4642,-0.48189 m -0.8646,1.01693 0.4004,-0.53504 m -0.7299,1.1126 0.3295,-0.57756 m -0.5811,1.19764 0.2516,-0.62008 m -0.4287,1.26142 0.1771,-0.64134 m -0.2693,1.30394 0.092,-0.6626 m -0.1026,1.32874 0.011,-0.66614 m 0.0634,1.32874 -0.074,-0.6626 m 0.2335,1.31102 -0.1595,-0.64842 m 0.3969,1.27559 -0.2374,-0.62717 m 0.5492,1.21536 -0.3118,-0.58819 m 0.698,1.13386 -0.3862,-0.54567 m 0.8362,1.03819 -0.45,-0.49252 m 0.9567,0.9248 -0.5067,-0.43228 m 1.0665,0.79724 -0.5598,-0.36496 m 1.1587,0.65906 -0.5989,-0.2941 m 1.2296,0.50669 -0.6307,-0.21259 m 1.2862,0.34724 -0.6555,-0.13465 m 380.99265,0.1878 -0.6662,-0.0532 m 1.3323,0.0213 -0.6661,0.0319 m 1.3252,-0.14883 -0.6591,0.11693 m 1.2969,-0.31536 -0.6378,0.19843 m 1.2437,-0.4748 -0.6059,0.27637 m 1.1763,-0.62362 -0.5704,0.34725 m 1.0878,-0.76536 -0.5174,0.41811 m 0.9815,-0.9 -0.4641,0.48189 m 0.8645,-1.01693 -0.4004,0.53504 m 0.73,-1.11614 -0.3296,0.5811 m 0.5847,-1.19763 -0.2551,0.61653 m 0.4287,-1.25787 -0.1736,0.64134 m 0.2693,-1.30394 -0.096,0.6626 m 0.1031,-1.32874 -0.01,0.66614 m -0.0645,-1.33228 0.074,0.66614 m -0.2299,-1.31457 0.1559,0.64843 m -0.3933,-1.27205 0.2374,0.62362 m -0.5492,-1.21181 0.3118,0.58819 m -0.698,-1.13386 0.3862,0.54567 m -0.8362,-1.03819 0.45,0.49252 m -0.9567,-0.9248 0.5067,0.43228 m -1.0665,-0.79724 0.5598,0.36496 m -1.1586,-0.65906 0.5988,0.2941 m -1.2331,-0.51024 0.6343,0.21614 m -1.2863,-0.34724 0.652,0.1311 m -1.3181,-0.18425 0.6661,0.0531 m -1.3322,-0.0212 0.6661,-0.0319 m -1.3252,0.14883 0.6591,-0.11693 m -1.2969,0.31535 0.6378,-0.19842 m -1.2437,0.47126 0.6059,-0.27284 m -1.1764,0.62362 0.5705,-0.35078 m -1.0878,0.76889 0.5173,-0.41811 m -0.9815,0.9 0.4642,-0.48189 m -0.8646,1.01693 0.4004,-0.53504 m -0.7299,1.1126 0.3295,-0.57756 m -0.5846,1.19764 0.2551,-0.62008 m -0.4287,1.26142 0.1736,-0.64134 m -0.2693,1.30394 0.096,-0.6626 m -0.1031,1.32874 0.01,-0.66614 m 0.0644,1.32874 -0.074,-0.6626 m 0.2299,1.31102 -0.1559,-0.64842 m 0.3933,1.27559 -0.2374,-0.62717 m 0.5492,1.21536 -0.3118,-0.58819 m 0.6981,1.13386 -0.3863,-0.54567 m 0.8363,1.03819 -0.45,-0.49252 m 0.9567,0.9248 -0.5067,-0.43228 m 1.0665,0.79724 -0.5598,-0.36496 m 1.1586,0.65906 -0.5988,-0.2941 m 1.2331,0.50669 -0.6343,-0.21259 m 1.2862,0.34724 -0.6519,-0.13465 m -356.8536,457.44284 2.6681,-0.1304 m 358.5366,-483.49393 -2.661,-0.20551 m 5.276,0.74409 -2.615,-0.53858 m 5.1414,1.3996 -2.5264,-0.86102 m 4.9287,2.03032 -2.4023,-1.1693 m 4.6346,2.63268 -2.2323,-1.46338 m 4.2662,3.19251 -2.0339,-1.72913 m 3.8339,3.69921 -1.8,-1.97008 m 3.3378,4.15276 -1.5378,-2.18268 m 2.7921,4.53898 -1.2543,-2.3563 m 2.2039,4.85433 -0.9496,-2.49803 m 1.5768,5.09173 -0.6272,-2.5937 m 63.4571,358.91788 -62.8299,-356.32418 m 63.1275,358.9774 -0.2976,-2.65322 m 0.2587,5.32275 0.039,-2.66953 m -0.4111,5.31355 0.3721,-2.64402 m -1.0701,5.22036 0.698,-2.57634 m -1.7149,5.0446 1.0169,-2.46826 m -2.3386,4.78984 1.3217,-2.32158 m -2.9197,4.45926 1.598,-2.13768 m -3.4512,4.05815 1.8532,-1.92047 m -3.9366,3.59362 2.0834,-1.67315 m -4.3547,3.07205 2.2713,-1.3989 m -4.702,2.50193 2.4307,-1.10303 m -4.9819,1.89248 2.5512,-0.78945 m -423.3295,85.77777 420.7783,-84.98832 m -423.4075,85.45192 2.6292,-0.4636 m -230.7057,-15.3493 -0.6661,-0.033 m 1.3322,-0.0182 -0.6661,0.051 m 1.3181,-0.1852 -0.652,0.1342 m 1.2863,-0.3493 -0.6343,0.2151 m 1.2331,-0.5077 -0.5988,0.2926 m 1.1586,-0.6581 -0.5598,0.3655 m 1.0665,-0.7981 -0.5067,0.4326 m 0.9567,-0.9255 -0.45,0.4929 m 0.8362,-1.0383 -0.3862,0.5454 m 0.698,-1.1347 -0.3118,0.5893 m 0.5493,-1.2132 -0.2374,0.6239 m 0.3933,-1.2727 -0.1559,0.6488 m 0.2303,-1.3121 -0.074,0.6633 m 0.0669,-1.3307 0.01,0.6674 m -0.1022,-1.3283 0.092,0.6609 m -0.2691,-1.305 0.1771,0.6441 m -0.4322,-1.2612 0.2551,0.6171 m -0.5847,-1.1975 0.3296,0.5804 m -0.73,-1.1148 0.4004,0.5344 m -0.861,-1.0145 0.4606,0.4801 m -0.9814,-0.8983 0.5208,0.4182 m -1.0913,-0.768 0.5705,0.3498 m -1.1764,-0.6255 0.6059,0.2757 m -1.2437,-0.4731 0.6378,0.1974 m -1.2969,-0.3133 0.6591,0.1159 m -1.3252,-0.1485 0.6661,0.033 m -1.3323,0.0182 0.6662,-0.051 m -1.3181,0.1852 0.6519,-0.1342 m -1.2826,0.3493 0.6307,-0.2151 m -1.2331,0.5077 0.6024,-0.2926 m -1.1587,0.6581 0.5563,-0.3655 m -1.0665,0.798 0.5102,-0.4325 m -0.9602,0.9254 0.45,-0.4929 m -0.8327,1.0384 0.3827,-0.5455 m -0.6981,1.1348 0.3154,-0.5893 m -0.5528,1.2132 0.2374,-0.6239 m -0.3933,1.2726 0.1559,-0.6487 m -0.2303,1.312 0.074,-0.6633 m -0.0633,1.3307 -0.011,-0.6674 m 0.1031,1.3284 -0.092,-0.661 m 0.2656,1.3051 -0.1736,-0.6441 m 0.4287,1.2611 -0.2551,-0.617 m 0.5846,1.1974 -0.3295,-0.5804 m 0.7299,1.1149 -0.4004,-0.5345 m 0.8646,1.0147 -0.4642,-0.4802 m 0.9815,0.8984 -0.5173,-0.4182 m 1.0878,0.7679 -0.5705,-0.3497 m 1.1764,0.6255 -0.6059,-0.2758 m 1.2437,0.4731 -0.6378,-0.1973 m 1.2969,0.3132 -0.6591,-0.1159 m -16.2,-30.0899 -48.7488,-8.59558 m 49.3512,5.17435 -0.6024,3.42123 m 3.437,-2.92113 -2.8346,-0.5001 m 4.9889,-11.71345 -2.1543,12.21355 m -0.6803,-12.71385 2.8346,0.5003 m 0.2481,-17.97835 -3.0827,17.47805 m 5.9173,-16.97808 -2.8346,-0.49997 m 4.989,-11.71346 -2.1544,12.21343 m -0.6838,-12.71374 2.8382,0.50031 m -2.2323,-3.92138 -0.6059,3.42107 m -48.1429,-12.01678 48.7488,8.59571 m -49.3512,-5.17429 0.6024,-3.42142 m -3.4406,2.92111 2.8382,0.50031 m -4.9925,11.71347 2.1543,-12.21378 m 0.6839,12.71374 -2.8382,-0.49996 m -0.2445,17.97841 3.0827,-17.47845 m -5.9174,16.97815 2.8347,0.5003 m -4.989,11.7134 2.1543,-12.2137 m 0.6804,12.7137 -2.8347,-0.5 m 2.2323,3.9213 0.6024,-3.4213 m -355.1067,-42.733 -0.6661,-0.0326 m 1.3323,-0.0188 -0.6662,0.0514 m 1.3181,-0.1857 -0.6519,0.1343 m 1.2862,-0.34937 -0.6343,0.21507 m 1.2331,-0.5074 -0.5988,0.29233 m 1.1586,-0.658 -0.5598,0.36567 m 1.0665,-0.7983 -0.5067,0.43263 m 0.9567,-0.92551 -0.45,0.49288 m 0.8362,-1.03819 -0.3862,0.54531 m 0.6981,-1.13456 -0.3119,0.58925 m 0.5493,-1.21323 -0.2374,0.62398 m 0.3933,-1.27276 -0.1559,0.64878 m 0.2303,-1.31209 -0.074,0.66331 m 0.0669,-1.33087 0.01,0.66756 m -0.1057,-1.32838 0.096,0.66082 m -0.2696,-1.305 0.1736,0.64418 m -0.4287,-1.26107 0.2551,0.61689 m -0.5846,-1.19728 0.3295,0.58039 m -0.7299,-1.11508 0.4004,0.53469 m -0.8611,-1.0148 0.4607,0.48011 m -0.9815,-0.89822 0.5208,0.41811 m -1.0913,-0.76784 0.5705,0.34973 m -1.1764,-0.6254 0.6059,0.27567 m -1.2437,-0.47303 0.6378,0.19736 m -1.2969,-0.31323 0.6591,0.11587 m -1.3252,-0.14846 0.6661,0.0326 m -1.3322,0.0184 0.6661,-0.051 m -1.3181,0.18529 0.652,-0.13429 m -1.2827,0.34937 0.6307,-0.21508 m -1.2331,0.50776 0.6024,-0.29268 m -1.1587,0.65799 0.5563,-0.36531 m -1.0665,0.79795 0.5102,-0.43264 m -0.9602,0.92551 0.45,-0.49287 m -0.8327,1.03819 0.3827,-0.54532 m -0.6981,1.13492 0.3154,-0.5896 m -0.5528,1.21323 0.2374,-0.62363 m -0.3933,1.27241 0.1559,-0.64878 m -0.2303,1.31208 0.074,-0.6633 m -0.0633,1.33086 -0.011,-0.66756 m 0.1031,1.32839 -0.092,-0.66083 m 0.2656,1.305 -0.1736,-0.64417 m 0.4287,1.26142 -0.2551,-0.61725 m 0.5847,1.19729 -0.3296,-0.58004 m 0.7299,1.11472 -0.4003,-0.53468 m 0.8645,1.0148 -0.4642,-0.48012 m 0.9815,0.89823 -0.5173,-0.41811 m 1.0878,0.76783 -0.5705,-0.34972 m 1.1764,0.62575 -0.6059,-0.27603 m 1.2437,0.47339 -0.6378,-0.19736 m 1.2969,0.31323 -0.6591,-0.11587 m 476.7236,33.43886 -48.7488,-8.59567 m 49.3511,5.17427 -0.6023,3.4214 m 3.437,-2.9211 -2.8347,-0.5003 m 4.989,-11.71344 -2.1543,12.21374 m -0.6803,-12.71371 2.8346,0.49997 m 0.2481,-17.97839 -3.0827,17.47842 m 5.9173,-16.97846 -2.8346,-0.49996 m 4.9889,-11.71347 -2.1543,12.21343 m -0.6839,-12.71339 2.8382,0.49996 m -2.2323,-3.92137 -0.6059,3.42141 m -48.1429,-12.01677 48.7488,8.59536 m -49.3511,-5.1743 0.6023,-3.42106 m -3.4405,2.9211 2.8382,0.49996 m -4.9926,11.71347 2.1544,-12.21343 m 0.6838,12.71339 -2.8382,-0.49996 m -0.2445,17.97839 3.0827,-17.47843 m -5.9173,16.97846 2.8346,0.49997 m -4.9889,11.71346 2.1543,-12.21343 m 0.6803,12.71375 -2.8346,-0.50032 m 2.2323,3.92138 0.6023,-3.42106 m -87.222,4.33842 -48.748797,-8.59571 m 49.351097,5.17429 -0.6023,3.42142 m 3.437,-2.9211 -2.8347,-0.50032 m 4.989,-11.71346 -2.1543,12.21378 m -0.6803,-12.71374 2.8346,0.49996 m 0.2445,-17.97839 -3.0791,17.47843 m 5.9173,-16.97847 -2.8382,-0.49996 m 4.9925,-11.71346 -2.1543,12.21342 m -0.6839,-12.71338 2.8382,0.49996 m -2.2323,-3.92138 -0.6059,3.42142 m -48.1429,-12.01677 48.7488,8.59535 m -49.3511,-5.17429 0.6023,-3.42106 m -3.4405,2.9211 2.8382,0.49996 m -4.992597,11.71346 2.154397,-12.21342 m 0.6838,12.71338 -2.838197,-0.49996 m -0.2444,17.97839 3.082597,-17.47843 m -5.917297,16.97847 2.8347,0.49996 m -4.989,11.71346 2.1543,-12.21342 m 0.6803,12.71374 -2.8346,-0.50032 m 2.2323,3.92138 0.6023,-3.42106 m -83.838206,-14.8539 -48.7488,-8.59535 m 49.3512,5.17429 -0.6024,3.42106 m 3.437,-2.9211 -2.8346,-0.49996 m 4.989,-11.71347 -2.1544,12.21343 m -0.6803,-12.71374 2.8347,0.50031 m 0.2445,-17.97838 -3.0792,17.47807 m 5.9174,-16.97811 -2.8382,-0.49996 m 4.9925,-11.71347 -2.1543,12.21343 m -0.6839,-12.71374 2.8382,0.50031 m -2.2358,-3.92138 -0.6024,3.42107 m -48.1429,-12.01677 48.7453,8.5957 m -49.3512,-5.17429 0.6059,-3.42141 m -3.4406,2.9211 2.8347,0.50031 m -4.989,11.71347 2.1543,-12.21378 m 0.6839,12.71374 -2.8382,-0.49996 m -0.2445,17.97838 3.0827,-17.47842 m -5.9209,16.97811 2.8382,0.50031 m -4.989,11.71347 2.1508,-12.21378 m 0.6839,12.71374 -2.8347,-0.49996 m 2.2323,3.92138 0.6024,-3.42142 m -20.002,10.79469 -48.745297,-8.59536 m 49.351197,5.17429 -0.6059,3.42107 m 3.4406,-2.92111 -2.8347,-0.49996 m 4.989,-11.71346 -2.1543,12.21342 m -0.6839,-12.71374 2.8382,0.50032 m 0.2445,-17.97839 -3.0827,17.47807 m 5.9209,-16.97811 -2.8382,-0.49996 m 4.989,-11.71346 -2.1508,12.21342 m -0.6839,-12.71374 2.8347,0.50032 m -2.2323,-3.92138 -0.6024,3.42106 m -48.1464,-12.01677 48.7488,8.59571 m -49.3512,-5.17429 0.6024,-3.42142 m -3.4371,2.9211 2.8347,0.50032 m -4.988997,11.71346 2.154297,-12.21378 m 0.6804,12.71374 -2.834697,-0.49996 m -0.2445,17.97839 3.079197,-17.47843 m -5.917397,16.97811 2.8382,0.50032 m -4.9925,11.71346 2.1543,-12.21378 m 0.6839,12.71374 -2.8382,-0.49996 m 2.2358,3.92138 0.6024,-3.42142 m 185.6657,7.48205 -48.748803,-8.59571 m 49.351203,5.17465 -0.6024,3.42106 m 3.440603,-2.9211 -2.838203,-0.49996 m 4.992503,-11.71347 -2.1543,12.21343 m -0.6839,-12.71374 2.8382,0.50031 m 0.2445,-17.97874 -3.0827,17.47843 m 5.9174,-16.97811 -2.8347,-0.50032 m 4.989,-11.71346 -2.1543,12.21378 m -0.6804,-12.71374 2.8347,0.49996 m -2.2323,-3.92103 -0.6024,3.42107 m -48.146406,-12.01677 48.748806,8.5957 m -49.351206,-5.17464 0.6024,-3.42106 m -3.437,2.9211 2.8346,0.49996 m -4.9889,11.71346 2.1543,-12.21342 m 0.6803,12.71374 -2.8346,-0.50032 m -0.2445,17.97874 3.0791,-17.47842 m -5.9173,16.97811 2.8382,0.50031 m -4.9926,11.71347 2.1544,-12.21378 m 0.6838,12.71374 -2.8382,-0.49996 m 2.2323,3.92102 0.6059,-3.42106 m 185.665803,7.48205 -48.7488,-8.59571 m 49.3511,5.17429 -0.6023,3.42142 m 3.4405,-2.92111 -2.8382,-0.50031 m 4.9926,-11.71347 -2.1544,12.21378 m -0.6838,-12.71374 2.8382,0.49996 m 0.2445,-17.97838 -3.0827,17.47842 m 5.9173,-16.97846 -2.8347,-0.49996 m 4.989,-11.71347 -2.1543,12.21343 m -0.6803,-12.71339 2.8346,0.49996 m -2.2323,-3.92137 -0.6023,3.42141 m -48.1465,-12.01677 48.7488,8.59536 m -49.3511,-5.1743 0.6023,-3.42106 m -3.437,2.9211 2.8347,0.49996 m -4.989,11.71347 2.1543,-12.21343 m 0.6803,12.71339 -2.8346,-0.49996 m -0.248,17.97838 3.0826,-17.47842 m -5.9173,16.97846 2.8347,0.49996 m -4.989,11.71347 2.1543,-12.21343 m 0.6839,12.71374 -2.8382,-0.50031 m 2.2323,3.92138 0.6059,-3.42107 m -293.20161,9.39579 -48.74879,-8.59535 m 49.35119,5.17429 -0.6024,3.42106 m 3.4405,-2.9211 -2.8381,-0.49996 m 4.9889,-11.71347 -2.1508,12.21343 m -0.6838,-12.71374 2.8346,0.50031 m 0.24811,-17.97838 -3.08271,17.47807 m 5.91731,-16.97811 -2.8346,-0.49996 m 4.9889,-11.71347 -2.1543,12.21343 m -0.6803,-12.71374 2.8346,0.50031 m -2.2322,-3.92137 -0.6024,3.42106 m -48.1464,-12.01677 48.7488,8.59571 m -49.3512,-5.1743 0.6024,-3.42141 m -3.4406,2.9211 2.8382,0.50031 m -4.989,11.71311 2.1508,-12.21342 m 0.6839,12.71374 -2.8347,-0.50032 m -0.248,17.97874 3.0827,-17.47842 m -5.9173,16.97811 2.8346,0.50031 m -4.989,11.71347 2.1544,-12.21378 m 0.6838,12.71374 -2.8382,-0.49996 m 2.2323,3.92138 0.6059,-3.42142 m 326.2642,-14.50028 -48.7489,-8.5957 m 49.3512,5.17464 -0.6023,3.42106 m 3.4405,-2.9211 -2.8382,-0.49996 m 4.989,-11.71346 -2.1508,12.21342 m -0.6839,-12.71374 2.8347,0.50032 m 0.248,-17.97839 -3.0827,17.47807 m 5.9174,-16.97811 -2.8347,-0.49996 m 4.989,-11.71346 -2.1543,12.21342 m -0.6803,-12.71374 2.8346,0.50032 m -2.2323,-3.92138 -0.6023,3.42106 m -48.1465,-12.01677 48.7488,8.59571 m -49.3512,-5.17429 0.6024,-3.42142 m -3.4406,2.9211 2.8382,0.50032 m -4.9889,11.71346 2.1507,-12.21378 m 0.6839,12.71374 -2.8346,-0.49996 m -0.2481,17.97839 3.0827,-17.47843 m -5.9173,16.97811 2.8346,0.50032 m -4.989,11.71346 2.1544,-12.21378 m 0.6838,12.71374 -2.8382,-0.49996 m 2.2323,3.92103 0.6059,-3.42107 m -83.841703,-14.85354 -48.7488,-8.59571 m 49.3512,5.17429 -0.6024,3.42142 m 3.4406,-2.9211 -2.8382,-0.50032 m 4.9889,-11.71346 -2.1507,12.21378 m -0.6839,-12.71374 2.8346,0.49996 m 0.2481,-17.97839 -3.0827,17.47843 m 5.9173,-16.97811 -2.8346,-0.50032 m 4.989,-11.71346 -2.1544,12.21378 m -0.6803,-12.71374 2.8347,0.49996 m -2.2323,-3.92138 -0.6024,3.42142 m -48.1464,-12.01678 48.7488,8.59536 m -49.3512,-5.17429 0.6024,-3.42107 m -3.4406,2.92111 2.8382,0.49996 m -4.989,11.71346 2.1508,-12.21342 m 0.6839,12.71374 -2.8347,-0.50032 m -0.248,17.97839 3.0827,-17.47807 m -5.9174,16.97811 2.8347,0.49996 m -4.989,11.71346 2.1543,-12.21342 m 0.6804,12.71374 -2.8347,-0.50032 m 2.2323,3.92138 0.6024,-3.42106 m -19.9985,10.79468 -48.7488,-8.59571 m 49.3512,5.17429 -0.6024,3.42142 m 3.437,-2.9211 -2.8346,-0.50032 m 4.989,-11.71346 -2.1544,12.21378 m -0.6803,-12.71374 2.8347,0.49996 m 0.2445,-17.97839 -3.0792,17.47843 m 5.9173,-16.97811 -2.8381,-0.50032 m 4.9925,-11.71346 -2.1544,12.21378 m -0.6838,-12.71374 2.8382,0.49996 m -2.2323,-3.92102 -0.6059,3.42106 m -48.1429,-12.01677 48.7488,8.59571 m -49.3512,-5.17465 0.6024,-3.42106 m -3.4406,2.9211 2.8382,0.49996 m -4.9925,11.71347 2.1543,-12.21343 m 0.6839,12.71374 -2.8382,-0.50031 m -0.2445,17.97838 3.0827,-17.47807 m -5.9209,16.97811 2.8382,0.49996 m -4.989,11.71347 2.1508,-12.21343 m 0.6839,12.71374 -2.8347,-0.50031 m 2.2323,3.92137 0.6024,-3.42106 m 185.669306,7.48205 -48.748906,-8.59571 m 49.351206,5.17429 -0.6023,3.42142 m 3.437,-2.9211 -2.8347,-0.50032 m 4.989,-11.71346 -2.1543,12.21378 m -0.6803,-12.71374 2.8346,0.49996 m 0.2445,-17.97839 -3.0791,17.47843 m 5.917297,-16.97847 -2.838197,-0.49996 m 4.992497,-11.71346 -2.1543,12.21342 m -0.6839,-12.71339 2.8382,0.49997 m -2.2358,-3.92138 -0.6024,3.42141 m -48.142903,-12.01677 48.745303,8.59536 m -49.351203,-5.17429 0.6059,-3.42107 m -3.4405,2.92111 2.8346,0.49996 m -4.989,11.71346 2.1544,-12.21342 m 0.6838,12.71338 -2.8382,-0.49996 m -0.2445,17.97839 3.0827,-17.47843 m -5.9209,16.97847 2.8382,0.49996 m -4.9889,11.71346 2.1507,-12.21342 m 0.6839,12.71374 -2.8346,-0.50032 m 2.2322,3.92138 0.6024,-3.42106 m 185.665703,7.48169 -48.7452,-8.59536 m 49.3511,5.1743 -0.6059,3.42106 m 3.4406,-2.9211 -2.8347,-0.49996 m 4.989,-11.71347 -2.1543,12.21343 m -0.6839,-12.71339 2.8382,0.49996 m 0.2445,-17.97838 -3.0827,17.47842 m 5.9209,-16.97846 -2.8382,-0.49996 m 4.989,-11.71347 -2.1508,12.21343 m -0.6839,-12.71374 2.8347,0.50031 m -2.2323,-3.92138 -0.6024,3.42107 m -48.1429,-12.01678 48.7453,8.59571 m -49.3512,-5.17429 0.6059,-3.42142 m -3.4405,2.92111 2.8346,0.50031 m -4.9889,11.71347 2.1543,-12.21378 m 0.6838,12.71374 -2.8381,-0.49996 m -0.2445,17.97838 3.0826,-17.47842 m -5.9208,16.97811 2.8382,0.50031 m -4.9926,11.71347 2.1544,-12.21378 m 0.6838,12.71374 -2.8382,-0.49996 m 2.2359,3.92137 0.6023,-3.42141 m -293.2015,9.39614 -48.7453,-8.59571 m 49.3512,5.17429 -0.6059,3.42142 m 3.4405,-2.9211 -2.8346,-0.50032 m 4.9889,-11.71346 -2.1543,12.21378 m -0.6838,-12.71374 2.8381,0.49996 m 0.2445,-17.97839 -3.0826,17.47843 m 5.9208,-16.97811 -2.8382,-0.50032 m 4.989,-11.71346 -2.1508,12.21378 m -0.6838,-12.71374 2.8346,0.49996 m -2.2323,-3.92138 -0.6023,3.42142 m -48.1464,-12.01678 48.7487,8.59536 m -49.3511,-5.17429 0.6024,-3.42107 m -3.4371,2.92111 2.8347,0.49996 m -4.989,11.71346 2.1543,-12.21342 m 0.6804,12.71374 -2.8347,-0.50032 m -0.2445,17.97839 3.0792,-17.47807 m -5.9174,16.97811 2.8382,0.49996 m -4.9925,11.71346 2.1543,-12.21342 m 0.6839,12.71374 -2.8382,-0.50032 m 2.2358,3.92138 0.6024,-3.42106 m 326.2641,-14.50028 -48.7453,-8.59571 m 49.3512,5.17429 -0.6059,3.42142 m 3.4406,-2.9211 -2.8347,-0.50032 m 4.989,-11.71346 -2.1543,12.21378 m -0.6839,-12.71374 2.8382,0.49996 m 0.2445,-17.97838 -3.0827,17.47842 m 5.9209,-16.97811 -2.8382,-0.50031 m 4.989,-11.71347 -2.1508,12.21378 m -0.6839,-12.71374 2.8347,0.49996 m -2.2323,-3.92138 -0.6024,3.42142 m -48.1464,-12.01677 48.7488,8.59535 m -49.3512,-5.17429 0.6024,-3.42106 m -3.437,2.9211 2.8346,0.49996 m -4.989,11.71346 2.1544,-12.21342 m 0.6803,12.71374 -2.8347,-0.50032 m -0.2445,17.97839 3.0792,-17.47807 m -5.9173,16.97811 2.8381,0.49996 m -4.9925,11.71347 2.1544,-12.21343 m 0.6838,12.71374 -2.8382,-0.50031 m 2.2358,3.92137 0.6024,-3.42106 m -83.841703,-14.8539 -48.7453,-8.59535 m 49.3512,5.17429 -0.6059,3.42106 m 3.4405,-2.9211 -2.8346,-0.49996 m 4.989,-11.71346 -2.1544,12.21342 m -0.6838,-12.71338 2.8382,0.49996 m 0.2444,-17.97839 -3.0826,17.47843 m 5.9208,-16.97847 -2.8382,-0.49996 m 4.989,-11.71347 -2.1508,12.21343 m -0.6838,-12.71374 2.8346,0.50031 m -2.2323,-3.92137 -0.6023,3.42106 m -48.1465,-12.01677 48.7488,8.59571 m -49.3511,-5.17429 0.6023,-3.42142 m -3.437,2.9211 2.8347,0.50032 m -4.989,11.71346 2.1543,-12.21378 m 0.6803,12.71374 -2.8346,-0.49996 m -0.2445,17.97839 3.0791,-17.47843 m -5.9173,16.97847 2.8382,0.49996 m -4.9925,11.71346 2.1543,-12.21342 m 0.6839,12.71338 -2.8382,-0.49996 m 2.2358,3.92138 0.6024,-3.42142 m -20.002,10.79469 -48.7488,-8.59536 m 49.3512,5.17429 -0.6024,3.42107 m 3.4405,-2.92111 -2.8381,-0.49996 m 4.9889,-11.71346 -2.1508,12.21342 m -0.6838,-12.71338 2.8346,0.49996 m 0.2481,-17.97839 -3.0827,17.47843 m 5.9173,-16.97847 -2.8346,-0.49996 m 4.9889,-11.71346 -2.1543,12.21342 m -0.6803,-12.71338 2.8346,0.49996 m -2.2322,-3.92138 -0.6024,3.42142 m -48.1465,-12.01713 48.7489,8.59571 m -49.3512,-5.17429 0.6023,-3.42142 m -3.4405,2.9211 2.8382,0.50032 m -4.989,11.71346 2.1508,-12.21378 m 0.6838,12.71374 -2.8346,-0.49996 m -0.248,17.97839 3.0826,-17.47843 m -5.9173,16.97847 2.8347,0.49996 m -4.989,11.71346 2.1543,-12.21342 m 0.6803,12.71339 -2.8346,-0.49997 m 2.2323,3.92138 0.6023,-3.42141 m 185.669303,7.48204 -48.748803,-8.59535 m 49.351203,5.17429 -0.6024,3.42106 m 3.4406,-2.9211 -2.8382,-0.49996 m 4.989,-11.71347 -2.1508,12.21343 m -0.6839,-12.71374 2.8347,0.50031 m 0.248,-17.97838 -3.0827,17.47807 m 5.9173,-16.97811 -2.8346,-0.49996 m 4.989,-11.71382 -2.1544,12.21378 m -0.6838,-12.71374 2.8382,0.49996 m -2.2323,-3.92102 -0.6059,3.42106 m -48.1429,-12.01677 48.7488,8.59571 m -49.3512,-5.17465 0.6024,-3.42106 m -3.440603,2.9211 2.838203,0.49996 m -4.992503,11.71346 2.1543,-12.21342 m 0.6839,12.71374 -2.8382,-0.50032 m -0.2445,17.97875 3.0827,-17.47843 m -5.9173,16.97811 2.8346,0.50032 m -4.989,11.71346 2.1544,-12.21378 m 0.6803,12.71374 -2.8347,-0.49996 m 2.2323,3.92138 0.6024,-3.42142 m 185.669303,7.48205 -48.7489,-8.59571 m 49.3512,5.17429 -0.6023,3.42142 m 3.437,-2.92111 -2.8347,-0.50031 m 4.989,-11.71346 -2.1543,12.21377 m -0.6803,-12.71374 2.8346,0.49997 m 0.248,-17.97839 -3.0826,17.47842 m 5.9173,-16.97811 -2.8347,-0.50031 m 4.989,-11.71346 -2.1543,12.21377 m -0.6839,-12.71373 2.8382,0.49996 m -2.2323,-3.92138 -0.6059,3.42142 m -48.1429,-12.01678 48.7488,8.59536 m -49.3512,-5.17429 0.6024,-3.42107 m -3.4405,2.92111 2.8381,0.49996 m -4.9925,11.71346 2.1544,-12.21342 m 0.6838,12.71374 -2.8382,-0.50032 m -0.2445,17.97839 3.0827,-17.47807 m -5.9173,16.97811 2.8346,0.49996 m -4.9889,11.71346 2.1543,-12.21342 m 0.6803,12.71374 -2.8346,-0.50032 m 2.2322,3.92138 0.6024,-3.42106 m -293.198003,9.39578 -48.748797,-8.59535 m 49.351097,5.17429 -0.6023,3.42106 m 3.437,-2.9211 -2.8347,-0.49996 m 4.989,-11.71346 -2.1543,12.21342 m -0.6803,-12.71374 2.8346,0.50032 m 0.2445,-17.97839 -3.0791,17.47807 m 5.9173,-16.97811 -2.8382,-0.49996 m 4.9925,-11.71346 -2.1543,12.21342 m -0.6839,-12.71374 2.8382,0.50032 m -2.2358,-3.92138 -0.6024,3.42106 m -48.142797,-12.01677 48.745197,8.59571 m -49.351097,-5.17429 0.6059,-3.42142 m -3.4406,2.9211 2.8347,0.50032 m -4.989,11.71346 2.1543,-12.21378 m 0.6839,12.71374 -2.8382,-0.49996 m -0.2445,17.97839 3.0827,-17.47843 m -5.9209,16.97811 2.8382,0.50032 m -4.989,11.71346 2.1508,-12.21378 m 0.6839,12.71374 -2.8347,-0.49996 m 2.2323,3.92138 0.6024,-3.42142 m 326.2676,-14.50027 -48.7488,-8.59536 m 49.3512,5.17429 -0.6024,3.42107 m 3.437,-2.92111 -2.8346,-0.49996 m 4.989,-11.71346 -2.1544,12.21342 m -0.6803,-12.71374 2.8347,0.50032 m 0.2445,-17.97839 -3.0792,17.47807 m 5.9174,-16.97811 -2.8382,-0.49996 m 4.9925,-11.71346 -2.1543,12.21342 m -0.6839,-12.71374 2.8382,0.50032 m -2.2358,-3.92138 -0.6024,3.42106 m -48.1429,-12.01677 48.7453,8.59571 m -49.3512,-5.17429 0.6059,-3.42142 m -3.4406,2.9211 2.8347,0.50032 m -4.989,11.71346 2.1543,-12.21378 m 0.6839,12.71374 -2.8382,-0.49996 m -0.2445,17.97839 3.0827,-17.47843 m -5.9209,16.97811 2.8382,0.50032 m -4.989,11.71346 2.1508,-12.21378 m 0.6839,12.71374 -2.8347,-0.49996 m 2.2323,3.92138 0.6024,-3.42142 m -83.838203,-14.85354 -48.7488,-8.59571 m 49.3512,5.17429 -0.6024,3.42142 m 3.437,-2.9211 -2.8346,-0.50032 m 4.9889,-11.71311 -2.1543,12.21343 m -0.6803,-12.71374 2.8346,0.50031 m 0.2445,-17.97874 -3.0791,17.47843 m 5.9173,-16.97811 -2.8382,-0.50032 m 4.9925,-11.71346 -2.1543,12.21378 m -0.6839,-12.71374 2.8382,0.49996 m -2.2358,-3.92103 -0.6024,3.42107 m -48.1429,-12.01677 48.7453,8.5957 m -49.3512,-5.17464 0.6059,-3.42106 m -3.4405,2.9211 2.8346,0.49996 m -4.9889,11.71346 2.1543,-12.21342 m 0.6838,12.71374 -2.8381,-0.50032 m -0.2445,17.97874 3.0826,-17.47842 m -5.9208,16.97811 2.8382,0.50031 m -4.989,11.71311 2.1508,-12.21342 m 0.6838,12.71374 -2.8346,-0.50032 m 2.2323,3.92138 0.6023,-3.42106 m -20.0019,10.79468 -48.7453,-8.5957 m 49.3512,5.17429 -0.6059,3.42141 m 3.4405,-2.9211 -2.8346,-0.50031 m 4.9889,-11.71311 -2.1543,12.21342 m -0.6838,-12.71374 2.8381,0.50032 m 0.2445,-17.97874 -3.0826,17.47842 m 5.9208,-16.97811 -2.8382,-0.50031 m 4.989,-11.71347 -2.1508,12.21378 m -0.6838,-12.71374 2.8346,0.49996 m -2.2323,-3.92102 -0.6023,3.42106 m -48.1465,-12.01677 48.7488,8.59571 m -49.3512,-5.17465 0.6024,-3.42106 m -3.437,2.9211 2.8346,0.49996 m -4.9889,11.71347 2.1543,-12.21343 m 0.6803,12.71374 -2.8346,-0.50031 m -0.2445,17.97874 3.0791,-17.47843 m -5.9173,16.97811 2.8382,0.50032 m -4.9925,11.71311 2.1543,-12.21343 m 0.6839,12.71374 -2.8382,-0.50031 m 2.2358,3.92138 0.6024,-3.42107 m 185.665703,7.48205 -48.7488,-8.59571 m 49.3512,5.17429 -0.6024,3.42142 m 3.4406,-2.9211 -2.8382,-0.50032 m 4.9925,-11.71346 -2.1543,12.21378 m -0.6839,-12.71374 2.8382,0.49996 m 0.2445,-17.97839 -3.0827,17.47843 m 5.9173,-16.97847 -2.8346,-0.49996 m 4.9889,-11.71346 -2.1543,12.21342 m -0.6803,-12.71338 2.8346,0.49996 m -2.2322,-3.92138 -0.6024,3.42142 m -48.1465,-12.01677 48.7489,8.59535 m -49.3512,-5.17429 0.6023,-3.42106 m -3.437,2.9211 2.8347,0.49996 m -4.989,11.71346 2.1543,-12.21342 m 0.6804,12.71338 -2.8347,-0.49996 m -0.248,17.97839 3.0827,-17.47843 m -5.9174,16.97847 2.8347,0.49996 m -4.989,11.71346 2.1543,-12.21342 m 0.6839,12.71374 -2.8382,-0.50032 m 2.2323,3.92138 0.6059,-3.42106 m 185.6657,7.48169 -48.7488,-8.59535 m 49.3512,5.17429 -0.6024,3.42106 m 3.4406,-2.9211 -2.8382,-0.49996 m 4.9925,-11.71347 -2.1543,12.21343 m -0.6839,-12.71339 2.8382,0.49996 m 0.2445,-17.97838 -3.0827,17.47842 m 5.9173,-16.97846 -2.8346,-0.49996 m 4.989,-11.71347 -2.1544,12.21343 m -0.6803,-12.71374 2.8347,0.50031 m -2.2323,-3.92137 -0.6024,3.42106 m -48.1464,-12.01677 48.7488,8.59571 m -49.3512,-5.1743 0.6024,-3.42141 m -3.4406,2.9211 2.8382,0.50031 m -4.989,11.71347 2.1508,-12.21378 m 0.6839,12.71374 -2.8347,-0.49996 m -0.248,17.97838 3.0827,-17.47842 m -5.9173,16.97846 2.8346,0.49996 m -4.989,11.71347 2.1544,-12.21343 m 0.6838,12.71339 -2.8382,-0.49996 m 2.2323,3.92138 0.6059,-3.42142 m -293.201603,9.39614 -48.748707,-8.59571 m 49.351107,5.17429 -0.6024,3.42142 m 3.4406,-2.9211 -2.8382,-0.50032 m 4.989,-11.71346 -2.1508,12.21378 m -0.6839,-12.71374 2.8347,0.49996 m 0.248,-17.97839 -3.0827,17.47843 m 5.9174,-16.97811 -2.8347,-0.50032 m 4.989,-11.71346 -2.1543,12.21378 m -0.6804,-12.71374 2.8347,0.49996 m -2.2323,-3.92138 -0.6024,3.42142 m -48.146407,-12.01677 48.748807,8.59535 m -49.351207,-5.17429 0.6024,-3.42106 m -3.4406,2.9211 2.8382,0.49996 m -4.9889,11.71346 2.1507,-12.21342 m 0.6839,12.71374 -2.8346,-0.50032 m -0.248,17.97839 3.0826,-17.47807 m -5.91729,16.97811 2.83469,0.49996 m -4.98899,11.71347 2.1543,-12.21343 m 0.68029,12.71374 -2.83459,-0.50031 m 2.23229,3.92137 0.6023,-3.42106 m 326.26771,-14.50028 -48.7488,-8.5957 m 49.3512,5.17429 -0.6024,3.42141 m 3.4406,-2.9211 -2.8382,-0.50031 m 4.9889,-11.71347 -2.1507,12.21378 m -0.6839,-12.71374 2.8346,0.49996 m 0.2481,-17.97838 -3.0827,17.47842 m 5.9173,-16.97811 -2.8346,-0.50031 m 4.989,-11.71418 -2.1544,12.21449 m -0.6803,-12.71409 2.8347,0.4996 m -2.2323,-3.91889 -0.6024,3.41929 m -48.1465,-12.01536 48.7489,8.59607 m -49.3512,-5.17678 0.6023,-3.41929 m -3.4405,2.91969 2.8382,0.4996 m -4.989,11.71418 2.1508,-12.21378 m 0.6839,12.71338 -2.8347,-0.4996 m -0.248,17.97838 3.0827,-17.47878 m -5.9174,16.97882 2.8347,0.49996 m -4.989,11.71347 2.1543,-12.21343 m 0.6803,12.71374 -2.8346,-0.50031 m 2.2323,3.92138 0.6023,-3.42107 m -83.838103,-14.85389 -48.7489,-8.59536 m 49.3512,5.17429 -0.6023,3.42107 m 3.4405,-2.92111 -2.8382,-0.49996 m 4.989003,-11.71169 -2.150803,12.21165 m -0.6838,-12.7148 2.834603,0.50315 m 0.248,-17.97874 -3.082603,17.47559 m 5.917303,-16.97599 -2.8347,-0.4996 m 4.989,-11.71417 -2.1543,12.21377 m -0.6839,-12.71338 2.8382,0.49961 m -2.2323,-3.92244 -0.6059,3.42283 m -48.142903,-12.0189 48.748803,8.59607 m -49.351203,-5.17323 0.6024,-3.42284 m -3.4405,2.92323 2.8381,0.49961 m -4.9889,11.71417 2.1508,-12.21378 m 0.6838,12.71339 -2.8346,-0.49961 m -0.2481,17.97874 3.0827,-17.47913 m -5.9173,16.97598 2.8346,0.50315 m -4.9889,11.71063 2.1543,-12.21378 m 0.6803,12.71339 -2.8346,-0.49961 m 2.2322,3.92244 0.6024,-3.42283 m -19.9984,10.7961 -48.7488,-8.59571 m 49.3511,5.17465 -0.6023,3.42106 m 3.437,-2.9211 -2.8347,-0.49996 m 4.989,-11.71205 -2.1543,12.21201 m -0.6803,-12.71516 2.8346,0.50315 m 0.2445,-17.97874 -3.0791,17.47559 m 5.9173,-16.97599 -2.8382,-0.4996 m 4.9925,-11.71418 -2.1543,12.21378 m -0.6839,-12.71338 2.8382,0.4996 m -2.2358,-3.92244 -0.6024,3.42284 m -48.1429,-12.0189 48.7453,8.59606 m -49.3512,-5.17322 0.6059,-3.42284 m -3.4405,2.92323 2.8346,0.49961 m -4.989,11.71417 2.1544,-12.21378 m 0.6838,12.71338 -2.8382,-0.4996 m -0.2444,17.97874 3.0826,-17.47914 m -5.9208,16.97599 2.8382,0.50315 m -4.989,11.71063 2.1508,-12.21378 m 0.6838,12.71693 -2.8346,-0.50315 m 2.2323,3.92244 0.6023,-3.41929 m 185.665803,7.48027 -48.7453,-8.59641 m 49.3512,5.17535 -0.6059,3.42106 m 3.4405,-2.9211 -2.8346,-0.49996 m 4.989,-11.71275 -2.1544,12.21271 m -0.6803,-12.71232 2.8347,0.49961 m 0.2444,-17.97874 -3.0791,17.47913 m 5.9173,-16.97953 -2.8382,-0.4996 m 4.9926,-11.71418 -2.1544,12.21378 m -0.6838,-12.71339 2.8382,0.49961 m -2.2359,-3.92244 -0.6023,3.42283 m -48.142897,-12.01535 48.745197,8.59252 m -49.351097,-5.17323 0.6059,-3.41929 m -3.4406,2.91969 2.8347,0.4996 m -4.989003,11.71418 2.154303,-12.21378 m 0.6839,12.71338 -2.838203,-0.4996 m -0.2445,17.97874 3.082703,-17.47914 m -5.920903,16.97953 2.8382,0.49961 m -4.989,11.71417 2.1508,-12.21378 m 0.6839,12.71339 -2.8347,-0.49961 m 2.2323,3.9189 0.6024,-3.41929 m -155.678803,4.86141 -48.745307,-8.59606 m 49.351207,5.17323 -0.6059,3.42283 m 3.4406,-2.92323 -2.8347,-0.4996 m 4.989,-11.71418 -2.1543,12.21378 m -0.6839,-12.71338 2.8382,0.4996 m 0.2445,-17.97873 -3.0827,17.47913 m 5.9209,-16.97599 -2.8382,-0.50314 m 4.989,-11.71063 -2.1508,12.21377 m -0.6839,-12.71693 2.8347,0.50316 m -2.2323,-3.92245 -0.6024,3.41929 m -48.146397,-12.01535 48.748797,8.59606 m -49.351197,-5.17323 0.6024,-3.42283 m -3.43701,2.91969 2.83461,0.50314 m -4.98901,11.71064 2.1544,-12.21378 m 0.6803,12.71693 -2.8347,-0.50315 m -0.2445,17.97874 3.0792,-17.47559 m -5.9174,16.97598 2.8382,0.49961 m -4.9925,11.71417 2.1543,-12.21378 m 0.6839,12.71338 -2.8382,-0.4996 m 2.2358,3.92244 0.6024,-3.42284 m 370.28526,-64.93464 -0.6661,-0.0319 m 1.3323,-0.0212 -0.6662,0.0532 m 1.3217,-0.18785 -0.6555,0.13465 m 1.2862,-0.34724 -0.6307,0.21259 m 1.2295,-0.50669 -0.5988,0.2941 m 1.1587,-0.65906 -0.5599,0.36496 m 1.0666,-0.79724 -0.5067,0.43228 m 0.9567,-0.9248 -0.45,0.49252 m 0.8362,-1.03819 -0.3862,0.54567 m 0.698,-1.13386 -0.3118,0.58819 m 0.5492,-1.21536 -0.2374,0.62717 m 0.3968,-1.27559 -0.1594,0.64842 m 0.2338,-1.31102 -0.074,0.6626 m 0.0634,-1.32874 0.011,0.66614 m -0.1031,-1.32874 0.092,0.6626 m -0.2692,-1.30394 0.1772,0.64134 m -0.4288,-1.26142 0.2516,0.62008 m -0.5811,-1.19764 0.3295,0.57756 m -0.7299,-1.1126 0.4004,0.53504 m -0.8645,-1.01693 0.4641,0.48189 m -0.985,-0.9 0.5209,0.41811 m -1.0878,-0.76889 0.5669,0.35078 m -1.1764,-0.62362 0.6095,0.27284 m -1.2473,-0.47126 0.6378,0.19842 m -1.2933,-0.31535 0.6555,0.11693 m -1.3252,-0.14882 0.6697,0.0319 m -1.3323,0.0177 0.6626,-0.0496 m -1.3181,0.18425 0.6555,-0.13465 m -1.2862,0.35079 0.6307,-0.21614 m -1.2331,0.51024 0.6024,-0.2941 m -1.1587,0.65906 0.5563,-0.36496 m -1.0665,0.79724 0.5102,-0.43228 m -0.9602,0.9248 0.45,-0.49252 m -0.8327,1.03819 0.3827,-0.54567 m -0.698,1.13386 0.3153,-0.58819 m -0.5527,1.21181 0.2374,-0.62362 m -0.3933,1.27205 0.1559,-0.64843 m -0.2303,1.31457 0.074,-0.66614 m -0.0634,1.33228 -0.011,-0.66614 m 0.1031,1.32874 -0.092,-0.6626 m 0.2656,1.30394 -0.1736,-0.64134 m 0.4287,1.25787 -0.2551,-0.61653 m 0.5847,1.19763 -0.3296,-0.5811 m 0.73,1.11614 -0.4004,-0.53504 m 0.8645,1.01693 -0.4641,-0.48189 m 0.985,0.9 -0.5209,-0.41811 m 1.0878,0.76536 -0.5669,-0.34725 m 1.1764,0.62362 -0.6095,-0.27637 m 1.2473,0.4748 -0.6378,-0.19843 m 1.2933,0.31536 -0.6555,-0.11693 m -378.34986,0.14877 -0.6661,-0.0319 m 1.3323,-0.0212 -0.6662,0.0532 m 1.3181,-0.18785 -0.6519,0.13465 m 1.2861,-0.34724 -0.6342,0.21259 m 1.2331,-0.50669 -0.5989,0.2941 m 1.1587,-0.65906 -0.5598,0.36496 m 1.0665,-0.79724 -0.5067,0.43228 m 0.9567,-0.9248 -0.45,0.49252 m 0.8362,-1.03819 -0.3862,0.54567 m 0.698,-1.13386 -0.3118,0.58819 m 0.5492,-1.21536 -0.2374,0.62717 m 0.3933,-1.27559 -0.1559,0.64842 m 0.2303,-1.31102 -0.074,0.6626 m 0.067,-1.32874 0.01,0.66614 m -0.1057,-1.32874 0.096,0.6626 m -0.2696,-1.30394 0.1736,0.64134 m -0.4287,-1.26142 0.2551,0.62008 m -0.5847,-1.19764 0.3296,0.57756 m -0.73,-1.1126 0.4004,0.53504 m -0.8645,-1.01693 0.4641,0.48189 m -0.9815,-0.9 0.5174,0.41811 m -1.0878,-0.76889 0.5704,0.35078 m -1.1763,-0.62362 0.6059,0.27284 m -1.2437,-0.47126 0.6378,0.19842 m -1.2968,-0.31535 0.659,0.11693 m -1.3252,-0.14882 0.6662,0.0319 m -1.3323,0.0212 0.6661,-0.0531 m -1.3181,0.1842 0.652,-0.1311 m -1.2862,0.34724 0.6342,-0.21614 m -1.2331,0.51024 0.5989,-0.2941 m -1.15869,0.65906 0.55979,-0.36496 m -1.06649,0.79724 0.5067,-0.43228 m -0.9567,0.9248 0.45,-0.49252 m -0.8362,1.03819 0.3862,-0.54567 m -0.698,1.13386 0.3118,-0.58819 m -0.5492,1.21181 0.2374,-0.62362 m -0.3933,1.27205 0.1559,-0.64843 m -0.2304,1.31457 0.074,-0.66614 m -0.0669,1.33228 -0.01,-0.66614 m 0.1057,1.32874 -0.096,-0.6626 m 0.2696,1.30394 -0.1736,-0.64134 m 0.4287,1.25787 -0.2551,-0.61653 m 0.5847,1.19763 -0.3296,-0.5811 m 0.73,1.11614 -0.4004,-0.53504 m 0.8645,1.01693 -0.4641,-0.48189 m 0.9815,0.9 -0.5174,-0.41811 m 1.08779,0.76536 -0.57039,-0.34725 m 1.17629,0.62362 -0.6059,-0.27637 m 1.2437,0.4748 -0.6378,-0.19843 m 1.2969,0.31536 -0.6591,-0.11693 m 356.82871,457.27346 2.6681,0.1304 m -5.2972,-0.594 2.6291,0.4636 m -423.4074,-85.45192 420.7783,84.98832 m -423.3294,-85.77777 2.5511,0.78945 m 47.5193,-383.27351 -0.6272,2.5937 m 1.5768,-5.09173 -0.9496,2.49803 m 2.2039,-4.85433 -1.2543,2.3563 m 2.7921,-4.53898 -1.5378,2.18268 m 3.3378,-4.15276 -1.8,1.97008 m 3.8339,-3.69921 -2.0339,1.72913 m 4.2662,-3.19251 -2.2323,1.46338 m 4.6346,-2.63268 -2.4023,1.1693 m 4.9287,-2.03032 -2.5264,0.86102 m 5.1414,-1.3996 -2.615,0.53858 m 5.27599,-0.74409 -2.66099,0.20551 m -69.85285,396.14953 2.4308,1.10303 m -4.702,-2.50193 2.2712,1.3989 m -4.3547,-3.07205 2.0835,1.67315 m -3.9366,-3.59362 1.8531,1.92047 m -3.4512,-4.05815 1.5981,2.13768 m -2.9197,-4.45926 1.3216,2.32158 m -2.3385,-4.78984 1.0169,2.46826 m -1.715,-5.0446 0.6981,2.57634 m -1.0701,-5.22036 0.372,2.64402 m -0.411,-5.31355 0.039,2.66953 m 0.2586,-5.32275 -0.2976,2.65322 m 63.1275,-358.9774 -62.8299,356.32418 M 224.79844,671.013 h 225.1852 m 358.5437,-483.82984 h -942.27251" />
  </g>
  <g
     inkscape:groupmode="layer"
     id="layer2"
     inkscape:label="feather"
     style="display:none">
    <path
       inkscape:connector-curvature="0"
       d="M 297.94428,380.88212 V 199.4648 h 80.78738 v 181.41732 z"
       style="fill:none;stroke:#000000;stroke-width:0.9375"
       id="path6697" />
    <path
       inkscape:connector-curvature="0"
       d="m 302.44428,287.92346 a 2.25,2.25 0 1 0 0,-4.5 2.25,2.25 0 1 0 0,4.5 z"
       style="fill:none;stroke:#000000;stroke-width:0.9375"
       id="path6713" />
    <path
       inkscape:connector-curvature="0"
       d="m 302.44428,278.92346 a 2.25,2.25 0 1 0 0,-4.5 2.25,2.25 0 1 0 0,4.5 z"
       style="fill:none;stroke:#000000;stroke-width:0.9375"
       id="path6715" />
    <path
       inkscape:connector-curvature="0"
       d="m 302.44428,269.92346 a 2.25,2.25 0 1 0 0,-4.5 2.25,2.25 0 1 0 0,4.5 z"
       style="fill:none;stroke:#000000;stroke-width:0.9375"
       id="path6717" />
    <path
       inkscape:connector-curvature="0"
       d="m 302.44428,260.92346 a 2.25,2.25 0 1 0 0,-4.5 2.25,2.25 0 1 0 0,4.5 z"
       style="fill:none;stroke:#000000;stroke-width:0.9375"
       id="path6719" />
    <path
       inkscape:connector-curvature="0"
       d="m 302.44428,251.92346 a 2.25,2.25 0 1 0 0,-4.5 2.25,2.25 0 1 0 0,4.5 z"
       style="fill:none;stroke:#000000;stroke-width:0.9375"
       id="path6721" />
    <path
       inkscape:connector-curvature="0"
       d="m 302.44428,242.92346 a 2.25,2.25 0 1 0 0,-4.5 2.25,2.25 0 1 0 0,4.5 z"
       style="fill:none;stroke:#000000;stroke-width:0.9375"
       id="path6723" />
    <path
       inkscape:connector-curvature="0"
       d="m 302.55059,233.92346 a 2.25,2.25 0 1 0 0,-4.5 2.25,2.25 0 1 0 0,4.5 z"
       style="fill:none;stroke:#000000;stroke-width:0.9375"
       id="path6725" />
    <path
       inkscape:connector-curvature="0"
       d="m 302.44428,224.92346 a 2.25,2.25 0 1 0 0,-4.5 2.25,2.25 0 1 0 0,4.5 z"
       style="fill:none;stroke:#000000;stroke-width:0.9375"
       id="path6727" />
    <path
       inkscape:connector-curvature="0"
       d="m 302.44428,296.92347 a 2.250005,2.250005 0 1 0 0,-4.50001 2.250005,2.250005 0 1 0 0,4.50001 z"
       style="fill:none;stroke:#000000;stroke-width:0.9375"
       id="path6729" />
    <path
       inkscape:connector-curvature="0"
       d="m 302.44428,305.92347 a 2.25,2.25 0 1 0 0,-4.5 2.25,2.25 0 1 0 0,4.5 z"
       style="fill:none;stroke:#000000;stroke-width:0.9375"
       id="path6731" />
    <path
       inkscape:connector-curvature="0"
       d="m 302.44428,314.92347 a 2.25,2.25 0 1 0 0,-4.5 2.25,2.25 0 1 0 0,4.5 z"
       style="fill:none;stroke:#000000;stroke-width:0.9375"
       id="path6733" />
    <path
       inkscape:connector-curvature="0"
       d="m 302.44428,323.92347 a 2.25,2.25 0 1 0 0,-4.5 2.25,2.25 0 1 0 0,4.5 z"
       style="fill:none;stroke:#000000;stroke-width:0.9375"
       id="path6735" />
    <path
       inkscape:connector-curvature="0"
       d="m 302.44428,341.92347 a 2.25,2.25 0 1 0 0,-4.5 2.25,2.25 0 1 0 0,4.5 z"
       style="fill:none;stroke:#000000;stroke-width:0.9375"
       id="path6737" />
    <path
       inkscape:connector-curvature="0"
       d="m 302.44428,332.92347 a 2.25,2.25 0 1 0 0,-4.5 2.25,2.25 0 1 0 0,4.5 z"
       style="fill:none;stroke:#000000;stroke-width:0.9375"
       id="path6739" />
    <path
       inkscape:connector-curvature="0"
       d="m 302.44428,350.92347 a 2.25,2.25 0 1 0 0,-4.5 2.25,2.25 0 1 0 0,4.5 z"
       style="fill:none;stroke:#000000;stroke-width:0.9375"
       id="path6741" />
    <path
       inkscape:connector-curvature="0"
       d="m 302.44428,359.92347 a 2.25,2.25 0 1 0 0,-4.5 2.25,2.25 0 1 0 0,4.5 z"
       style="fill:none;stroke:#000000;stroke-width:0.9375"
       id="path6743" />
    <path
       inkscape:connector-curvature="0"
       d="m 374.23166,359.92347 a 2.25,2.25 0 1 0 0,-4.5 2.25,2.25 0 1 0 0,4.5 z"
       style="fill:none;stroke:#000000;stroke-width:0.9375"
       id="path6745" />
    <path
       inkscape:connector-curvature="0"
       d="m 374.23166,341.92347 a 2.25,2.25 0 1 0 0,-4.5 2.25,2.25 0 1 0 0,4.5 z"
       style="fill:none;stroke:#000000;stroke-width:0.9375"
       id="path6747" />
    <path
       inkscape:connector-curvature="0"
       d="m 374.23166,323.92347 a 2.25,2.25 0 1 0 0,-4.5 2.25,2.25 0 1 0 0,4.5 z"
       style="fill:none;stroke:#000000;stroke-width:0.9375"
       id="path6749" />
    <path
       inkscape:connector-curvature="0"
       d="m 374.23166,314.92347 a 2.25,2.25 0 1 0 0,-4.5 2.25,2.25 0 1 0 0,4.5 z"
       style="fill:none;stroke:#000000;stroke-width:0.9375"
       id="path6751" />
    <path
       inkscape:connector-curvature="0"
       d="m 374.23166,305.92347 a 2.25,2.25 0 1 0 0,-4.5 2.25,2.25 0 1 0 0,4.5 z"
       style="fill:none;stroke:#000000;stroke-width:0.9375"
       id="path6753" />
    <path
       inkscape:connector-curvature="0"
       d="m 374.23166,296.92347 a 2.250005,2.250005 0 1 0 0,-4.50001 2.250005,2.250005 0 1 0 0,4.50001 z"
       style="fill:none;stroke:#000000;stroke-width:0.9375"
       id="path6755" />
    <path
       inkscape:connector-curvature="0"
       d="m 374.23166,350.92347 a 2.25,2.25 0 1 0 0,-4.5 2.25,2.25 0 1 0 0,4.5 z"
       style="fill:none;stroke:#000000;stroke-width:0.9375"
       id="path6757" />
    <path
       inkscape:connector-curvature="0"
       d="m 374.23166,332.92347 a 2.25,2.25 0 1 0 0,-4.5 2.25,2.25 0 1 0 0,4.5 z"
       style="fill:none;stroke:#000000;stroke-width:0.9375"
       id="path6759" />
    <path
       inkscape:connector-curvature="0"
       d="m 374.23166,287.92346 a 2.25,2.25 0 1 0 0,-4.5 2.25,2.25 0 1 0 0,4.5 z"
       style="fill:none;stroke:#000000;stroke-width:0.9375"
       id="path6761" />
    <path
       inkscape:connector-curvature="0"
       d="m 374.23166,278.92346 a 2.25,2.25 0 1 0 0,-4.5 2.25,2.25 0 1 0 0,4.5 z"
       style="fill:none;stroke:#000000;stroke-width:0.9375"
       id="path6763" />
    <path
       inkscape:connector-curvature="0"
       d="m 374.23166,269.92346 a 2.25,2.25 0 1 0 0,-4.5 2.25,2.25 0 1 0 0,4.5 z"
       style="fill:none;stroke:#000000;stroke-width:0.9375"
       id="path6765" />
    <path
       inkscape:connector-curvature="0"
       d="m 374.23166,260.92346 a 2.25,2.25 0 1 0 0,-4.5 2.25,2.25 0 1 0 0,4.5 z"
       style="fill:none;stroke:#000000;stroke-width:0.9375"
       id="path6767" />
  </g>
  <g
     inkscape:groupmode="layer"
     id="layer3"
     inkscape:label="cutout"
     style="display:inline">
    <path
       id="path6705"
       style="display:inline;fill:none;stroke:#ff0000;stroke-width:0.9375;stroke-opacity:1"
       d="m 306.94428,374.89393 a 4.4291344,4.4291344 0 1 0 0,-8.85826 4.4291344,4.4291344 0 1 0 0,8.85826 z m 63,0 a 4.4291344,4.4291344 0 1 0 0,-8.85826 4.4291344,4.4291344 0 1 0 0,8.85826 z m 0,-162 a 4.4291334,4.4291334 0 1 0 0,-8.85826 4.4291334,4.4291334 0 1 0 0,8.85826 z m -63,0 a 4.4291334,4.4291334 0 1 0 0,-8.85826 4.4291334,4.4291334 0 1 0 0,8.85826 z m -9.02494,145.81239 v -140.3261 h 80.83726 v 140.3261 z" />
  </g>
  <g
     inkscape:groupmode="layer"
     id="layer4"
     inkscape:label="knob">
    <g
       id="g1009"
       inkscape:label="0"
       transform="matrix(0.9375,0,0,0.9375,267.47183,-523.74285)">
      <path
         id="path1007"
         style="fill:none;stroke:#000000"
         d="m 50.645669,1042.9606 h 3.779528 m -3.779528,7.937 v -7.937 m 3.779528,0 v 7.937 m 0,0 h -3.779528 m 11.716536,28.1575 v -7.559 m 26.456693,7.559 H 62.362205 m 26.456693,-7.559 v 7.559 m -26.456693,-7.559 h 26.456693 m 7.937008,-20.5985 h 3.779524 m 0,0 v -7.937 m 0,0 h -3.779524 m 0,0 v 7.937 M 62.362205,1024.252 v -7.5591 m 26.456693,7.5591 H 62.362205 m 26.456693,-7.5591 v 7.5591 m -26.456693,-7.5591 h 26.456693" />
    </g>
  </g>
</svg>
